<mxfile host="app.diagrams.net" modified="2022-08-01T02:41:42.575Z" agent="5.0 (Macintosh; Intel Mac OS X 10_15_7) AppleWebKit/537.36 (KHTML, like Gecko) Chrome/103.0.0.0 Safari/537.36" etag="4MbU7ziFseAiROp8Mv9t" version="20.2.2" type="github">
  <diagram id="nXR6Vvq9dAjeWg5FW7uE" name="第 1 页">
    <mxGraphModel dx="1024" dy="2274" grid="1" gridSize="10" guides="1" tooltips="1" connect="1" arrows="1" fold="1" page="1" pageScale="1" pageWidth="827" pageHeight="1169" math="0" shadow="0">
      <root>
        <mxCell id="0" />
        <mxCell id="1" parent="0" />
        <mxCell id="A1cvQZXChHMwhufqwU2C-1" value="" style="shape=image;verticalLabelPosition=bottom;labelBackgroundColor=default;verticalAlign=top;aspect=fixed;imageAspect=0;image=data:image/png,iVBORw0KGgoAAAANSUhEUgAAAggAAAGvCAYAAAA+DS2oAAAAAXNSR0IArs4c6QAAIABJREFUeF7sfQecXFd5739776tV77aKZcsWBndsik2xDaGHZiAQTArwaAFekvcIoaUREiD0kGcwoSWATTXNBOOGuy3Jlm1Zlqy62qLtbXbm/e4533fOd+7cO3Pv7Mzs7O7wey8I6ezsvf/52vnK/6tIpVIpAPD+q6Kiwvuj+jMqKlCBFNT/qwAqvFPqn/1nxM/qj6Iz3mfQ//Q+Sf1bhfex0B+vP9s97/3GlHfKewqkUnRe/aR8Fv3v3ofZ8/y5+mPTztMLeOf1E3rPpN424F2dFy5j48feCkNO2Eg5U39muTHCsXTlJndsPP3V4rxYdWoxYKO+Is+8hOqUZ/c8kxTPFqedj6xTpSM32bBRtruMjfDJ1k8VCpuKVDLpeWTtUk1gwEZGGBzPjnunUikKGLRz1oFEhvP6lAowtGKQ4NPf8U96/0ZPoUME9XvsZ/NncPxhfTuFCDHOq8glwnnvGUoXmxAs6XvSX00ZG0duyDgvNmxYEgLflYJlq1NZdHCRyU0ZG31f40uTtMVlbCJiQ/dI9V+BfmqB6lQEn1+RTCX5ncXdWt3frTNXflI7S5NIMLGD4/J1BsL7WTqoswB0rUlVUJBAP0xg83n1IAHnvU+s0NGFvmxW6M+X5/Vf688PPM/PS5/P5/U7BXy++4hlbCT2JYaNlot0OVtUciN1MIZOLVZsQu3TgseGsqcmzxnfFhcSG5350LZY/7F4tph9g80Blxo2wjAuEmwqkqmU9x0bd+/d2rlIQN5epMSkg6eY1ERUNtughMYNt9iz2wCBfqVx6DI1oITPfr7JUHBQoIIXZf5t6SPbeQ5OTAo2/PNZCUxphcKD/GDD6UUBXLZnX3TYeIZFyJmNHyn1WsbG6GApY6O/La2DbCy8vyP/EWo/hL3RZUJRjTT+R//BfBalzOcqN+ZCUGidKmOTwdYvDLlxdJAvkktMbqjEIIqXSinJwZOf1qVhcsmmD4FTBG6tQP+tre/r2hhbEFOnMDUJjgZ1gkKXLPi8DQD0KWOHKJWRdt67Pahv1Z7nQCLo85UB8sIMk8ngwFhfl/VnlbFh7C2WZWx0MVS6RR2wLnW5UZmcMjYkHj57VgRsHNsdaIuFNvtqUvNpi/MuN47t1n5nyWLDXYHsw2NgozMItjCgav8c1Vt/TUkrU9/WTpXrmv7ztj+ADKhqgJSXDA4gtP8NPs85LLptUnSgXDr/EGe6ZFMlRe7Os1Mvg72pcBKOsgikMzoWsL0PaecXOjZKSTTgWd/VVC1NH2cZG1N4K77cKBHl7800FRdJp0pcbvKDjcXS2Bfu38hkb8rYmLqzNp/+pu/StTf5lhvlB6P6KSE3OlORwe/EtcVh53lIgF48kw832NgpBposCGxcIINIBso6dO1o1a3JRADyvqn/zPkIX25AZBFsv4OtKgkjzEkB6i/gLAXf3/RPZz6v61ccsER/VytEjIG/MXPhYyPbTM2ESQQ5KBQ2/AxWbliGpJy49cdCyc1CxcbfLRRFR2RLcLzzYjIpRG60zchNB6PaGw6gbL4yWG6Kiw1PY4Xbj3xhw43mQba4ZLGRtjutSZ5mzvIgN5GxEU26dAU2fqroclNkbNyBA/KynEHQkZ9u9DOOl0YduQHMcfRp5+34DhsX0SlgwgSdSqLfYHtddARlOwsCz9vGGIq4As5T5yJdkU0rg/58KmiaSQwyWuJK7YxW8k170WGjvuhSx4bLPSQVxZKbAmPDJau56VQJYsPTShF1SmfqqPvbSSFah5qbvcmGjc0eRrI3pu8s2D4Ze5NJbmJgo23w4sTG9jcKW5wFG+ssdJ68jI2+ZrMvo+R/wbCpcDIIKtdBCqpSHpb/wJnN5ZS8PG+mATiNzVkFzjLwrZ36GSgboKcRZBaCR/NEbwOfESGEzVr4z8sRRu5FcO6BOghIe1c9WqnbG9zRTTvtuNCx4c5jzrj435Xfzy8HZWxYKYsqN+rSzRNBegyZe3p05q5YOlWCcuPYp8WETZgOxrDFJYgNdej4bGtce1N62Egd5KZa+a7hfsrqVEljI6cY0ngHnGoBERuJPL08L+oFsq1ZjMRQjcUU9ukP5vagKzGm0OonaBI5Mm4sND0QHL1biibTS6HT4LJngsoefo4FOb6j/qwDF57wWCzY6IjTFrOLig191/mXG52+djJMLGcx5Ka0sWFllO8aRafK2NBIlR16F02UOcuNgLUsN6Ifja787iRL7vZG2SeFdQ62OKu9mQedYrnx26cc/FQxsKlIJfU3YCr4dq7IuFu+UQveIDuaZDv56EMEF6KRCxkMiJkm8deUUKDOcN95k+sXOu7rS9BKaroWbYmBIxfLeZT+rtJhmo5PepSlgI3AMk0OFgA29hELIDeLFRunaVhUV50APotOxcCGU6E8BBUuZz77wfcGNht5tDehchMHG/Ni3OptS9aGC4aa0OZunxYfNlzOLmOTLjfFx8beytnnVySTSRotdrsASC+5W4CaEW3E5aU6Wcn9KXnTmMgNH0SPKZvPWAcZBJkyJVoAQ5rkb03TT8FlCVtL5yYoaUNoRiJtTFNTU9qBbfs8VJbwjXXKCuTCxUZSqNjv0j/Cmhs2Wh6iYSOrv1Yx8iE3Si4lG6CT2sokN2VswnWq9LAJkzPFHpqDvVlMclPy2Ajbzd1k8W1xbvamjI3fh1tbHISN7UEgdx80qmIXKNiPkLTMTiSuvLMoFXAYQV7f/SfpUuTMsG3EsBNGEXY3mC0OTEbEeyRczmodDFiyDpcbncmXbJihe2lpQ4RvjCdv2PAophhBtO62VLChJla5i8Fh3EwfcZJ01Uo0RadyZLkpNDaZdn6IHR6Z5SYzNrJBy5avRFqrjI3YT2B7XphsYunIjbQ2XKeW9iwbNrZPRZutEFs8J52iMqW5DvBovMk1Z96jk7NOlbHJuMPDeKn8yY3NINCN2TKVuelaw0HtddgyAYcZqPexA1Jmkt2wLk0wDbLoMvZNTLjnXbY9Q4dMKT3b2EgldapTmc9Q6U93IkM3jPDDEZ8Cz6DK8z6+B+5ULmMjy7jhWFKnp/6m6CtQ3cclIze0p4L8s/xe1TPmKjeGo6OMDW1qiYVlqNzQdJWSIMPAaWhVXTlTHd6FsjclKDc5YyMuPUw1L20r28U0HaE8X5qOlC426oljyY1bx0qzB0sIG9rFQDd2igj5f5ktC0pIuMPfEMiROPmWNTHzAccXS5QbncsgbimFlYv7MaPvqdBZuaB9A253c3H3VJS63CwmbPSIV5gcuD082eVMBdJGR/X/KN5+Eys3dpOLLSTq14xjbxYRNjQ6Zt23y/cRho3OxQbZ4vxiI+VMJ4WLKDdlbNJ3EvEYboGwsbsYiMXI3Pi4diu50R1+cepAkLzr9LAigW+7n6jEEMTTHvc8V5/0FIPsKszA6y6fXddRDGOkceJh77qAsHFGZsrYaCnOtsMj0z6AstzYhmSBpSQmy10HbUYqUAed/SnzZ2/mS6ds8zgZ46A9FSoyKGPjlvBoh8e8Y2P5ehwdybSvJA/2Zq5yIyQK8XcxOJ0MARzXpu5Fd2i5W8G3K4EfhFOL2XYr2JiFZsBNytE2FvKcun1J0Zimnp28vYoRdG+CKUQYpsgcOfUdbHR+3b/XQnJLyz0VkptBxGbGgi4FbLhRTH1jZbnxyWXwfhMOkv0888XRKb7pz69OhcoNXSDCsIkiZ5wJ1AkN2QtEGT2TihF3IeaoCDhfbHtTxoaDq6AdQ7np1FKSm/RdDHYIkIhY9G1bGSLypDw7L3kLOFgL361go2CHszpkF4OmfbR8BNwiP6+7GPKCjb4GpGPJF4EFuqei1LHxuttFaB3UjFuwPRV5wMYQNaXpYB7kphSxEftTTO+Q4EmR9qaMDd1MRFbUtmswMyUl0/K5F6csN/Yi49+tkAdsZNcWN9XbmHNuuxsi6xQzKZpcrCE9ltVzd3DQnuXiQBr3oCA7cO/DIunC/2BSZOIvTLFC0q3KZ3TPyqSI/hd3bNHfCSDPR3n2uOftdIZ/QExMnPvePz6WZWzC5bKMTRkbtgRxdLAsN2W5WTpyk92vVSSTKRoIyG0Xg7oN2yyOCC983OXMZhj1PNMq84pUnoIg+bW7FbSD598Wxo2uHpGaarioqhtuKD1KKW0/x7WeEoqIDZcomFEq6ruWOjaaBD2N/3sxYWPWzfo49bPKTRkbp1HN0ako2HBWx2yz8+1iCNUpvkGF7FYokk6FyQ23OckmvijYaNpAsjcliQ1d02hynEfEbblW8OkI283JH61ebEtsg2MZG32rLTVs5raLgVpadXe97ZwO2q3gT3kx/Wm0XQw8IikIdswQfdRdDKZjL8IuBrcfOKddDIsAGzneafdUlLER7f5EASs77kXuytAcxNjhESI3uiwXtItBR742sGWjm22/SeF0qthys7iwibdvQH37ZvozSM4KLzfx9+IE2+JguYmyRyd4T0UZG6Zi5+knrwXPZ5+kvQna4aFKDG5Bz+3wN6NQ6VGtKaTL9gK6pZuI0mvUY1oi+XA8FS/Oi740f52AMgTMeywIMzib79YVspw3aQiT8Xd4FlT9iBxhBGx0aBRyfiFjY57dczokWBmxEV3pJlNZDGzcmXhRXyqc3MwVGyWvcbBhxlD9XUTXqTI2XJq0U09iBbOZ53eroqYswfbJ0W/68kXlMvN5YW/mWW5MmVbYYjNI6djiGHJDzJXcJ+ar8Ua3xYXGRk6uGb/Go5omD264NvIiNwscm/BdDMx3TM0WIvNFho0iO1myMsrErIOMtbjlS0fOXxLrpnAqOrXr+9KEzFLgQ80GFCXMeReDKVToBk16VmOM5edz+tQwLPJ5UfGcMzZBnyVA4/w3dYY6I6rZsBQjqVnflcsv7HnnjI1Lc82lH2fnB0e2PMqaJjcWmyi7GMrYLDa5SeeNd27S8y03kmeCL0hp9imf9kbq1BLDRtinYD8lsAnza/mwN8JdxbI3/ljM8Yu+Z49ri+eITcAuhmCOa1UdETX8/O1i0M7dv4shd250fxsgfX7AboVw/m85/qI9k610+pMbFD4wNoYtMLgdM96+AYtNamYWyZFp9curWuqA6koo3nmHHEViSRssOVBw6IQpVKeQP94uhtLDRpevsnHw54hNLN74Mjb54tR37E2ATrkJQzuhEk8O8iE32XWQLUHhseHNM26Tdm62tYxNuG1dOtiYHgRdx6QahUwPE20p01XyxLOhUnVYGeRn2Jlh20Zo0/Dp+w8ynDf9hWTk1epPOZOs62y6yUPm/WRqT+6P5nStIFqikUqjWvZFqcY7v9iMP3ASo789rDx782Vr0HD2MvOuOjaJjo09zyxXCxsb5rZIk7Mc5KaMjRZ8XtwkdWoxYKMvOa79CJUbMWYt7U1hseELTUx7E2a7fbsYMtniYmBj7T7vx4lji8vYaNY3ER4z/aliYuLuALOC2Pou3f2qe6YstVa4zye5ybyLQdTnbLZfPwj/mmCOa9+eAwoyZLlP5Qwi72KgWm0IR74dGtDBQS488Nr42RyR3PUQuIuhyNiM/PopDN90QBnulvNXoPXFm1HhZRG4/2EJY2O+c5+cLS5sxF6LgH0DXC/NrFNyH8pi0qkyNmz8WRdsebaMTfGw4Ub9YD+ysPwULTpMppI0jGdTsOIOzlVuIoDUpQD975bEKP287qTW2dmQfQOc5Y6wu0EJvfm8YP5v7lnQfpKCD1pkxuxlJgjg5jCicnXeikoFNsriP8lT9uGpwGDKJIXCZvz+kxj62ZPqe2i9ciMad/bYjGUsbAKwDOLzJmwSJ8ZQWV2JyvZ6oNIyT+pfWRrYZJSzAmKTUc7yjk0ETv0YOiV7eMI49V2diic3UbCxMiQeXNxuuPSYXacWETYBnPoSnfj2poDYsNXjGnrUXTEZ7E1k2y0zxQRQGRvR9OyqlKRqi+jDtdzoZU3UPKNCBIdSlGtalj6E/KfJxNvlIbbooB264S3WjyrHKSiicF4n0nn5UTzCIfncfaxhaW5bBA5pjZFB7+qed94rgMqpkNikEikkToyrN6pe3oiKGq+sIhgZSSA0zAKbUOz95jcdm/H7ejHyq4NAdRVan7sW9Wd1k1pST4aUG/mdFxkbS18dJmchcjMHbJhLg1SGu2hsv8oSxsY2C2bXKZZXnogSnSLc2mf3rRiKAN6jYmqhxbU3c5CbMjYc7qXbm8WDjQh982SL5wubOe5i0JMGcfcNhJ3PxnXOQZFpugngOtfTO9rMuOcpyCnxXQxZsfEkRQmdV17g1Ir/XbPzxmfCJjWrBXzgPx/GxO4+dbT56SvQ/srTTW1a/26bQQiSA13G0mf0efml5E9u1Odn2d3A4ZAbAHPdjrJiVMcrRbnJtqcirg5qrztXuQmWs5LZN8C5Ud++lTj7UHKXmzI2ce1TWW7CdwzNFzZOk6K24CJRIwk4RPufHc4JPq8yAxn2DTDnPfsYk7ngzIIghNEfRcBxFkIkt6n1wtfnTJmQXM5zxOczn/OHjcUyOTaDsbtPwPvv5gtWoKqjPu/YTO4/hbHfHUFVSy2qexoxdm8vkEyi7QUbUb+1wza5JJLwyg/Vy5tUL0Rh5UbXitLlJkjOSCZD5EayaNoMVmaZ53tqxvMFlhtuHDTVTcOpX8ZmsWBj8yFW4ijM0Jldnz3TwYskh45guwskN2a3jGGEya9OLQpsKA0gN6EGfa9x7U1u2LBkZfH5qVSSptql+TMT6dSpwNMJ5DWpTqb+l8kgsGFmWl4WaEtuJM/bCyVthFS3QKrzm1w9fz7H8fZ3KMUQ5/kGZZ88/R3cT5EUze6z6+I+37D8Icj8YeOl/Ae+tU/B2LhzGTpfu516kVLA5CzG7zmByroq1J+7PGdsBr+zT32O95+uN5yB2lXNakKkuq0eqCJuiooUBv/rMUw+fgpVrbVY9mdnC7rrMDmwP1t8ubFyu7jlhhac0WSR/12NTDu9NxGwkUypfIkQOuLXOcFQYezHnHRK9HPkbm9KARsOo61R1r1cc7A3ZWyoH87vd9jDkB3P2U8tDLnxT6cE6aAsU9gLbxYfnraLIQb/N6eQza2GuaSd7Qj06EXiRnd3MaTvD9A0uTrdrQNyoazZ9g3MMzYTvz+Ogf9+VD1+w5YOdL35LN4ejpFfH8LQzw8qZWm9fD1aLl9Pq6zD9lQEYzN0w36M3HYMFdUV6L7mDJU10GC55w9/4BbTuNr5qi1oPHcFVXYERz41Ldk5bL3XIpvczA7PYOK+E6g/axmq2mpRUUX9FjI+FcwUgoDb9/l0i5FfseSBFzs8XE79xSU33F7rYr/wsNG+0DZJ65Ety1ASLgdacMzegKz2ae7YqEfliw4FANHsjb6M+e2TedcQnZoPbMyEXQSdcsxsjtiE2e7SwUbImeE3EnsnQuxNKWPj7mLg+r1osOJmQz8diG3SskxPWh84FSzrwnIu02SjfZMQMrEi+QlEgMjEPqTgHAVJClU9OmGNgc4acPmbsgFsZMRohBIyQ8Up03Yu1zmPDvC7Kh54P12RSAf6z/v3VPDzmvq8eVg5JaL/cvbUJEZvO6beqHHXctSsbDLvOvzD/Rj53RE9BnnRSrT/wWkmAalfkz44CzbJ0QRGbjmM6o56ND6tBxU1lQH7BoD+/9iDiUcGVAah5+27lCPPCzZIYeC6vZjY26+0refanajd3C6FoETlxi9nPrmxsz8+ObONGQ4jZEYdtN8lN/86Iy1UXuFUpknBW0UI0BFxU2KJjiE3OsByx42sTpUgNoG7XDgC9duPYmIjG619yWPHPgXLjd2LYxvFndskX3J8tl4LhC7n+jkf2HToKEt2d5vQk/5SMOZGtDfpcsMJFbnfxGYDbGN28bBRb7VUsXF2MXDY6ues5rY/1eyj2eJsQyG3FpM5IqMyl10M5qsXTW2mACI+P/fdDSJEl0pn+DHFfIXKUAWdt1UIdWSesZl67BQG/vMRVHfWo+tNO1QPgdOr6cNSmXPGkjo4TvzrvcoGdL7sdNSsbRE7OdJ3MaQmZpEYmERlbSWquxspVuPu8rlhc/iDOjvhSduy12xF/Tk9ZLm1q1MDlo4c6KhncctNll0MKjDXhrSMTbp9CsJGb1osttzw1FWW/SZ5s8W5yU0ZG+3X8ik3YfYpyBZr2y39zvzIDe1iEETCdHOxeS4Rf8rtdHyL5/PmfXznZWONemnRzW4cVPruBpMT9J03PjwgmjW3KFFs4V+pu9fdkcj08xHf1X/74BiJAgWuB0lqVeuMA/ZUJIHUZEITH9V6hX6WjWAsg7A58U93YebkBIBKdPzBJoz89giq2mvR/qLNqFntZRqophKCzfhvD2PwJ0+oj65d06KyAjptKRguUxWYHZrE2O1H0XDOMtT0NAFVmqwpMpYpYGpPP2aHp1G/owtVbXUiUNHYqPHKm59C7epmtP/hVrcdJCs2FPikyZnv8sM3KPV5mbGJKjf8vfFNOk0O8i03c9k3YOqCUifSb4hlbMpyY7Kc+dIpN6GZ0X4sOZ3KGRvRJp5mzyL6tQDbWqGbFPU3b5P8rh+XCUJ7LXXPi4RXUBSgv2dBjTC38+I6LAoI4Z8ffp5T++7zSOtZeGwm9w1g7NYjqGyuRetVm1DVVEMYBkZUgVge++gdmKVdDZ7jnukdU12iLc9ei7bnb8iAvX7XyQdO4uR/PqzgaPJGGl+xxYwlMhqz49M4+KGbMfLQUdR0NmLTR69A/abOWHIzuXcAA9/dh+R4ArUb29DzJ2fHflcbQQVYrIxytrjkZinrlP3mo+vIUpGbxYmN8V6x7E24XwuSG7L1C85PFQ4bs81RJW/j7mIIOc9c5+lNRCoB6tQ/w/i/qY7h7hugm6ru+eH0S3beeJPkMDVVTrsRvTL5DdXERak9WX6NjI3TmBLMpR6EzdB39mHknl61cKj96s1oumQ1KpJJTD0ygJnBaTRftNJwDoTxxk893I+B7z6Kpl09yrGP3HJEMR96wYG3u0G/ln5R/W4aPxNsziSRODkOjwOheoVHxFSpqacFNt6yqH1/+gOMPdGHqsZabPq/l6P9Mg4+svB/EzajPzuAoZufUs/hlUNWfOA83SthZEk0OZpmsuhy4+wIMRdiKkEUQG50JrDwcqN4HswopWzMK2NTmtgE7Tex9iZcbrTjimSLI9ibMjYZ/Fqp6JT0a76pFuvmtC2WciMq4qamm2+5mdsuBtomaO7Y/MS0FIL/XvcsWB54juTTeeOpD5kHL2m4NhunPtfa5V4I7QRtJiDrbgWDvs7x8EIW3edAzY3ieYK4znVZhh2xu4/Cnk/fUzH84wMYve2IKi90vXY7are0Y/L+PvR/82H1eQ3bu9D5pjNsxl89UgVS4wntnBqrHZaK5GQCU4+fAmaSaPACBjrP38fY745i+DdPobKxBt3XnqUyF+pzwt6VsElOz+LYF+7E4K1PonFNB9a+95moWdWsHXwINsnxGaQSSaCmEpUN1cB0EoP/9SgSQ1PofPkWVC9vcNZ6e58z2z8B7x28AKKyvkZCrX5XycoN45AJSyOT8rWjyI04Tw1lBdEpnqunC1Z0nSKtlnIgdaqMjasjZWx8PGvaVpu8tKgNZ7XdJaNT1A6c5gep6X0+dErImUcFoKOM6PamIpnSXHeyi1Umbp2JAJqf1uVbinSNQeBORs+QCWpmU8J2b6z2Kss91vRb+equPt7ecM0jUu1Yu2zbkKWDhDyel+8qOnwLgc3s8BQm9w0qh123qU050vE7j2Pge4+q167f3I7ua3faSk8qhdnBKZy64XF4FaL2qzYpwiL9RYphrxAsj33kDsyO6tXRna/YgsZnLI+MZXJkCslT02rdtJqiyICN9zuGf3YAid5xVK9sVtmMysZqX8Diyk1yYBJ9/7FHlUuaz12O1qs3BX6vWu7FtImpjwXLWVRs5ixnZoIg3zpljadtZYimU9nOzyc2egrIJKqc7KLmPKB/y2hvFhE2UmfL2NCFgKcrqECvMCrLjb4sFRabjLsYuGOcH8SM9DmpZ9sxLHr/3YYD41VphEd1DPqSwbKBwH+e09yUKtBlCt1hyrdJ/UhxdzEwJ4JNvfPgjjbvvl0MYnqj0NgkpxIY+PrDSI7OoP3Fm1C7qV22f8AjNBojQqO2565H8/PW2exFFmxO/fdjGPn9MZWRWP72XWpiwf+uuvFQKyK5Og7J6H9nx2b25Dj6v74XM73j6nOWvflM1J3u8SqQeATIwfhtRzBw4371uysqK7D6E8+kEgSNmi1yudEpxKWjU+ayIb7XMHuzlLFxdNA4yOw6qExpJtu6QG2xlJsyNkE7hsysPXlNXqAYsEcn0K/RsqZUMsm5ZWW4LVMZ/U9u2KA0u+S856JIZB54uvHL8+bO64xOch0uE0e+HGUS5+kWrZ+e3oHSLP5dDy6DmYxpdACiu9F1rmJesJF0waTI/CyTe/ox8J19SCWBjhdtRuN5y8lxh/N56/dJwVv8NH1gSGUqqtd444zpWOYDm+TwNE794HHMnBhH7aomtL14s+JNUL9tMoHJQ8NqU2StN1Lp0TV75YXecfR/a5/694YzutB29UaT3XDkJgM27mx1djmIez4f2Dh7KvzzugH7TUJ3MQTpVBkbowv6hsWZJkp4MXW7T6fiykHc8wtJblSQVrD9JoWxN8XSqdLCJhhLv0/OFRsfURKlLCnitAQZXJPX/tJE8qKBTTXfGYdsBrx03Zz+Xv7Z6Cbf1NN+mp27/m/3WWzDHSeaHX7rtPP22XRDHK+g9jgddAQU9q7mtksHsp3PBZupPX2oaq1Dteco+QYpsibu09t0rEdUhGQK9Vs7FdugxqK0sPFKIcnJWRWMVLbrkUZPhk7duB+jt+q+i/YrN6HpwpWGcGr21BRSEzOoWt6kGi2jyY2twNgbxeKRG347U0mJpVNFwEaQl2XTkXzrVBkbk+iz9kxcj8I6+UWZnxOF6aRvvqn0vNviosiNz6+VLDYZbHf2WTOKAAAgAElEQVTB/FRmbGjMUTiXrJzV1LSnGvl0il9HK2TGTUdDpt0K3CTBDYDk5gN2K1h2PnkLoDRJ0HnTqZ9pF4MsEFADpSknZOBGLwA2A1/djYlHB5TIrvnEpQpLpYTKinJ6P3jvRGxsqDQUyJVvCghzw2bs10+hqrseDWcu8ygZLI0Cvw/Jzcl/ux/Th0aUDLVetAptL/aYH9PlINE/joHrH8b0iXF0vX674k7IhI3cN+D2KVB2LGSHh4ulkGX6PtzpEXZJMl1XYLlRSa256VRJYiPIkm0DQvDul1B7s4iwic2pr+us4ba4jM0CwIZv1nYnR1x7k3+5IR2Uuxh4I5fs2rdM/raVSJnPCJz6+edGF00ZpkXN3qms46C/E/sD9DNzk4v+IuR5yectkhm0N4CqMMZpu6N48n4msbFzKeE88Ef/+lakZpJKQjpfehoaz1+lHWXEvRaYSmDysVOYfGQADTu7UedlE+YJm5NfeAhTB06pksCKd54D1FRh4Pq9mD4xgZYLV6L1yo16fLICmNzdr3ZH1CxvRNtLTkNVUzURVnProRZ5j/a5/zsPo6KmGi3PWInOV2+LjI3JKtF4oxy7td+ZKwfqO8uj3NDUrDMJk02nosiNZjTNvtciXAdFg6NvfHJhYBM0DmtalxcwNll2MZh8mr48BNubImETsAeDu+TlRJRuHrdkarnbYrnXgC9QcW1xIbGhBHCI7ZbYyN0v6oItGnJz81OFwcZOMfjW1ZpwQP5BNK2ZmWynBZlrfP6kluA+MP7cslEol6AL5E5zIwXHVLoTTRe+laXc0WoURjbmcDCj5Ika3ZwJBZGglDds2Y1eQGxG/+cIRm87iqr2OrU9sdIjSRJNRdmw8Rxy31d3qyDDq++v+Mvz07D0l3gs17rvVurM45pqh8N05vCSU65Y4wocpekI789dr9kO1FSg/2t71Qd5ux0adnQhMTil/nvysUHMHB5VZEltV21EZV21cfxk9pQ8HPrfv8HAvQdUsLDhXc9C2wu8JVQsT3KKQcgTB+JsibjRMhe54SzVHLHhsodpkeEpjIg6RdGsiEWz6JSYJHLkab6woZ4elhXL6SDljOqRmbAx6WG+dZl02yLBRu5gWeDYmKRauu3WE2giSHW+TrHfx5GbMjaStVbz9ki/xn/OTW6CfL7uQeDCOV93zH6CLJz6YefNDUxynVshCeO45p4Y86Dc1CCr65QFMEs7uNne5OUZHCox8HmuzYe+q+RGt50Nc8UmOTyFsduPKZ/X8tz1gNpMqDMZlgc+d2ym9g2i7/q9SE0nUbuiET3vfhr1WJgJRGq2tJbVlBjyjM3MoWGc+tETqDutXW2UTE4kMPDtfZg8MISmM7sxdXAYiX6PDlr8pwJY/p6no7q1DhP392L8oT60PX89ata2YvR3h9XnTfYPIzExiW3XvzyYG937kqaTmvbZ68WYN7nJww6PUJ3KlVNf63BhdIq6YyLpVClik9suhjAsXU79Mjas5en2pozNQsEmfBeDseExeJx1ctzsNrS0//R38iorrlT+pIKcGpDG3oJqw019OaQPlnshhA9i+8Vd/OaGGsLBby6eKuiwrHXOboWgdw04P/Qjb8viUfWM7S/YgKZnr6O0IDcWzR2bsduOYvr4GBq2daDujG4TPpYKNok+TXzUf/3DmB2cVARIqKxEom8cdeta0fWGHUhOzKD38w/AI1aq7mnEMm/hVFc9Tn7hQf13nY3oetMZ+t1mU5jY06caGOu3d2HsjqMY/vlBNJzVjdbnb0CVR/wkgoSFKDfu8+dLp3xbVf06QqpUKnKjCdZi6iDZA8ORIi8OZGiC7U0ZGxr2SrNPpuSVL50yTeS2PBy28yOftnhB6JTTYE8KWQQ/FYYNTTEIOkpKyeupBHH1cEoJovvf9CNYhiZZJtM/RpwHanpApvS5iEZNYb7Vye5uBfks0c8brgSeQqB3MmNj9Pf8rv7zeuqBaJNzwGboxv0YufWIMsUdV29C0zNXm+vcUsLGo3Ce3DOAqccG0HDWMlVSSYxMq62TNd0NKrPgBQMeudLs1Axq17WhurkGbc/fqMouVc01QL3HGAmM33EMgz96QjVBtj9/A/pveBSTJ4fRvGk5uq/Zjpr1bXOWs+LKDTWjcqdyVJ2iFK3VKWq00XlHHTgvQJ3i0qJMfZnJCKmDRJ4UaG/K2Ojwj8TAOgCy3Z5VdtjRDX0tyY1txFVuytlPUJq2OExu9LimLqcy1X1O2JgSeHGwMdT43DtnFiTySmxbL1T5uQx+Klds4u9iyDP/t2FL8/PMM9kPSTZVq4inIf4uBrqIOJzVuh+tsBzX3lKiU99/DDXLGtB8xXo9WxyRU3+xY2Pz3joIm3lyGDOHRzB2Xy+mj4wqlsiOl2xGw9k9OitAsjf2y4M49YuDKlNVt6YJJ36+B1ODo2g9YyU2/+MLUdlWm7cdHvMlN35s4siN9o26xuvsQ1kkOpWGDXnBuLtfSh2btPFroqxXlxYazbYEccG7X3i6bN6xET08+dCpksHGN1qek58qYWw0k6IKr3hchrtjRT5OpPk84fSfp/iMmgx1WkRzuHPqn1OFkh6TrD2n6sV5mixzuMt1EMU5Lvv5boUh6rNTFj6MN97smEh/Vx2Ul7GxcsBfe1TsM8mZ/l5PfXsfRu/txcj+o6jralV7H7wGztr1rUqmEifGMfTTA6pMUd1eh8FfHcDs5DQaNnZi1QfOD5Qbr4ThLaPysgvOs1OTT7TvNa7c5BMbnnqdm05Zilo7Gsc1KdbZguqU2VORX2x41I/MCSUf4tmbMjbptpttcRmbKNhQgb3YfqqAOuVMMeg4gQ29v7QvNuJxzin0vBwdM7M42rWSj3eNUBE49XlygdM1ys5m2N0Qlwc+8vliY0P5wYzvGsDnPY/YJEcTGH+gF33f2Yuq2lpFudx2xXo0X77eNPN7DZCKZ2F8Br1eaWJoCt2vPwP1Z3Y532vi6ChOXPcgxg72onnNCvU5jeevtMRYAZ3UnKlQgUQQ1/m8YEOBqVQg8eym1G7aceaqUxHkhkItXaWjtHNMbBxOfaeVKI69sdhQ8sSsay2MvSkgNqbhU2eBTGW3jA3ReBAQZWy09km/xhfyPO6piL2LwZKZUH4gF9542Q/AyWDuSPJptJlWMJMMxDYl9w04fQ1iRTEBZtcc+zmrc983wM2Y7EQMJbNTsiDDFWt/ACepuEPBX1e2Y12LHZuZo6Po/8ZeJWjL33+eztwEYgmkZlKYPjyE8Xt6UVlThZbnbVDsjUc/fAfGD/ej/8H96DprE9rOW4eu121Xi7FsU5Z/h4c2QvmSG30LM1vL7Dot8mZRdn7ogFoUgkVEYGaqQ7DxR+Vx5Sb8PNEYC5mPu8NjfrFhWli/TkkdzGxv5gcbLotm38WQu9zkiA0no9P24gidYvrrgshNjtiQivINJLNOLR1sDNWyr3NOZx3Nf1wDakoHsu1VnqW/N8RLHNkU+nzgFINLE83p1PDO3BzOU/Ol/Wyy3k5jJ6Wo5hMb41T4y8rhXQOfP6wDfO5y4/VweHTSlU3+yQT77InjY+j93m703vQQKqYq0XbaGrRduEYtoTrxjQcw2TeEkw/vR9ualVj/Rxej85VbUVFT5abIShwbFWqKadjS1MEMclBAuSljE25vytiUsTElxBh+ysiN4kEwlxOKnEU3tXSozgVGGSs20tQdSn7HDAY6Z+QeB+IooHKDHeKyTjTzbgV7u7NjlaY9RN/+RG5Ov6Du2tVTCXnYxSACIqmE9rIYBRuRhTE7LqJg4wtFfO8athWDknOLChtMJdVmy0PX3Y7Bo0dQU1OHzm0b0bpxhRK45OQMBnY/iZbNK1BVV4flbzwTDU/zFluJ8VXqKilluTGzPzKJ4Pw5WG7sXVhKhZafue03KR2dKkVsHB2cR3uzuLAJsd052uKFj00EHZwjNhF3MVjGPfX7svF/s/kVuxJcHnjL95/zvgFiiuN5Z7O9qgj7BtTY5swsvNutog5uqDbLTrJik4Ub3fCqM84BWAa/K0dnvBtDt+I52+yKhI0tQ+WXUz8Im8TQBB79sxvR+8BjSCYT6NiyDpvf+RykxmbVeKmHwfTYMBJD00gmZrH62qej5bJ1qsFxbtiY/nCahJnfXQylJTcxsCnCLgZje+aiU3nb4ZEZm/xz6mff4WHoDai8y+ytme2HsDelig1Pt1CDe9rOoAh7KkoSG55dNbOLZOvFREXQvh03A6mHCLj5PxSb9AyCJ1DEXCBGpfgR9B2cS6qic8bEDXLCgB+CVhDb8QSKMyxTvP18mfbmSQd3aoGViId81adQtsK/R0I/asA2R75C0by4oWG2Mwo29uLPVpkWjc3o7ccwcd8JVLXVo/WFG1Dd1aDfSWAzfXAEE3sH0PSM5ajqbjBjZ6HvKg2YCIAWGjZ6BMsvB4WRG4946dAHb8b4sX5FrLTx/c9S2y29FdNjdxzTuNdX4tjn70ZVfR2at/eg/Q9OQ2pyBjWrmlHRVKsyYcWSm2Jik01uLEeCNTCF0Sm/DsolXnQrNKN76XLjZjjJ0ISe99mPHHVq/rCRZbl5wkZ1xQfY7jRujehyo0/GtcUh52UmmOVA7J9xrL2w3Y6Op9mniHITho0on9Mn+d44ql9jt8PfPTcA0/fB/ERhWOaITajPT6a8f9I1Bp6tdVoFZBtt0H4Cf51d7l83OW0x+8/ns+wbkOlwHShl4POmrk3l88lJp51XdoX5v91pDR1F0YNxVMnnJTb03SUGJ/WGwcMjKo3ddc12NJzRRTPnGsvpo2MY+M+HkeifVAuJut9yJqpa6uxu+jlgw4GI2X8SFZswbvQ8YuN0XfOoSgHlJjU2g97P3o+Z/gk0nbscHa/aqldEe78zmUJFJTB9eBT9/283EqMJVLfUoKK6UhEyNWzvQvvLT0eFR8BU4tiY8Y2y3LjtQz77ZMiVfPYszn6TWPYm0r6BOPYm+74BnaETvPsRbXcsbBw5M0nj0L04ZreCtMVLDBvtfCL6qUjYuFN/mf1UYeQm2i4G07RJd3cxuaCvzdxdbuuaxt8a0i1334AOQrQh5+152XYxOFzn3FMQeRdDGP+3pW+wM7+2Qh20i8Hbe+BR+47cehhVbXXofNU21G5u1TxXhM3MsTH0X7cXiVOTqGysRs87nqYWFjEZV6ZdDAsZGzOaRYZb2xmxF4MHt4QykQjkjI2H12zfBKq6GowNFHE4MAsM/+wABn/2BOpWtiBxakqVhDxK5/YXbUJibBKnfvAEqpvq0H3tWahur6fypOiO4dSQYtfiKNQc07+OlwxxhJ3tXYuETaZdDKWiU3mTG6GDpu5HE1LW3pgpyHnYUxHf3pSxiWg/OLmUi70pSbkhK5bR3hDHUJp98vnkHLGpSCW9a5a2bjxulT4MINIjKpcvzgek5Nm9ctqfqYr1f7stiRoCN/1ikww+OlCbxNfpG5n6p1SiQx9qztOCJLE10j9aZmpNZNTZ0Ydhk5qcxcTD/ajurkfNyma9KEhgk5yeRf91uzH8+8PouGIzOl62Rd1cFws2yumXpNzYbn+Wo4k9J3H8P+5FxVSVGoH0/lNZXYnpsXEkZqdx4sF9aGlbho6t67DsVdvReJG3cpva+0jx/O+aPpCT+fy86xTRsLqUuTaM4jDO6Kz5pzAdzE2nSlJuMmITbJ+0aSkxbHxbagNtq/OuEWxxIbChS2UhdMo0jPv91ILAhgoxYutsFD8VVadywcaMOerd8tpN+jmro/A4MxWsuUrRF6TNpo//WzI/8dVLzLhLDmr/7gbDkR/3fNguBvqc8F0M3OQTD5uZp0bRf/1eJIam0LC5HZ1q9r7aFkHMRNjSw0bKmSM3RENtnW9UbNid83dkJ2a87/Xgu36FgT0HkRidwpoX7kLX689A1apGHHrfrzG45xCGek8gNZtAY2s7Vl+xC6vedz4qO+ps86HZJaLpbGnuR9MZm3Qv03bbmltedapA2DAplGYptTwTkXQwZ50K2W9CuxWi2BuXU5/XxFs50MNZ5MBD7U1muZkPbEI59cvY6Ja6oH0DZWwKgA2Zg1TS0x5KBCud4rQ/Rc5p/N+C352/LKcOyHfx6DzwXLvJyo3uZ47j8gTtFte3NHISoq/AcC+ZXDanGN3RL6cPwYyB5YbN1P4h1YMwOzqDhm2d6Hj1NlTUV9HzFR4bexPkhsHCYpOaSaKyukqxG6osSUy5STvPY4gZ9gdkkpvZ/knVpDixtw8zx8cxNTSKyd5T2PiXz0Xt2hb1jH3X7cHgfU8iWZtCYmoaLV3LUNfdivarN6H5glWWX6iIcsPZNq5OBGIpRjQ5ANeoC7ZFKuFk1SnygoId1mb5grAP0UG6FFLQxHdXX29PVp2iYJy7z02zK1V1AuxNqNxk4MiPbG/yho273M58V7LvqYwNWW4u25E0kzsxbJ1U0Xb9VOnKja2kUrYmlk5llpuMfs3eU9SF39nJYZ6BuwOcrV2O7ba7GLgD336Udbam54CNEOcfZZep7+bENVlJ7hKU5jGsWtxIzhwFOoVHHZRmqZLWWe6I5TSfHNegZCmP9JFx5zKOTgvq8+wynTSOr2xhwx3feQ5EQrDxHOb4vb3wJhkaz+5G3ekdqnlOf1lUhywSNpwO9WOp7VMwlnGwGfrxAXg9F95UQOuVG0pCbga/9wiOXHc3ZqcSqF/dhp7Lt6N6eQNq17fh1I+eQGo2iboNrajb2oHKxiqM/u4oJvYMep2NqOqoQ92qFjUN0XTBCmpDceWGXaBZ9pUvuRFyKbVNlryE7tvlZVYlqYGNaaKtjkg50JkP208RpFO5yA3lVHTfidBBNSliWzfMnx05y6ZTc8LGNsWodzWDK+n2ptjYSB3M2d6UsTH9X/7yn7T18XUqjtwIAQ/xU/nUqWLIzSLZxWDCSmPz2AJJp2jHRrXIqPuWZWYmw2pvYebfTApLqy835yuDp34+Dm98Ke5iIBxMo0s8bA5/8BaCuwLdr96KhnN6WA/mDZtjn78Th79+t/pOu6/Yig0fuVxp7+gvD2HoFwfV8zWdtwIdLztdfaOzw9OY2t2HiqZq9H/zEfXvtWta0PP2XUxtgVRiVu2F8DgUguSGnaJfzvKz30RkB1gI/bd59sBKLouwiyGIBz7KLgYpZ3nm1DcKGgUbcwWLYD+41dY2SIXajzA5CLM3oecXKzbctxbB3pSxCbfFkbAhmxDfT2l7o4mSDIEOb0Pmq62Y6LTe0t48zACD0RrLOUCdw/6ZJIfFUN7j+bzP8oafd3ngzQVKplaczw/gjWcBNTO/HDaIOH5BYkNfaXD0Q85cxNVB3OgxsDnxybsx0zuOqpZa9LxjF6raasW+AY7AxI21CHIzsf8UDv7fX2F2fAY9LzkL3W/coTIbUweGMPi9x5CamkXLs9ag+aLVOuwnrBL9Ezjxr/eqf/cyCB0vPx3J0WmMPHgMY7ceR+v5q9Fy+XpU1lfpRgdKZWs1zqPcUD8AN7XyKLJNP3GkymlCLjDI75UaiiPrVIHlJpKcaUw5+yC/G2XrnAkq35SJvH7Tn7kxmpuwzfcU295kwiYI+5j2poyN6YFJ06lSxUbcFuP6NXPr4P4mth+R3lX4qUjnc9cpm0EQNV8eqzE2yr94Q3RZyhFHPu/4Fmp6NHsZlC5xo5ekayZ7G3Be3cDo0q9mLcSoAnccSPIk17fldl5MlpjJA+ZWcN/Pt+inlLHhko2J//KDTeLkhLqBV9ZXo3p1M/e6US8CU1z7Gd3sGE4suaGI2NJ8B8tNaiqJ6eNjSCWSamyxutPjoKgAEil45Erq77vqgVqvL8RmgDCTxOS+QcyemkBVZ4MaZx24dz+GnjiKutpGdJ+7BU27etQuh5ZLVqFqRTPFCdxX4iQxaZQ3/V11b4HFhgU8bZ7cPx1sHB9PkXBaU5OTy94Tq79+JlSfDmbTqQLJTfi7LiRsiOMgzzoVio1XP6bmS+0muHRDHC/MQ5CT3NCnOT8bIGdZbLGZAyauBhvr5sfelLHRkbLuL4pob3KVm3ztYuDOdCu0PG4mRxhZAKPsG+ConKIlkxlgmmbRDKnnJLhFS2cZfefj7WKgum0qpW6gnsBXNesJBDPh4UtZyPEx10jb6ZBFhU3QDY1ACBwZNbsm3B0epSw3p773OEbvPIYTtz+Mkf6TaO7oQuvm5ahta0V1Q60abV3zsUtMzUk7aBkQ6Xctyw31/OQRGz1Bwv9hjNMvHPo7Kb69ibeLIb9yU8ZG7v0J3xlk2nrF+L17WYkiNzJMm/t+k1KTG18GQY9q2YykbGTS6UpLW2wbA603tvl9PeJF5x12RV/R30wduFScXNywD+PUDrgWYp4n/LyhrKJ4m2ikTS+BSIGzyVG/KoWJh/ow+N+PqZtx15vOQM3y5vxjY/ITpqGBrJ7AMpi0U5R6io+N/o02xZ4mNwbLOcjNPGDjyZHiuHjgJMbuOo6pJ4cw/MQxNGxqR/2aDjRvW47hm59S35GXgVjx/meIXD9Hppx7dJtnxXwNWZUiYhOog/HkJojfXd9ho+sUJ0c5jWxDe74Ny8gzgr0xjZDC3sSVm7xiw1c6cbM3ExVSxzNhby9B0gpQJMp1luy2eLFjYzIdEsuIOrXgscnk1+Tm19yxUYG1k0Ggq7efl1mXBARPgkhl6gCdXIXpDtZzyYF83nTLss2DnKLLdJ6pSsN3N5gxGJrntrsVpJHRD87PaxgcBa+7DIKGbngcI7cdVTat5bI1aLtyY9qeCnVezuYuEWzM3Y3K3KFYlho2PrkMkpuxW4/Am8xIJpJo3LkM9Zvb1HKu+jO6VZ/F2B1HMds/haZLV6Gqu5FowP1yZuy4ZQpNkzN39DStpMfNhiZVW2CdioANFTIy7jdJtx+FwIZ7ArLbD0UmT53Fenohm30KsDdFwyaKfcomNyWCDRlH3aSbfRdDdrkpPjb6kstTL9nkRkzd8RuHyc1CwUbtYqDiJdc0nFhepOp1Ft9G+HJ3g5PtU5aOy2M8SuXueojDjc5zy/y73eyEqO9aGqL03Q3K2GbYxSDHvtSfgck9/Rj8weNqPHHZW85C9fJGykKISQYeaVgi2PCYpvnuzbIUWUCRhTHmwo4gN2aZF93AaYjYkTNRy1GK6zSm6TqGmSKgn48kN4Ib3csQDP/8SRUM1i5vQKJvUo1FNl+4Cm0v3qx3PZhXNPNymD40rHZv1G/vUlknZVpEKlyqkhmFIYfFTYihOiXlzPvhecLGwTKbTsk5fxrvjSs3Bj//bgW3uqC/DWXHSgQbkz2lTAIJqpGbAmITJmdlbES93u/XynJDRXrXdpsMgnHwGf4gkhVRjttfGOF0IT/bl7yM8DQkSLMpzPSOoaK2ymxrDPvhQj5/IT87Z2wioegLGiL+TJz31ebXJF+z/oYonz1zbBQjvzioAoSaNc0Y+c1hJEYnkUzOoOc1O9FwZjcqm2vU7/IotWePj2G6bwwnv74blVU1aDl3BTpesy3rsxQa+0JgI18qCpaler6MTWbxjPPdxjlbaJkvtc9f6NhUJJNJGtOmXQzU7ucaXXcXg74s8/n09CElZWxHNaWZI+9iYFQNqZG/IYkSVqbPgYQ9lBtdl0HUT6mbmH52OcwuG55mjoyhsq0OlU3V7r6BEsFGZ0iZuKe42OiGO62GDpd6Fmy427rQcsNUyOk7P2xNWJe/+Ilsg5hU5tRkQvfcVFRi4Pq9eOw/fglMJtGyfgU2vOOZaLpsLZBM4cRn7kHfLfswePQIGqtaUdvaiGWXbceK9z/dyBn3Z4TpVEli4+ig7JRmExxPp0LlxpChySDP2psyNv4AeBFgQ+n1KLZ4yclNLGyCdTCf9ibzLgZK25nUPDlXZSJEx7rpTyBCIVNfMF7Xz6lP3d0cxnPC1gQd1PzmOHydQtTpY0rUOeftpk1t23znJW88NdhpP6dLFHx+4t4T6P/Oo0oru167DQ1n97j9F77zsbERnPqs+i5vfOliY7C3IyJZsJFdvdSil0luShibPS//JsaP9ivJ2fBnl2LZ689CcjaJh66+DoOHj2J48AS6129EfV0Tes7T2YO2y9eh5YoN6s9WX6RccupjYWMjeUldeoFgHWQ80na/ODqbjk2UHR4lrVMOLUUYNiF7KmJgE7anIhgb6mtJs932wmj6tgwjLz27aFTWo/GihZ0aCCPb4jI26btf2E9FwCZ0T8Uc5cZuc/QieTE4zWODzD9g6CuZx1mcd7qzyelbkjLm5ScqZUnlzIeoudfc7Q0g+pO5V14HBvoGw1wI6qaomiTp7zKep1uvaGS0+QS9g2L4J09g+LdH1O/w1gGveO+5ms520WPDgQmhbWqmzCFO0LOREJ5gKWDz1AdvxvAjR1DVXovNf38lalY0A16A8IZv4MjvHsT07CROf+6laN20Ah4vxGTfEKqb6rH5K1ebvp3FqVMlKDc0TKLNhZ21sfaDbRHlEgtmb3LHxtg4M7wtUl5CBzloZx3MaovL2GgPEeSncsYmTM5y9VPFlxv2g35s5rSLQWMsU9zGfZvJR8swpaMASchopwozc6OrdLYZS9Hfop9LXUWqAbsbMu0bMJ8pPj8xOIW+Lz6AxOAkll27E3Wb2ygk8QkBj2eG7WJwsLHJa+6I1ZmkIB542SRiO2jDzhcTGz+Wsj/QMcSLEJvU+CxSs7NAVQWqGmqR6BtX677HHjyOvt88jsqqCqx45S40n7sCD/zxf2K8dwBdp2/Ats/+AapWNdsgN2dsaPHRopAbDvlz1ynntqp0n8bbFrhOhe6KiSE3aTd5ahpf6Pam1LHhPmKebCukn8ro11hW/BkdlgPRsyV9eJDcaB4Eqimru7notmXPGM7jzGMdoqvfjPqSUzS1TEo2Bew+4BEYE71w93kmXneev476+Q5vvM5CqPtDtl0MhcImJg/84sLGJ2cimjeLckzqaJ7lxuGN13IzOzKD/usfxvTBISTGp1b0gQsAACAASURBVFDdUY/Kqio0nr0MLc9cg7te8CUkZqZRV9+AbR+/GuisRVVjLRq3dHMEncMODy6bUVgWUUcKKjcB2MTVKWZtNdVI0xpk2S15wiPNPi0wuSljo/XHcF+YEnN8W7wk5CaLjjs7gISfyic2VGLg4Ru+5fOiF1HX9zX5mbYlfXWn/DP/rWxks5+tKTLTz7MRUy9MM7O6TknZCbEJjutoOhjKfp5aE3XDZMB522xnG7HU25uti3PDxi7NWeLYKIdvhryon0TImai36e+kdOUm0TuB/uv3YubEuJpwaf+DzRj+2ZOoqK1EYnIKh394NyYnxtHS3Y2KVTU4ef9+NHa2YcdHXobOZ2+2E76sU4sIG7cZOA86NQdsbHDk2qdQe+OzT/andEq65OxNNmxEc7hfp+aKDV+x4tjuotriRYaNlj1zv6CMZI5+ysEmzOcT2ZLKIFCqIArHNTf2WZZEwUMgGlNEyZ4a2SiGUAGC3MVA5SAf/7dsHMy2i8FpAONuehM7ZOCs5iwCSbv2SblzXBcLG+M8Bdc515D8eyrSm+PI2GV71zI2GbnOvTHIU79+Cq0Xr0JNdz0GfrBfCXjf/fvRvGYZxo6eREV9FZ68824MjZ5EbV0jznrFC3HaX78AtWpfheXUjyI3OmAO31cSRacWq9wsWmzCdJB2MSwkuZH2SVwTdD+Znyp/Lra76NiE+LWA/SZhtriksSnkLgaOd/z8h5xmMmkHhzEhQGA46UBFHp2QEg2LEXYxOMOASgAprZVlf4A1PtHOc6ZHfn7QvoEyNi47pxsb64htIcnNyc/fj+kjY5ipmER9czPGHu9TjYp9Rw7h4L4HUVVTja27LsKWv3whWp+13ox3BO3w0KNdwTs8WGf4dhs+bGz7XgKN8KLVKdN/RsPMfG81RQy3ySfIQeUbG9FoGLTLRduMue/wyCQ3jpzZAVyT8p83W1zGxtTnXb9miuAaoQA/VQy5qUgmU8Q8qlMY/kkBZYDEzL2OdnhsiwSbgyhVz7cOXpJrGnPPZQPTq2CBCD9Pxo5CT+6JCDqvirsccBANsmWt0w0HXkOTbZak87y6V4xWchZEfzmLFxv+jhcWNtHljKdoc5GbqNjMDs/AI1iqWdGE6WNjOP6Zu5CcTuDQnfdgqM/LINRh7Y6zUbeyFctfthOtL9ioglQuskid8nfbp+sU6SCHUGk6VVrY8NZKGzxb+6ECd/oHpkfPZG8WIzbirsPGVdsbgY1ZLZ7BFpcaNjxdRi+j+VPYRxDdqZNNEOPrKqiVDWKy12whYGO73BySadcPWr9Wqthk2cVg59iD9w3QTc841Wic1VG40Z1eBU6lyztlBI7rwvLGZ8FGRVJ2bW1UPu8yNuH7BhYKNomBSRz/x7swdqQPB35zJ5o62jA6OID25avQvnENmtf3oOXClRh/qA+1K5rR/dazkKrkOnew3Lj7UARxGffnRNg3kLtOaWuXj/0mJgMSuMMjhk6pFC6flxmXfGATh1M/39iE7RsoY8NBg8oFOePtZWwKho0qMTgRvC/ZazKVglM/4LxJUfmaEM1VPY1LnT7YXCsoN2EixRBOffUYclOkiMLE+IZtj9K3FblZUn1CGke+ZFbM/K4SEpudoCa8UsRGZGv8qfzFgY2bjgrcxRAmNwXAJpUEJu7rxfADR3D8J7uB8VnUrGlCQ08HqsYqMfLEMUwNjqK2tQkdZ21A9+u3o36HN+HgyqWrU9QoQ+loSuPRfhEW/CCdKjFs1D4UulhE2FNhKS9LHBvRIJKrTsXdU1HGRlj5nPxUcXRKN3Lakp87OWcbi0pRbipSSd2uTxX2gBXCdjqSuXFU9MZdAG6pU0d2TE5i3l0aLt8QpvndsjToO29y/ZbjQs6cmqojIy+VVRRtdeQZ8K7mfNC7xj1fxsakQ6UccNRfALmxX3cB5EbUo9N0xCc3StTMzVjLzYy3wGlsCjWdDaioqMTgDx/DyF1HMdk3rDIMKy/bieVv36V2PqQHnqwTuetUKDa2hceZhHQfQgYXwpDZgrXlO+FackF1MK19INTemIkpromyLxD2Ji/YmC+dW70tOEw4Gi43tl/CLzdm3JdH3bgEmqZTQU4ys9wsbWzsNrcgP1VK2JjLXNF0Kh2b2LsYWKQ1p77sORBWgxvMqBmQyxP6vyUdg/XeHKVoZkRudIi4b8A5L3MHNkKMs4tB/VTA7gae35U2xzTTcSZEJRIKi02sfQNRsAx417A9FWVswnd4RMXm+D/chcTgBJI1s1hxzTmoOa1dK8JsConecaC6AtVdjaiochvr/DoSLgd0Q6domHVq4cuNbFs1U1+2oXUO9ibv2PCoNN1KNBWuJV2x36wyHHmwN2Vswm1xGZtcsbE9COTu027mysFQisTs1vXvYuDxK5malxwFuhUlLWJj/m/n822NQTY36efSysQtWi7/t/h8c5sRuxvM/gD7GVwNsURQvBLaaWPWNMtpN1//u9qwwd1TUcZGl2HohuXsYli62Izf04vpp4YVY2frFetRWVeN0buOYuDGxzB+rB89f3gWul++A5X1VRTxSh0UOuLP1hVDp1gbyjrF/a9298ucsaGK72K0N3nARoe+NJMWWFYQKTzTTE902zKjnebX5lenjF+LrFPUNB9wnpNa0q9ZHx7PFtsMQsB+ApN7pEyj+mhqWaDtBy7PvNmVEMR17rIu6qY9Maoouf8jc6NTb0HaeXLp/s+nXgSedLCskb7zprE6fHfDksXGzPeWsaENHelynEHOWG4m9w2g/7q9SCWTqGisRjKRwFO/uRejJ/vR2tKFlvXLsen/PBcNO3tMas6Sb/J+kwWkU3mQG+7R0CaObuSETiZsOFVbsvYmR2z4wmS2TQgbqm0cvTn9UU/k6KuO+Gftcudsiyk7nG9bXMZGsBvH92tBfoqEwCw9lH7QLze0i4Fv+Fr13Ps+EbQYHmeRaDedzUYWKXjR0ww6y5aPfQNul2oxOa4tGjGxCZgwNonfJYmNTAmLW4AQHZ70WApyM/nYIPq/tgep6SS8NqCB+x/H4Uf24Mm+h7GuZyvOfumLsOx1Z6Lx3OW2RyCv+wZKQ6eYn0QWHvVrak8jW5yc26MjN/nexTCP2FCHrchZpm9JnEdsZIbZ7APgWM2MYOZnL07a7pco2AjWXbdAF7QzKL9ysxCx0fn0cGzsLgZC06+QWilJYSX3esh5XwI/TcPTFZ6TK6LBTHyzQee5HchSN1trEXzevkHy1BTGH+hFanoWzReuRkVzjRlDjvKuNkHD95LFg43Y4sxZqjI2ATJv5cQvd0JThCDKwhj/RHJmFpMP9cEbiayoqcRjX/oVHrzhJ5hNzaKlpQvnvuKlaL9oA6o7G9B80UpUttbxk9jOtjzq4Fx0ai5ykwuWruEPsB9CSefb3pSxiaYjceUg7vlIclCWG2P3NRTeRT+Z5FyxyUc5+wOYPtnhjZfhu5eucnc3yPEbh1Pft1uBv2S+KmTjOuffapq1Yu1i0M84dMN+jNx5DEim0H71ZjQ9c5XlKTFU0XPhuJ4bNv7dDcXExr8HQ2Vq6HUsE1vhsOFGMZVfCNjJsRixOfXtRzB1cBjT05PY/63/wYnjT2B0ehjdHWuwcvs2rNq5HfVbOrHsrTspoxwPmzAs5f4UvpnH3zdA8uH7rhaK3BQWG86CMBUQNSKWik7R3om52O7c5aaMDXM5CG+hWX7CdgbNk9zoDALFDaGc2IZNkWIIrrHyfCd17dtpRJ1z4p5Gnu+019LsuxhCeeOZfY5CQj0FpD27nR2gcTMaEWLOA+9Hhv77UYz+/rh6lJZL16Dtqk1MA0H+MebuhkWETVY5yLSnIsvuBmVMFrDcFAKbid39aumTJ5c13Q2o7K7GPZ/+DsaODGAqMY6mtk5sOe9iLL9yB7reeAaV6/w6yCm+AuqU2PmRdV9J3B0eeZAb1ZswX/YmAja2ydlmmOzdJqa9EToYRaeWKjY6ayd4SslHqL8XzYpLUW5iYZNKJe2aqLTBRTsXKWjL+E5J/22JYG09gZphuHudxwXUl8MZBzdRaGeSufDovoatWotnEnV+ucGB0yNm2sEw5wDTh0cxdvsxtXnP6x73GsS4zyDovK2cs3KbWQzL5OQw89i8iDsEKrpkjYC67xobm7SxqblhYyYNzPoU8a4OX7E/ab5wsZEFtExyUwhspp8cRu/nH1B6VLumBcvefg76fvwwHv3oT3HyySewbMtp6FqzDpv/4XmaJ0HKjUwGOjqVXc4khS0HPla/ZX+IcGiizKgwEzqVV2zS5Mw2MmuDE8HelBA2VoP4+jUHnSpjI3xPsBzMyU/lW27MjItfp2ToYvU1SAdd0nTORtF/B+igtWeZ5CyGTvl3MaibP2cU6FbucKObkoNpV7Vp6Ey7GJjNMCfeeDJUAh/LkS8Vj8ctbHqBORWSA5Po/dJDqKiuUOt56za16Tlz5v9WJOHp/N96AjPiLoYSxyaMG91mdnh0k0x+GRu6rtPYq8ha5UNuPI8/9XA/Ev2TaNi5DJVttcBsEomxGRz50O9QVV0NVFVhzScuBior05YPGea1AutUQeVG7BsI3MUQqlN88w7ZO1EkexO+b4DJ8+LpFDNk6p0FWfZULAJsvB4NyxIuDXz0XQylIzdkLogCnMcMdUDu+qlIeypKAJsi72LQt+v4nPp6LMfZreBnPzRZCl0j9/PGn/r+Yxi745guLTxzNdqu2qxblcV4pzfCaTunbYbDYZBUxljywPMaXnMXC0xhZd/FMH/YcGnGpCPVRS3/2OiUqOU+sDwX2XZ4LD1sZg6PYeboKPp//Dj6bnkEVQ21WP/nF6Ptys0+YqC5YcN3Gd3wa7lLbAMwNw+n61SpyE34noqFiE28XQzZdGppYMOy69riQGwi7fBYTHIzR2zkLgbRNKCsuFMZoNGa9A1jlPWx7J7iJq7na02iUhItMfkQ/RJTC+Lstc4mmv+YMShzXjMW6gYC+k+G88O/PATv/3sd4+0v3ICmC1ebioIOCsQssOpzcCP4nLERtS9elmMiyhLBJu1d9fXFVIxKHxt3Jj6fclMMbJJD00iOzqBmVZPhFfEiqZljYzj0iVswcPcTSsCXnb8NK649G4mBCUwfn0BVUw2aL1qFqrY6zvlpqXV0amFjE2hv0nTK3tbj2RuNjelwz6O9KaTcaDr7iPbJrAGIa4vL2FCYEKpTRZUbU1zJ4qfSbDeN7NKlL67chO9i4Ny8f7eC+UXUFCjq4BxRxOO4DtpdQF5fkHfwZIQlRPHvbsjCG59MYebAMGaHJlG/q4caEtkRujcnTrk7LRSSKnWhYmNeTGQ7tBYYskMTzPH3GmHfQBpvPJdrQncxuLSzc5WbUE592zVr+D/UmxvNDpEzOhJJDgRHfqTzfmySwMlP34uZ3jE0bO9C5zXbbc41lcKJf7kHx3/6ILyxyNbTVmFi4BQGnjiMDc9+Biprq9H5qm1o3NXja5WJsLthIWBj5FJ0GNl8tOmDyNXeLGi5yYRNmH0i4Q/fN1BAufHHqZyYCt3hoZ8lJ52aL2xEaT+rn5K2WGAj7VPRbXGA3Ph2MdiLo3uBp0cVKQU5M2CoL333fW2DuGFRd1mn72LQRjo6z7w8TxOaVJ3lyQlj//lLMJ+ffp5lUBQUtMiqXyPPL0xs+DsvLDZ2/iW63KST4FAeh0o0hZebUsBm7LajGLzhcSX/VQ1VWPk3F8nkjZLgyQdPonpFE578yM3ov/NxDA+cRMu6FVh7wTnoePVWNO7stvSzaTIfVwctO6l+ED2NVBidyl1u/HKWm/0oFWzi7WIw9olIgawtTqPI8JWjFqJOLVZs/DuJMvu1YD9VeGxMBkHXn0XanqNNouZU/07rWTmycdIV8rxvt4Jtz7BpMckTrdec+uqf7gYEW6Zg9kZxXisMNRKaFktiyeKUi6/zWjsHTsfStVJ9R3S7NrvmKdG0QLHRhnPxYWO/v9zlJhs2VkZZGDiVnT+5mR1LoPfT92J2aArtV25E02VrbHOaT6eOfv4OPPKvN6kQYM1zzsG6d1yCmrUtqGqutYMFpMdatksLGzfyycHehOkg2RvTrKbJhJ00vG0YY70vVWzIUcS1N2VsLAew30+VsckZm8y7GAL4vKPxf+tgQrvbfPB/Z+ag5ibC0N0KEfi8dXLE5ojUZ2Xi1C9jY8s0jG8Gjvyy3FCTbc5yA4zdegRPfe525fi6L9mMZX+6SwfG3n8qddNIZk59ubthMelU5t0vnKcuY5OrLS7LDctQJr+mNTBAB81EDWWhpW+M6XeK56eogieJkjjVLxkKbMnWpkDs7DRtPzSlBQNj9l0M4mficPDrm6OuTukqQPquBxWYcI3Ld14ZCW7yUfPj7lu7n29HPhcUNj5udJ11Fkq+FLHhQtaCxQaYvL8X/d98RJUTWi9ciZYr1uHUTQcwfXwUrZetQ213E6qXN9KbRt+HYjS7KNhQFtF0F/utjctMYcuXelyQs5jS5JharZqSCdn9kqu9KZTcUC+F356xfdKPW8ZG2voyNhR8yMZTMxxgs5z5lBu9rImFlaIBS3nMNS3LSGXaELh/RGWvdbqOk3raQfOQLmmmSZcKhkWbBLTzb3Qh0rrhY0hzPopKHqLPjLkRDIMjK7dldtA3LFlTFcVVUQWyhCxlbAhFDpG04TKRshgksSntstw4OiX1wTRAxtcpTCYU0ZeHfe3KZgzdcRCPfuxnqEnVoaqzDt27NqNuVRs6Xn66nmzIQQd1uY8CfeY1kSyFedYpreZm9pXChvjYFMbemCKqHZ3Oap9kSCMMOrv7GPZmqWEjxCBADoKwXCpyE+QHpY4UDpt52cUg+b/5VqA76W1dUNsNusGzxaIAwTQkBZ03baD2ysC1Zj2VYHIPxMdgemWFPS3cvoFseyoKio1JrfixCca+2Jz6cbDhHoS8yU2JY+PfU+EtG3vkLd/Do7/8H9TVN6G+tQXrL30Galsa0X3NGajd3sUptsC9FrnuYmDJyaSDxZabWDs8qPeI0o9lbOawR8dcGfJku8tyU4K7GBQPgrkjsvMkSiJJaiNWQtqUXvB50R6kP1nVYGzKQdf3xcg3NRC6uxuiPQvlGWgqWCQbA56dg/eM3OjOclVrDiUxgC5tCMKfEsdGUkmHPXtJYiN784n8KrLc+DnyA75XMdRliISDvtdSwIYnPDjpPLX/FB7/q5vwxO13YHx0CKdfcDGWbd+Mmp4mdL9xB6qWNwTsQyGdKgFsomJPqmY3Wdp25Qw6KOaqhNzw/UDpf9ruhjI22iyXEDa+vRNs66PYsznLDdkLroQtWWzsLgbpNgWPM9fshUN3eNj9PPBp54P3DehENf1fVV6k8SpB9KKjCy4J2Ju+Jjdxz/PN2z55+jtwxGuaSfy87sxtncZxvRSx4VowG07JHyrzrKWLje0v4dRTvuSmNLA59NGbcfSHD2B6cgLrXnoelr9sJyb29aKqsx7N561FZUsNJWUseRLrVCxszKhjFJ0qDWxkncSzDXHsTRmbcFscBxvXdvvsSNoenexy45+Gc4LMgvkpMUSaxU8VAxtb2g3auxPDFtsuPt9+JPu5quTj38WQlf+bHHtsHvgicaNn48jXFML6JXQ1ggSXCW98xE/OLoZs3OjFwsbBkrImNuFCkyPp/N/zig23pMSVgzmdj46Ny40exANvFceRGyY+yig3Vs6y8cZreePmWI6PLVEQt+d6JyYeH8CBD/0CU8dG0LlrI6ZGR3DwN/difOIU2rqX47SXPxNdLz4D9Wd2qQyeq7MWG8uHz+9tTbESK6IX10pTKtjkeRdDiE7lio3GTVCWcyqf7U2o3OhJA799iic3pYeNCtJIR3LFJsx2Z8PG8HlQpjx9HFYbTxUKzMneUC4+5i4GRyRylJtCYWN2MfiYUGSRmpr6fHRIotnGHtapd3cygFvmA5tynfltH79vUDOmKIbYxK/bdeg8DYuEzVYYPoT0c4yB5fDiskj4s+uYoYxNGprmay9jkw9sXDnT4HrcCQPfeBhTB4cxOzmDE/c9ggN778WJ0cNob+jC9h0XY9ObL1NkSpWNNUHMVObRgsqGoTbB0u9wSCw27vje1pEDe4/Pp70JwibT5xt+C0nMEGbPDPFmseyNj2VUwpmDTi0IbIRY+ASSE/0x5UxMf2TwU2VsIvg1ZxcDh63UTsoBMNdzzEYqpynFdiGb8+aWEZf/mwIMfm7ne9bftMszLzlx3Zc1Tpsein7aNG6ZEN28a1SOa57YsBzXKoHJ27rmio2qu2mNCXpXI+9lbMxt1mPnzMSpvzjkJmDfQCqF6YPDmHyoD1Vd9Tj5q8fwwJe/j93Hfo+Omk5s3XIeznnfK9H5yi1AnbfWPF1H4sqZyTAG7QNIsx/F0qksuxhCdErpbIZdDGVswvdULChswvxatj0VJSU3WncdnoVIOpjFT2XBhpgUA7jO01jYDCEf8QjkfxeDy43OaVlh1PzJCOMtqSbOad60sSlqKrQtD7rpKe28j4ucHL8hhM31PEdY/r0WPMrJwYA04CawoZYc0RRpejPSzotLYoGw4RSOdjalKDdy7pLuI0WSm/nGZrZ/Eg9e+008+ptbVAftqi3bsPqcnahtaUDb5evRcsX6dC7eJYKNTT36dNxMPS1duSk6NpKnhtuDQ2zrfOvUUsemQjcpCgpZSh9qOhNbr3caE83FXfaTmjyDtsrK8IjCuBh3tr5LUwDL8zJdL8e4g5+Fms6Y50BQL4Sdl3lWw8VvhJQzWZJ0YiFgw+ByUycnjMVMdt6xoVZP+p658bP05GaxYcNJWK04ro4A/d/ZjYc/9VMkk7PoOH0dOlavUeeqexqx4r1PTzvPNNxWvwutU/mRGx0b08XA2JvM2Jh3FfYp3N4sILlxdFBjUDRsRJlmrrabfQHbbt13KDnvBT13VD9VIGz8fsTZV8LUvosAm/i7GMzFO5xLnXng58KNHrg/gG79WmYozKBbbKZ9Azplz+yK2qjYH7fESYpamVIutlyirYk2xC7DkpYDMnhEMMP1zbDz+cDG4ZmXNVJiS4yLjb1ElbHR3zsFWKaRlYVn/uRGy15Q8xnJIOllamwaJz59L1BdobIGwzcdQmJwEo3n9KDzNVslNZkdGFzgchMVG6Z9j7enQjOQRtIpaZ9MEJJdp8LsUz7sTRmbDLY7ok755SbUr+Vqix258U0nGDeX7qeKITdz28XAzlmmiSgdwJzVuguR7pWibq66RvkNDZc/9WhTYiHrbgVeCGoqDDw4mYVnfiqJsd8fQ2pyFo0XrUJVUzUXeEwkYciVlP+3QYCJzs2zWx54Z9/AAsWGL2USe9MESlHWnLEJ3d1gd3iUotzMLzZCziLo1MRDJ3Hsc/fg1KEjaNuxGt2XbUHLc9aiwmtWJH3VwZBN4envnMaJY+pUVmwi7EMxO7lFdTHaDo942KiAX7xr5F0uJYMN14X0lyQvKRntUwS5WZDYmOkyTw7mExtfj4BPzoJ0JFAHzQ4gSq6L3Q2OLY6iU3PEpsLsYiC+JOsYbAOg6frlm4a5gmtudC2U8ryggTTkiL5bmUgLOlMDXH/w3+LovJw1Vfd9vuorXaFonzONzkQFDbKkgJHfPoWhnxxAajaJyhV1aNzQhcady1B3eoedwMj2ruJ5uJ/BTLplxLK0sTHjMpmwlNiQ0XHkoEDYOHJmpkfob4sgN/OLDaeNeW26TYOZm4TQqZNffBAHr78Vp44fRVV9HTY/72J0vWobms5baVpvKJYXU0dWRyK9Kw+HRdXBALnRFO1iYElkKHl/iLYtdBMPtDfxsCm2vYmEpdlSS9kqSo2XsdE7RQwFuBlTL7LcqKDV2m4jtAX0U6UgNxl3MdjdCrz4xeXgZ73172IwCs0peWHZzUy12N0QdN6m6v27Gzilqrv9+QYUfF5bTLtySWctBr71CMbv78XkySFMDgyjfeta1K5tRefrt6OqvTbtvKA/CNg7EYyNMmcBeyrygQ1HY3oxDUWZFJ7qLvPcseF3tT0cVOsmb+LHsowN9/2Fc/AHyYHOoOk+nbS9FnmQm4m7j2P3n38XI6f60NjcjpXPPAs91+xE47nLaKFRaciN1Ids9map6VQZm2x7Lfw7gAqrU1ltd862WGaCRBbCVLS5FzCaLXae09zb42Gjk8XezySTmjbL5j9EpCSaoCjNrimTuTlIv0HY/gBlBOXuA7rxO+c5qZknPm/tMPn52Ai6HNezQ5M49cMnMHViBDOHR1FVW4P60zvUvHhVc41OJKp+BNloqfOe8tlNg1hEbOT+gHnBRn/rnF8xLl86MCkH8qxthisRbCRdsHoBK5c57fDIGzZ0m82jTnE/i75ER9Apwmbm4DD6f7QPs9MJtJ+/Ds0Xrcptv0nJYBOmgzqrEgebIJlf2HJTxoZJxvxyoA1dkO0uy002bAxRkjZCVAYgb8DlHO7YlB3TbJO1XmoDLaqZPANh+jg5iWBCC5E7c4mG/P9L+zP5LPpHg39b+uf7aYx4M1YKybEEJh48qYhmmp+5BrWrm6k31rcrIgs2ZnENT0qJiYGFio1ycwFyIN/VfvXhchOGjf7ZUpcbn5yZVcLFx8boIA/aUJgnw3UTJxkp9usIB8z50Kn5wMYnZybUpb8vY5OmU4G224dTuNzIXn1xLTS221L72nyUpSYOtsUZbHfB7E0WuZH2uowNaRV52bRdDFl3K1AHEZM0BJ1nA6UcZhAPPKdUbDdS2G6FuLsYovF/y2QmD+bxyky3i1RXR23To84gkFmmERxBu0DcChnOl7HR5buy3Mgtx9nlRiVuMnHkZ9cprmke/bvbcfym3VjzR89AzzXnAJV0wwrZb1JQnQrZhxJLp3LBZjah91RUVtHkErkzaiSyfQrFxSbXfQOhOpULNnnaixNmuzkz6b4rByOy5DbHfQNsn8PsTRmbcFvM2HCTIhsfTjlwNytPRctYUrlH7rR0uiR16iAv+QAAIABJREFUetXH5J4HjmuKABXzGTWsGBJODme5+5qct2+3gn5mbgDiPQUcoIjxMdNpSLcs510Dzku6Vo4+lxQ2nHlaoNiYjuE8yo3ZO1E62KRGZoDaSswcGMLeP/lvJKamVVBy5udegYan9aTprO6W5uoj5yksybzktSGlJDbRLDo1Z2yC5UzaqWyc+hN79mDgi19U2tr1x29B/c6zQ/ZUyM0XHDKQvSkYNjbDGd8Wzx2b7LabbXGwrQ+TG3WxEk2qsW0xZXF135UI5qiTP7ufKgY2lEdRE4npfrAY2JiV2WLybi7YOFMMer7TpiFNOZ//QE1VWnDJqYpSARW1KXAUJEsURLicFzavw9kDBpBW0BnuFjOHTB15bnBiqY9lGUPNLcvzSj4s+6OMA0yCUt4eTCAi3rWMDTXUMZZLABuTBZOGUeqIZeTUzYaFwcaMCRl94/4fUX4TNUCpU6O/O4Lxe0+gurMeLc9Zh33v/gFGD/RjYmQIG19xEbpfuBVNF6xBhZdJoMCApwsy6lQcbKinx9gY3ypfkbW2I1ER7U0wNj77JLB56p3vwMgvfqnuPMve+mYse99fUC9VAJZplyGfvTGXXJ+9yRkbbTcz2WKWM9uhHG6L42LjduoLG+3wFaW/a6DclCA24XJmZd9OTNjyudtrRxzN1IQf6NfyKDeODhJnglZTCmCNX8tRbjL4Nd2DoBsJtHHgqzaPH3GwRo0AOjq3Y0WB53PkuOa+LmkDucxoql2UBTAd/L44RJ7PnTeeOklli/6ixoYCw1A5kJz6pYeN+moyyIEqIuUsNwsbm+TwJE5+6SHM9E2qW82K9z9DBXmHPvlbjN57FMf27UPrsh5sedcV6HrNTtPrGaaDrk7FwUbUq+fZ3vR/4XM4+cWvAMkkVn34Q2h5yUupIdk0NXBRsUhyUzrYyG2dpaFTpYhNIXd4lJZOhe9iEA1ApurOzMhBHPxh52UawnStWEUUoYmoybr1QPe0mFEI2k/AKRDxQ2yP9FSCLUmk72KwhRQmTwncN1DGhgyqTaO5w/X6W50fuZFsl+lyxlkuZ9rFV1ayQaaOmxeU3HAGnMpdyYkEBr6+F5P7T6Gyvho9/+tpKpMw/MuD2PvRG9H/+JNobu/C6mftxObPXq3fV04CFR2bOepgJnsjsBm/5beYHR5G82WXobLZa05eCHJTHGzEHdFeHP2ZYnHrjK1TDqut7OcSN3b7my1Ddka/kx9sTM8cX9uFgzKew9GRPMtNiWFDUww+jmvTXS53MTCbCc1iig50nfLntIFoAzXYUde3d5NLm+20tSEzE06FDjk1kbZbgSxZNv5vw5XAExrMJuZlSEzkYPdO+M8rR8c0y5Q20hMbnAqUExZlbMrY2AC0VOTGo1pOjs6goroC1cua1H/Pjk6j778ewpNfuw0Nja3Y8N5nofVZ6ywvQwYdzKpTpGuROfV99sZJ2Zrn4PFOMf2SSiE5MoLef/5npJKz6P6jN6N64wbT86QyR6IRzZLbcL+JbYyjqumc7VMpYaMct2gf0ZLps8XSdquzpYuNyiXkYIv1qL0rN35sdLxTxkZTilu5MRkEqyAyIiLnyJ38EfcNZOX/NtEhreklrnOH45rJfthA6K+P5lkjcqMLliubPNAA0D/RMhDKSgTuYrDni82Nbpjk/Bz884iNYe2jlH1e5UbKmdPkw+RYvICzNOUmDBvN/c8Bdo46RdgMTp3CB377Adx27Db8zfn/By/d8nJUVVbbGrpPR7Lp1Mxjg4pRtHZrFy340fUa5gLRlTUysESeojSRMnWGyTSLThUKm95PfBx9/+96pdMdr34FVn74b0XDZYHkZjaJ5PgYKmprUVlXzxdoZ4dHHHtTKGx0FpSmsOhS45+SsCVtLZeBu2JK0N7kU6fi7gzKplOx/ZTQ2VC5ETrIO4OKITeaSVFkYgURMFs0CrO5lY9P6B+SXFcmTUd52fSKgqTHFPk+kQ2QmR3b6SDyW8Yx2d5MmxLWb+KQcM7zeWFaOQqxMFmEfU8dFxtCLe1d+fqgv6cyNlKGSxEbMuauS3YG0O/rvR/X/PQa9V1u7diKTz/7X7GqZY0xH56R33PyIdx14m48Y8UzsGPZmeZCYG5JAEamhnHg1H6cvXxXgH7PDZuJe+7G2O13orKpEW1XXoXqnh6TZnPGB8l+RJPLYGwGvvJlHP+nf1bv0Pq8y7H6M582jdauJQjXKSQSmLz/AYzdcy+aL70E9du3k0nhy5KVG+/3DH//+xj++c9Ru2o1uv/XO1HV1hrZVkZ7V2tbo53PLjf5tcULyd4UExvtEV0/KLej2m+BJYoKmFl9bDQ5yL/cFHYXgySJ99/mGUuV1Zorx7W9vjglU7mLwWysE7846r4BSrvkdU9FGRvruEzLiRxVNTOjOnjiG+t8yg13bc2L3Gh39/jA43jbL67F408+geaZBnztLV/H01Y+w2A5nZjGW296M+7rfxDrW9bhK8/7Csamx3D/8bvR3dSDC1ZdjBNjJ/DuG96Fg1OH8M4L347Xn/lG46pv2deHv/3xXnzkxTtwweYug725RKSAH95/BInZJJ65pQddrXXOPhQv5X/k/R/AyM2/QbKiAq2XXIREbx9Wfuiv0fC0p9tWFZPKFOG803okskTqO6dMnm8Xw2x/P4Zu+D4SJ3vR+da3obqzS9ncoW9/U2HS+so/BCorTTO/+iifvUn0n8RT174NE3sfQePZO7H23z6Lqu5uk5Xh8FpJZ2IW+847H8mxMVQ21GPdFz+PxvMvYMuc+16LIPsk91TkgI1+V5t5NUIy37aYL5Z8oVHvlmGPThGwoeSJSS3Pm70pMWwy7mLgRjOlIBZBljolb2aiIctuBdZQO8fKS4s5DWhWOPJFRze6Rdk34PQ18I5e/fRa9AQltBll5GkqMbKj3yjSLoZs2KjfnAunvuyVMM8+H9jE4//2U9eaCfIAuckPNtztmwkbcfMTWNo6Mcf7dlRRf23Z5CYeNnps29JBW2zsPumpxDT+/o6P4eYj/4PXbnst3rrzWtMPYJL8VKv/7oPfxl/c+EEkpmewrnEtPvuH/4YnJh7Hlu6tOK3zdFz41fPxxO5DqEvV4Stv+wK+tv967DmyB8PHh9GysgUndh/HxMg0KusqccnFF+JzL/4ctnRuxR2P9+Ft37gXw+MzuPj0bnz6Nbtwanwa04kkVrbVo62xFt++6xA+dMNuTCZSePXT1+LDL9mBuqoqpUyJvj48+brXoW/3HjQ1NGJ6ZhqVlZWoq61Dy7Mvw+p/+HtUtLY6Zb0o2BjCncQMZoeGUdXQgIrGRswODqCyoxOpsTGM/frXmHzkYbReeRXG77oTxz7xj0qbu17zKiz/0N+EYKk96PRTh7D/qhchNT2NmpUrsO5zn0XdGTt8ckD7TWZTOPiGazB2972oWdaNtZ/9NOrP2UWWo7hyU4gdHrrHMz86FW67KUhzbHF+dSo2NuLyb/yOk9nOr71ZKNgYqmWbGhFzvqJbU76QyHkammVrA7l+aWgIfKRK/s9PP28/34TApr/IOGbr1ymto+MKTitae0yrXSnzwyl/3a0a8q4UUPAipEWDDUXi+cYmI5YiwIsrN7mfz0Fu5hmb3x+5A2/+5R+bm+juN+0208eWAl3r1I8euQF/9Ok/Rv/t/UglU2jorkfjuc3YtuM0fPLyT+KGB27EZ37+eeWcX/zsq3Dw1CHcc+s9mHpqEq1bWjE1PoOZ0QQqGyvx5ivfgI+/8ONoq+/ELftO4k++cQ/Gp2dxwcZO/Omlm/DB7z+E0ckEXnrOanz4pWfh67c/iY/+eC+mEim89JxV+LtX7ER9TZXSwUNvfgtGb70dU1NTqNu8AU1bt2H0d7eiYmoazZdchNX/+I+o6uwkPaX24jAd9MtNKoWRn/wUg9/5LmpWr0LDOWdj5Kafo+H8C1Dd0Y5jH/kYUlNTaH/R1ajfehqO/9O/qN/TcuklWPvlLztY+unCvWxA/1e+jMk9e9G4axc63vgGVDQ22bKNzx5M3HMPxh98CHUb1qH5Wc/RGWUT/wXbG3nIiReZ8M1nz/KjUyROgbbSPnQm2+3aYt2jYAu+EW13rthQ75WdrOHwPYPtjmxvytiYm3igDpJMKx4EM11CNy4xoWAsFvMfOPsGZDNTwHYEJRiuEPEvU6cpbyknETgAYDE0VRsjlWIu1sTt2fm/vZsCj285WQx+V+fzI+xi4HiE1EVOXGiBLiQ29ltRIVEZG7r3u0RfCwmbqdkpnHv9ueqL3dGxDd960Xed/SYm15EC/v73n8A/f+tT6Pv+SS19lUDlRo/lqBKvveqVuPySK/CX3/4r9I8O4R1XvB1nrN2Cd337faiYTmJyagYrti5HRVUFrj33zXjHBe/GT3rH8ZGDJ/Cvp61B/8ERPNk3iuedtQoHekfwru88oC7wVZUV2P+xK3Gwfww/vO8IHjk+jPc8fxs29jRr1jhvS+q/fRonPvN59Q4bvvJF1G4+DU+9452YeuQRtL/oKnS9+z2oWb5cay3piOkcFyRtUw/vxZEP/iXqN23Aqk/9i3rH1PQMjr3vvRi66RdIplKYmJlBU20tqru70Hb5czD4/RuRnJpC67MvxYpP/B16P/K3SI6PY+U/fRKVTZ6zT7c3Nr9UAczMIDUzoxoPUV09Z51yrGHWHR46oM1on3K0N1JuzHJdy39ES+kyY8PlpXzZ4jI22rtltU8lIDcV0XYxSB54WrE8h10Mukua4wNK/0figefLh93MxXOrpq4o2RB5xsfMTXEBwf5+u1kh110MMbHJwv/tbFukQhiz4mV+1zI2msVQ9DEo0RJNtWKjWynJDUfy+/ofwYFTj+P8VRehrb4dg5MDGB8fQzKZxGDqFGora3FG9xm4+eCv8ZEffxS33ngbEscTSFYkVdq+Ynkl6jc24JwdO/Dgow8jOTuLq579fHzoWR/GD/ffgPv6HsDOpjPRO3sSvzpyM85o34b3XPJ5vHXvcZxIzOLMpnp8dccGrG+qV2L41OA4/vTr92ByNonXnLsWr794PfYcGcLETBLnrGlHU72XOXB1avRHP0LNypWof9q5OPr+9+Pwt76Nvr5erFq5BiuueS26//TPcOqb30Si7yQ6/vgtqNu4WTJmKEd5/H9/AAPfv1F99pp/+nu0vujFSCVmcOLjH8fgt/8Llc1NmJ6eRtX4BOpP24wVf/2XmLj/fow/uBtdb30LGneda7eWCt33opKJBx9CcnwC1V0dqNuyxeyKmRe5yWqffA1u9C4mW6FdjPoGxu+5B0fe9R7F7bDqEx9D65VXmlJwph0eJWVvKEgSDCpmR4lfzvSV0Fpvpt0Nwka3OrDPcHkXythkwcbNIFAKx/uimOOa0zy+eQW+JWsLQYl7Ma6oedxtB2nwect1bmv/MuPAXYaUtiNjz6M6rByG3EJ7CH2bZK4Cp6tAvp++eusVr5nOi/Qh90QUG5swLMW7Oo1UQnFsOrX0sOH1utrucWo2ptyEyplOoerG0nhyxvG97UbJn9zceexO/PTJn6KjphO7us/GpRufRU6W2xT03eLfH/gKbrrr53jq4aeQqkxifN0kuns68S/P+hfsXH429p14FB/44V/gF3f8Gs2djRg+MIJkQwqVDRVYtnkZBg6dQmJyCqtXr8auXefgdWe8DpeuuQztDe04+2vnmPvoe87/FL4wsApPTs3g/JZG/PtZG9FTV01jjsDJkQmMTyWxpqMB37/vCD78wz0YnUrgjRdvxIdfvIOjUmeNtPpek7N47DnPwaknDuDYiV4c7unB2W94A7Zv3oDj//BJ9XNNF1+I9V/9d1cHUymc/NSncPJLX1aXXy8T0fDMS9WfE8ePYfyuu1Dd1QUkU5g+cRz1Gzeg/tynCy332Q9hn5IzU3jskktVH0P9ltOw/rrrUNXZYd6VSznzKzey78pnn8JscTKF/i9/Cb3/rMsqnW96I5b/7w9anQqzB47tFjpSAJ2SOmin5vj9KA0a1XbrRok0ubG6bmfHpN9xbH0aluFyo/dIaBrjcL9mqc/j2puSxoaXNfl3K4isNXfzKSVN41K3qQBtLFSvCS95IftBwIZyXPN5UcyTKRh2IM5uBcl1TnUxG08TT0LQLoaAbmgdYdomBZfjWudD5bMvWGzCuNFVjEd1PfpzGpaUoi0oNub2n7vckAiK/UEZOPKl3OQZm4dO3If3/fb9eOc5f46rT3+JeqHjY8fxF795L+4/+SD2334Aq7atwNVnvRCfuvwz1MNr5WzHv+/AoZsPYezIKJAAWre1oaGjHv/2us/iZWe/XJUfnhx8Au/9n/fhwUMP4NjdJ1DbWIvXveSVWNu5GV/b8zUkZhIYHRhHx4o2rGlZhf94wXVY3rQCr//hq/HAwG6cv+xcfOkFX8W79h3BdQ88hn84bzvetmmV25sjbPcnbtyLL916QNmDM1a14ifvuETJzaPHhnHt1+7Gpq4m/NWLduC05c2q76jPc/Rf/DLeW92Fx1aegcptF+PeK3tw6N3vUXjUbd2KzTf+wARIZPdV8+HoTT9F7foNqL/gQlRUVkbWQfVhIfbGa0J8eKcOjqraW7Hpv76LmjVr7c4W8a5pu1zC7I1Pbr575yG84ry1+l6fk05l38VARtaxxaO3/BZH/uL9SI5NYOVffRDtr3mtaZ3i85mwMftvAm23vcjHssWRdjGQ47XcPOG2WNhuWfZguTGjKhn8VJjt1j9rLxWWcFfso8iCjf7S52hvnB0e849NtF0M3HfAkajbZeM0KjKwlojIVMFk1yKNis6BI59rdhxJsEezdxozvUA9Rur7S5ycwPhdx1GzrgX1p/9/9q46Tq7q+n/X3Tcbd08IEoMggVAcirR4KFJaghUp2l+LFygEh5bi0CLFnVLcAyECJMQ9G9nNbrLuO/v7zLv33Hvum/dm3szOrCTbP1rK3p2d933H7pHvyUNcsujAFkECOSbdCaG6m6iGyRo61LNKE6d46nlXjdN5ikUUUSXrIpIdxDwrEvbeCYaNUggdtuvUnHxodVOm96qeVY/0dk1sOOEVs4fBnjXG2Gyp2Yx5W+bj8XmPYXXjGvROK8L9M+7Dbr0moKKxAld9ehU+XPoxSpaVoM+Y3sgqzMJPZ/4ke8F0kLr/v/fDT58sRs3KKsRlJiCuoQ2+VGDklOF45vxnsHe/aVbm65VlL2LW4xejpqQaecPy0H9YPzxz1NP4oXQBPlnzCV7+8A34h/zOOPp0/P3why1Zb2xpxOaaYgzKGYLVtU04e9FarGpoxIT0NDyx2xAMSU/VJUCGZWl1Ay56biF8vjZcevAI9MtLswTkic9X4/kFG6007rn7DcF1vxxv6NSQa9+1Env+p3vwhPE4cM23aN6yCXknnYTEgYOc7YeDTrWUl2P7U0/Bt70cmYcfgYwDDkBcvNRfKcvGrhjqMiadavGh5I6/oXHlKqt5Me+35wbf4dHciobFi63pjORhQ5EyfLjyteRPpMVAfVMLrn1tMd5YuAlF2Sn45xmTMGlwXsB75WPypk7pe5iSZOZwlH1ys8WIQ/387+GrrkHGjBnanvG9OHyPjh0bta+ko3VK29xYYsOdt4GlF7nZhbGJ8/l8crxf7+E2uASkoqpUtZhnk9MCOi3F7IhqGFPNepIekxqTzNStTBepTmGiNvYLKqdmJlUUXtxIndMcg+t5Tatc9eZqVM/ZbH1G9mGDkf2LwawfQt0/FQ2z0KPui42KnzxgY39WHlgJ9GVblwwk2oeNQWdlhHXtkxu5TCyAIj1QbkJjI2TQkjabHDhhU9VYhRu+vh7vr/kQOzbsQN7AXPTN6YMHDroP44v2QHHZRpz1+FmYu24esvpmIrd/Di6fchnOs0YauU7F4ckfH8etH92O5opmtLT5MwG1aKxvQlp+Ch7+/cM4dfSpVgnvi/Wf4rz/XoDihcVormhBekE6ph+0H/YbNA3vrP0vtm4vQVNDM+467HacOOFUdcGhwHFFTT3OWrQGqxuasVt6Kp70BwgZKaqJiprn6PyO2ia0+tqwZEuVVW7wf+3GFh827Ki33uF1R47F7w4cZujU7PeX4aHPVuOA4QV4aOZE5KYnRaRTlW++gc1/vt5qJrSmIu66Cwl5eWHbG19NNeIysyxxtpqJXexTw5Kl2HDeLLRs22b9vb633oqkPr0dsampb8ZFz87H56vLkJaYgFuO2w0nTh7gSW5Eo6a0au2yN7HWKbOdXEY/hi32pFPypu5Fp0JhY94LWZkgwE91NDYOfk25sFB+zZu96Qhs1Jij2qdgZUnEjZZ4mVWfDwub7eeNXQzUfOO2i0HtUifEZOOI5FJQ1K6s2zaA113e0sPdxbDjxeWoXVhiyXbOEUOQeZBIMbrzxlMToqxr7cTYcK5zMlg92MigSNTOLKfshs3SbT/j0s8uw5a6rWioasT5E8/F6F5j8MtRx6PV14pf3n8U/vfGh/ClxWHIuIGYddy5uOqAa5EQ73eYppw98P29eHTJE9atvFd6Ifo09MK7376PGdNn4LFjH0dheqFc9xqPyz66CK9//y4a6xpQWbID2X3y0GdEEc4ffy4eWfKk9Z1fOOoFjC0YawQIiytrcej8FWisqsVJA4tw2qAizOiVy5q/dMaUUBBlRuDm13/GU9+tsxy9v9xw7j5DsK2mEbNmjKBmiqjolN/O1Lz3HpqLNyI+JQ2lDz+ClooKZO49Bf3vuQcJ/n4E2gMTtr2hkJd0W36UDF/qvpuLdWedY4Hgb4Yc8OD9SBo2TPOk2OzTez9sxrVvLkbvzFT8+3dT0ScnTXAphJAb/zumsQnXfQMqve68+8V93wCNM+pnFYNrDnsqLCkkWxwcG5ID67tHaIu7EjbCEzntYqDbpxs2umfEriM7AzYBuxhCc1zrhj6KvMnNyyYFfRvk/N9B+Lwp/ROS41oKtuKGZuOEoslNUcrIFJt8ZTK94U/ptWyvR83Xm+FraEHOEUORkJ2s78a8D0GND8qbp/VRnFOf9nGzpkj1HciwmnstFB0ga4qkeeeA7640kPVAkOn28KzqdiT5HrxgQzUWAYM5Mmj0aOyy2EgD4oJNVVMV7l9wHxaXLcLI3BG4auo1yE7OQXl9Ge799l489t7jKJtXBjS0IaF3IjJHZmPqqIl49ezXkJHsHxfUcrOyfAXOeHEmttaW4bYjb8TM8YLt0K8j6yrW4L21/0V9Uw3OmnAOeqUX4ZXlL+OvX92KtYvWIr8wH2dMPw037n8zlpQtQWpiKkbkj5JNa1pHnt9YistWbbIM43E5GXh04kh9qw4hN9+sKsM9H61AfVMrLjxwGI7es7++WCgLYOvtYXKzdlstGptb0Ss7FQUZKXrkmfahyGet/eILbLr8j2itqUXmftOQffDBqF+1Gvm/mSlT/roaHdJ+kE5JjQ913rdjB8ofeRS1389F1mGHIX/mGYjPTJeTD97sjV+nfDW1aN68yRq3TOo/IGb2JqTtDmY/wsSG7xugB6LRbq+2WAVFtrF6kfXX5TZdEvBgi1W5mN4PlUxC7ENx2v2ic6aqEZ90UM1QhNhT0WnYaKcsLxJilJWwpSqBsvWqFm3uijF2MQj41XoPM1KWKRv1OcoIGKtc9E1IBlzG2AlRZupstYwpqEuU5oFloorIaywmRzmry0bZRFbOHwnLsUWH8wIAKoXYzou8rhANGo9U89mspq2CyA7CRqWiiHGMhjPEs4ovTfTD3Q8bLmccZWqAZL2qxrMaZSySAzWc0bnY+DMEP5TMx4bK9ZjafxqykrOQnZINf9lh9tw78caqt7BxQTFqV1chvSALtTU1SCxMsi6/n9/wCQZkD8Iry1/C4OzBOGzYkTjjvZlYum0ZfC0+PHjofThk6BHiRh4H3DPvHjz189NIjE/AzFGn4Y97X42apmq8uOR5FJdvxFEjjsWwXsPQK61QDvUEYuP/rDnl1TjupzWWFjwyegCO71cg0ucedMrX5kN5dRMaWloxMD9D66CLTnEdXLW1Bn967SeU1jRh+ohC/PmYcUhN9ndKsJu8fNbKd9/Dpj9eaclBzjFHo+9ttyI+JUWZbuvrWrAIbAz7xO1NGDpFzs//eb76erRuL0dS//4GNm46aLc3bXUNKPv7Q6j+6CMkDx6MPjfcgMT+/kZQabBt9ok334Vji911KnbYiJgi0LZ6xcaQM7lBxyrnxRCbgIyzV7lRfsLdFhvNktHExoNfi4bcOGHT+bsYjFl1puEsW6AcA9+tIPsQjG7TcPm8Xc4b27jIAtm6+6kQKWTZG2+8sL1h7Bvo6tjIuql4LvGWlJIIPxM7bDiW3DN0gNzUtzbio7XvIzc1H/v0m4ak+CSrrHDoK4dYxu24oUfhr9PvsCS0vL4cV372R3y/bQG2rSpHSlYycoqyserL1UjLTUFqTjoSUxLRWFWPXsOLEBcfh2eOfAZP/PgIvtr6rVUeuG3aLThyxC8VlnfNvwvP/PwMWptaLeeYkBKP/5t4NVZVrMab69/B80c+h5EFo6zmRMNrOmCztb4JtT4fhmWkyOQyu2mFwjLC/SYL127H+c/Ot0oSiYkJ+PzqGeiXk0olbUNuWisrsOOJJ9BcsgW9/nApEgYODCpn6oe2bKMpl8SNEUN7Ix1e65YtKL70UtT9uMjKyvW/ezZyjj5aBr50MRVOUVM2yEuAwVooYqLwdcrfJNIgsE1OVhMhlmZSZpUubB2lU7ROTzcsiPS+5mtiyejYYqOCQTJeXuSGAxdKR8L1U10MG0GURBGb6uRX3JhqdSrbshK4i0F7aRnB87EAM6ynRkVq/FM5C9lpbJcS990NfCaJrgf8YiGyCvrzHfi/ycEpvgbzvJ6Vo9SM1CTG78BvG0yDRRDN2OJEnkLeCXTOzLjydAw2VCljdw51G+dpKPuz9mBDccg9c2fjqaXPID4uHldPuhLHDD8WV35wOT5Y9gkyCzIwMGcAnj3yWeQm7xdJAAAgAElEQVSn5aOhtRGP/vBPLCxdiMa6Jmyq34y0tFTslT8R+Vn5+Mcnf0dGQSa2LNmKzMJMDBjSF48f9iTSElPxyYaPkZ6YhtPH/4ZN5LShoqECTy1+Cks3L8NbC95BUnIi0ltT0dTYjMS+iThoxHTcMX028lPzZEnZtLyR6VT05Ka4vB63vLMEpTWNOGBEIS46eARSJF2z4jhR3sK2JyNAp4gjX9UvupROtVVVY9uDD2L7cy8gffcJ6HPjDUgZM0beR2OtU3FoXrMaZf942KKhzjnueGTOmOGnxQywT2QtxSSWbES3eezw5EbNOKqGVDdbLL5M++0Nzz7YbbHMraseC2Nyi4+jyaAptra4+2CjMwisPkV827L3RAgzX5pETYYsF8zfr/GuLUdJXZnkwKnRK5CKWThW87wgqCBlCrJbQbpgU9YiOy9bb3jC1H13gwM2blzqnYpNOPsGgmDpGRt/fU42Q/H32t2x+fPn1+Ctde9aArln9u5IaknGdxVzUbquDEnxCUiOS8GogSOw3+hpuGH6LahrqkZdS72FqL/kkBAXj76Z/ZCSkIrb59yM51e+hPrtdTht1CnYY/geOHbEcUhJ9De4CX0xJtKUAWvDv+Y9jYueuhgNZc1IaotHfH4iElLiMPOXM3H79DuQk5zDfrcdOqVIYuR3YRz5fgX574+b8chXay1defDUPTGwIMNm76lvSfvu8poG/2JEZKYmIsMiZmLPGqbc6GBcXsyD2hubLwpln2QvBNUuWFGSNWEK++R/T9sffQSVH32C7EMPQf7ZZyMuKQm+6io0rluPxPw8JPbuY1E5q/dKHCtm0UT1OXBb3LxyOXa8/DLSJ09G1mGHi70I8lnddKrs0UdReu/9gM+H7EN/gX6z70R8mn88ldlihn1Y9ilMbBQBlawDBWBJZQbb7oZI7A2Fs+LR3HY3GLQFzn5qV8cmWrsYqIuWSZ66QeuRRPLzrG5OtR3pimVHACVadBZAFRdjtItBZhvIhPHeCSOatDXU2M9rBdO7GMLChpq0yBEwBsuugI2uUZMxFkGe6gBmDXw7KzZzNnyDi964GBs3bUTB0HyUb6hASkoikjNTsGVxCRrX1iMhNwmDfzEYq/6wIiQ23276GkNyh6FPRl9jh0couZn97d/w+NwnsWN9OdoS4pHdNwv9kvvh5bNeRJ/MfqqmH2u5Oe7+L7BwczXi44CHT90LR+zR19bQK++nRiC988lN/Q8LUHzxJWguK7eUY+Rnn1jbIUPvfqG+D8BXV4uSG25E1Rdfof/fbkXG9AOBhATLOi7fexp8FRWWTRzy2D+RPv1AFlg5736p/t/72HLjzRZ7ZOHvfovCSy4BEhKJF8l1FwPZcc5aqzKy7bTFke9iCL7Dw4u94c3X7ucpiJR5hg60xV0NG1sGgfYsKG/J/kHHZLJv3/qZah4M+JXA86IOyNOd/Jc68jzbBRHk+2i+Bt0EKR7a/rA92IiRntDYqFJLl5ADcp1e5VLIwW9ePgOfLPsM9eX1KByej4TUJOwePw6+bOB/X3yAmqW1iE+Jw5TDJ2POJd8KHYkBNqW1JXj4h3+gua0FBXGFSEpPwokjf40+mX2lgHaMTl390o94ef5GtMTF4ZXf7YO9h/tHD51tSIBOBRJKOH73SOWmZfNW7Hj9dWTsPdW6eev/RB+b5i2bsf6Ms9BUXIzE3BwMe/stJBQVSRYV6s9xt39+bCpeeglbb/mrtZzKP7XR/777kJCdbX3ttb/+NeoXL7E+aMjTTyLNzzJp/YTZJxvuvupq1H79FZo2bUH20UchqU8fvZ+kS+igd1ssVMheqg1uiyOVm+7mp2KFDeNBkAJs7CfQM7d8pJHfki3xtPYZ8I77YJzVwhgLm+mF45qac0RYov7bxhcuLrHt3Dcga292IicqyQXsbqDzcs5ZPBFPC2uucW983pKYpwcblVcSqVhxd7FIi2KATUtbM95Z9Tb+s+JFnDvubBw67AhpdnU8r8psAAouLUDFigrEZyXigBnTsOeYPXDDfjehtK4U9358F57/+hWcvO+v8KdD/oyhuUMDd35EUW7qW2qtXoiUhLSYYKPWGqpUuHwXLD9RWd+EHzZUom9uKoYUpCPJuvESbTRNF3AsdZk7cp2SrVMhOPJXHXoEmjZssNL7g594DCljx4Xg1A/T3sgyK41MNhcXo/LlV5B50IFI2X0PxCXEB+6pCIJN3bdzUHz5FWjZvgN5JxyH3jfciPjUFOs7t5ZsxfYnn0Ry/wHI/c1v1OrlgFKw9flkDoPb4ljplF1uuO3WMYy5i8G+K0HEjs466Co3ag7PzRbHEhvm18hbufkpJjedio245bO9Fja5sXYxSK+m9iyYvX66Nd1ywrqLw9itQIGc8pDkLWk80dxnwBlb1O4GPt9m9nEE57i2deSKWMHGiW3FJea+ARJUdZcwGqPovIzQ7bPvFA1Qe3RXxSYaeyp0+7ScqY0RNmqEU163rWjQi9zoeqr6qpQGtcuBA6d+Wf02zHhxBlqaWpAXn4cHDrsfEwdMshyvCHxNucmblYOatdVASzzOP+/3mN+8ELsXjsMfp16F0fljrPNrd6zG26vewJqKNZi114UYWzBOc0uwFK2obXvQKS5n/m/VQdhI+2E5nJKKejQ0+zCwIN0qJ4jWoCA7PDpMbqQyWrbHxGblPtPQsqMC8amp6H/Tdcg67ld6V4zSYdFDwPiKYs+pHwSbmo8/RFtDPdL3noaEXr2o/UE3cFi/674Xh4uXGitywCbovoHOxIZzIFgl1/DtjdvOoLCxIfT5jiEv2LDzAT0QvL8+mH2Sz03JR+XXpIwbe3HC8OHhYCOJkkzZM9ODbKkma5hSiR2FuD15x3WMHeLn5T8HvjQjy2jPITn0JdjOG+QL4meUYNDPxruj9Zcy/Ip8M67fjy8cjRgb9niesLGDZsIj7necbS0G2Dg1jAfIQTTkxhs2+nVHho1/rfIxLx6DpT8tR9XqKowYOgzH7Hssjp56BA4a/At1GSJJOuCJ/bHwy5/QVNuIlF4pKBxWgOxeObhgj/Mxa88LrPPPL3sOd86bjRZfC44acgRu3u8WpCbK5jAWgDuIKlPGYDrVMdiQffxg8VY8+MlKlNU24cFT98LkofnBdYobPtU7zjKSfCTWlhZ3iO0CgXB4fCcsaz780Grsy5i2D/LP/m3A1KeIzSKTG+25veggszdhYuOfQKh8779oXL4CmfvubfUlGD1S0cDSBoGjTpGnsmEf1N7YrLezffKOTXh+J5hf0z8LqYPdFhsXv6Z6KthYuosOBu5iUIQVvIyoOa5l4kZQzhrrl7kkmKszqTxBzX5edjHIsFE1bfG0lFBpSp3RN9KNPqavEiLpxKnP60zm57two3cRbASzLBFEmSm4AGyUtQ3C/y3pUjk3evfFhnYxBOONFx39dFHxT/q+seQ1XP6vy7F5fQnatrVatn//k/fDoyc+ilEFow1O/cWli3DJa5dgfd161FY2IjklAb0H9cY90+/CAQP965vb8N7qt3HjtzejvrUBJ488Cdfu/SckJSSz2LvjdYpoohXjnWFtbTplk5sTH/4G89dtt7Ij5+8/FNce46dtlgU/S3mEPfhxfQUG98pAbrr5rKKJVUonOy9JzkVQy74PNTZHw9601tVb5EpxCQkqWua7XILbJ2k/uL2Juk657/zwQ+xfGLVu5hloa2hExuSJGPDQg4jPzacUbcxtceRyE1oHVVcB64cIsPUOcka8EbGUGy9+amfHJvguBp7K0oV46XDlvgbL+foNLllcemW01EkaD2mNFW261S9AFkEYGjHSQ68lhhzXsk5FWQVNPkJpRs2NLoIL+Xzyn839BDRCo0VV7bJwwobxxount/N/y5p7DzYu2IiyA2HnRW5afS14fcVrWFL2MwZlD8aJY05BenI6Pl//KW757q84avDhOG/PC3DH17Px8rv/wapv1wBJQN6eBfjnuX/HSRNOlq1RgsfC/9ffW/U2Xl39OnISsrFvn72Rn1GAXww5TF2Rt9eXY+HW+YhDPPbqOxFNLU3ISslGelKaTg+Ho1Oe5CZ8bKSKK/5UUwd1FvDpr9bgya/XISUxHtcdMx7TR/Uy9wcAOO3hOfh2/Q4MzkvD25dMR3ZaAkvdd7ZOxQ4bES9Q2p8at+nfClkluaE2KffdL3p5FNmehp9/xvrTZ8LX2IT0iXui/513IMkijJItimyyKsAWd7LceMbGoF5wxlL0AYl9KIRN4K4YgsUZG75jiO/wcLfFnSc34gnkhUfcf4PLWQTYhNrhEdfm390qijyiMUwx4rG8Cv1Y1vZFrU72k6ravMt5eqnqMxhdMXV38883zhNEohdVdYOz+VuxjU2oH2fzcz4vZ8EdnlXUibTfEcEDk9oebJRP7m7YbKstxRWfX4EfSn9ESmIq7p9xLyb3mYxjXz8Wm2o3IyMpAw8eeD+m9t8HT815HBc8cDGaa1uw1z574uVZL2NI/hCRQYhQbv634UM8u/gZjMwbifN2n2WNM1oGTl6VFHc90ym6k6ucuKuOkPux6wj7/Cjp1JJNlchITsSA/HSLa0fwk2idGnfD+6htarWe7bXzpmHisPwAneLng9kbNdxAXPddHJvw7Y0MJOS9QiRXnO1TW3WVtea6ccVK5M+ahbQJE2R5hxrutC3ufLkhbi5vtpt0qnH5MqC1FSnjx8tnI+WgZkN32811pGvLTWTYcJ8sbG/HYdOuXQw6NqZMgPhfoSwiktMzwMLC8T5AyimGOm8lP4ntUV779cBCO3YxKAbJ2PJ/c3RCPSsviXrBsnOxkUGluiPJd69uNjLitXHkm3LD62SxkZuqpkpc/cXV+Grz1+iVUoB7Z9yL8YUTcOWnl+PjTZ9ZAcJDB92Pyf32xn3f3YWH5vwT9ZUN2Gf0FLx6ymuyG8+UM2GIgsmNwMZPtXzVZ1dibuk86xZ547Qb8etRv3bdH+COjQ5Yu6pOnfvkXHy8YhvGFGXh3csPQALipQ0QTSsyT8i2vdiCmzDkhievecDaVbFRhj2E3PD9BCLvIOWs1X8R8gkOAyvbaraqcLnpbthUPPtvbLnjbsuKDH3ycaROnuIoN/bdDco+Rio3fIeHLNlS5B6JnzLaWTrYT8UKG8GDIGuD4lajIz/p7YPwf7vxeUvHwKVYlhhs7J163FE6GdX44+G8uvVbWiSTWQ583sauBJW6D+e8rEPuhNiIyrPclb4TY7OkbBG21GxB74zeGF+0hxXAbq4pxtKyJUhJSMF+gw60zMxLS1/AXfPvsf7d73c7F2dOOEc345FCeNnhIXWquqkat317K95d/19kJKbjtv1vx4yBMyLi1Fcb7Smm8qAjAV15wTjvZW+P5/0mUZAbYgpUdecI9w0E49S3f7bstpA3GOqgdLcHdN6rvYmWTu0S2MQBq484Eo1r/avDgT6X/QH5F1yoS1NoQ8uWrSi95x4k5uYi+5hjkLr77mrEM6jcuPk1aed0yl7fyIP5kQ6Xm7D9mnwwLzs8PPp8WWKg2J5u+bTMRNcgVUOSFfTru4AYt2Hnqd4mv4CocUgHS2l8lctXLUiilKwGeuV5ya+g1hCrq7ikNvVwXvx19/PWT6V8KLtLDUnGs0YBG9te+B5s7HLGG9miJzfipqFzuUS28s2mr7C0fCkOH3qEtfjon989gprUaitgOm3MqditcHdkJWc7ymU4crOpahN+3rEEmUkZmNR7EpLjU2T5U0lncJ2Kodw4YaP1W3OccB3sPJ1y08GOk5sebNQtIkCnIsWmfuFCbL7qarS1tmLQo48geeRIfU9EHLb++S/Y8cqrlgYXzDwVva+/XmajvfqpHrmhxnYV5DC/LDL7zrbY2y4Gxo3Oa2VuHNcUnOjx7mC7GKjGxMfBqQFSz/tSQ6PqNZDeXARZ7Hw4fN5SDI3vGwY3usBY7xvo8ti4cOqzcI8SmibVdZS40anGGku5UUEXe1aqy6qdHv7O8JZ6TH12qqUYyfFJKGwtwDffz0VmTiqmTJqMJ494CoUZvVlanCc05W1TelclB7Ifx1Y0cd7hEabcyBK1624FwcsvImi1ukText/YXIbW1jb8emChP+mvmiQ961Qs5cZNB+UODy86FSk2pn2SWhBCbgLsTQ82qtYRK2xq3n0HG6+8xrK1hWechl5/uc7dPnVDueH2KSq2OCo6JXv72ruLgcZUbDxptqElYZX0fSmAq5CdpwoaM8LGXL/HXQwq22A/Hx6ftzY+8vuwjmHxJ+jfm4aZ7ydw4tSnr6dzK0YiU317e6WRFQQc+CB6sKE0PN1zVLqcU7RCBAgHv3Qwqpqr0VzXjMbaRpSv2w6/Bz3hiOPwwMH3Iyc1z8bjpktnfFLFSQ66ity8uqUcly1aA38v8s1jBuKcwX1UF7gbNrqTxKsOKi3QkydBdnJ0FWzovUVFp1RU6GBvaMqBJpZ6sGHW2ZtO1XzwXzSuWY+8M2YiISvTk5zpi5+23aFtsfZoVCrSxliH/uHrSLh+zaZT0s+okorN78RKp+J8vjbZjCwaX+yTAtaNnc3cy0StvLWL1A19aarpkMLpkIBxJgSc10C4n+fpAj3u4XSeumLFw+hZd1bUsm50uglFxmy0wlkulOFZBeEMOgMbLVQ92EQiZ+5y42vz4b+r38H3W+ZieN4IzN3yPd5f+j+cNvhknHXgORiaPRzx8X4mRSH/4v13P7l5cMUmXPnZfPhafLhgj+GYPW08kuPE8h+RbqCMQqBhJJ4TN53S2BBluhy8k9MelHLWdL7ib4l0p9Qp6lMi+mEP9mbB+u144OOVGF6YieuPG6e6aChJqhr7rARfJHIjQwdFV+yODU1Q2e1NpNiI9xE5NsFtsXzdtAFyJ8GGyxlxfNj9lKNfk91Xhtx0JWzU9VNPULnplJvctBebdu5ikGlX5VS97Vbwwv+tdivwlKiXXQwyKiBudMpd8MhLGQ3biCSNNQbkN4jSIaw9FT3YUICmZm3luyT2OlohTpMdemyOmfgwdzF0e7mxLBvnAKHJDlrtGx42j67dgks//B5tLT4cv8cIPLb3WGQn+fkJIuONFxka+90qXE59t10MIXa/SGyGXvOeVRryAbjz2N1w6r5DGFeJSdImblahd3iYchMONrpkEx1s3LD0ho0e+abzkckNlep0Y6bu7FN7dFR/F/HEyAuNFZfTeaKEjobc7ArY6E648PxUjLCxSgzyusx3MdhyQFILzAKn+3ndyKKu6nZOfWpDUVd1GfPZf1XhRVcPmdyxPL6RIiDeEPnVWSXY2JkuHXfAbgUb9bL163KWSN1ueDLZCO9kGsT5vIllDzbRlxsZYfPbMEv5rq1Yi/WV6zCucDyKMoq6qdzI6Mr6H5ddDA46tbCiFtevKMaS+iZcNKAQFw7pg9R4MX6oylcGz3zX16nfPjUXnyzfZn3/12bti4lDNatgONiISIewtO1iYFhabq/b2pvI5Ka92BjTag5Yat4Zk6NeFbVse3FiY4vDxIY117dHbroTNrZdDE6c2DZOfbrhUHXWLMuI2w/N76p3Lw+pwrDpw5ktDzBcyiWTs+bzv8YvmoaTurmUO1ZZAFbbYYZWpWL4d2cxixqjUilAfZNjWUHj+VUrrrLFztjYSZrkFc2cdbaDZDyYBsUZy50bG1feeJnPPuyFw7B+3Xr0z++PT2Z9wto69K1Ip+hErikSuaFfVL5EMexph+4uZ2x63aNOeZGbZl8btjY2YUdLK4anpSCD0Q0roxtKp9SD2bBhvUEBhl29FFWokJNKfLowMntTWd+M9xdtQVF2KmaM9S8zknwBzN54wSbkvgFmtng8paRDEb2xxXDqNmDfO+H+rNGXG715atfGxqbq9BIF0183lpvI7JPpp7xhE/4uBkmRLHYxOLcoUgOHsM+aHjNmuxhUliFa+wZcuNHD2sUQO2wi5/82Wx5JzMLbU9E9sGlsrUeTrxlZyVkY+NcBKFtfDn8H4uxzbsfF0y4xdjFokhGHvRYOPPDueyo6B5vy5ibUtAL5SQnITtT7BkobW1Dn86FXUiLSE+IFZz/pZED7pWySVTVY6k8IsvOjE7GRsbu6aahR5gjtTdSxoVFpGS1aaVp2dTSbzaIhN7wJnCdTzZJLJHtxerChqC8cLHVJRU1vGX6K01npK4mQY52xiqbcWB6JMvZWgtzcp+SkU6oHQXdluqXO7esKnW48cr+CXrjAPszhvDGXpWbpVOeUvRfAnOMKdd6260Gzv8i3zciBVGTJygq6xZuN/vVgo1mDVDuU3tnO0xeqRBNbudlUXYyyulKMKhiDtMR06wVtq92Gexfci/K6bThq2NF4fs5/8MFPHyIxJQlXHHsprt37/5zlkq5yKn3A9wfo9Jf1aI7PavygQ+RmfV0jzvlpDRbXN+LgvGz8Z49h1lOsqm2w/v3yxmb8oV8Brhvt5+63GyXZEGdZBlla4BwnAee7uU5ZTtrrs3YWNtqxBGQtYqlTPdgE+p2g9kx5e23/VBwhbUVUdEr2+4S0N17lhocBoX24ziA47WJw2pUgWxbk9gNFXmAwmVHTJWUYrPS+ybqoaGqlUTb4ptUKBOGEVDKfpfQ4D7xemUDn5aiRy3lnTv3IOa4NTn1JFGUZY77XwglLxZGvsaGSSsDeCQNLk/HSEUt2E7TwY99FODjm4G2c+vbvHu55VRvhcsDkJprYHPrq4WhqacA+vafgbwfdZcnKWytex/99e731z/4Vy68f8zreXfEWqpor8buJFyA3JcfY00LYrKtYgyG5QzscGwp8FbFuGHLzRVkFTl68VrXvlhy0lyVC/926HWct22DlvA7OSsfzk0YJPWJsoN1BbtqDDVM50U5nl/lurlM92NgYe5m96cEmOtjIXQzkgoU7NqvrMuiWXljPDPPuXVZ4o3sK1e+iwHEt2x5YT6IeqzI4qHlntn13A9WV1cgmbV2T9yqX8xoNF2w4n7ciLe7BxkqaRYiNDz4sKFmIfy58CAcNnIFfjT4JaUnpRl+d//M/XvsBLvv8Cquj3f+fxWctsv539Y7VuPCTC1HZWImD+03HbQfNlgyqznLjX/f8+spXcce8O5EUl4Q7p9+BffsfYOwPsMuZmM4LvYtBfDMHneLTGVxuZGe4TkFTyOi+i+H2FRvx9o5q/KowF1eO6Gf9wgZ/ZmHxWqvEcMvwfjikV478IBaoKx0VmY+O22+i7Q0VdXhug8ogIvHKF0LbpydCYxMJp36n2htVHyepMfM+JjZmX3ZAxpXyZGS7o2CLjd5WmUrrMLnpDGyYa6NpK1EFEKU3cb8N3DEkWNA7UKfCxkZ2dIewN3oXg7RIZvpUN0NwAhqefef9VEKhxX8M3nhKA5DTYH+L8BcjhrYNJGomWhsC/VF8pEa/Rd14FPy7qwQRy4CzqpF+AvaAPdjoiWEnLOxyweXA8byhfFputtdvx9WfX43vts5FamIKZk+fjRF5I/Gf5f9B37QinD7+TOtwRcN2XPXZFfi25HscOeQIzD7wLvmJbfBPLqypWIVxhbuhT6ZwmtRip0e3xPH65jpc+dkV+Hzzl9b/v2jPi3D+HhcYbG1GxclRjjsGG56dITIDv8xva2xCTnIikv0TCvI/rT4fyppa0CclmcAV4bscSzb1Vfw/OzbWvw3QEa3f9vfqfN4dG+uL2XQsUrlxw4ZTqTvaGyUcuzI2+iUYtjiE7XbTqY6Qm3Dksn1+atfFJsJdDNyyB/I485EUY9+AJOaw724gxQ61i4H+qmpICmsXgzRSfDeEjLpUsl3FKLJRxFIOHWk5c1azBiOmTMLw9WBj7vAILjfUDFXdVIX/++pP+Kz4c+Ql5+KuA+/Cq8v+g/c2foSk+ERcN/n/cMLYkyyXX9tUg7rmOmSnZFvBhDBM8l7Kx5JkpGyJjE1ufG3Ae6vfxi3f/RUZyZl44tDHMTR3qNzh0TXkhrCx7tA2GRalA3LCRA6mR26dzus9zOKddGed6irYeLFPtNWSO1DVmBYDe9ODjXwrQfYNdLZOdWW5CdzF4MTjbGtW8lMnGHPBcqJBsaTJjl23XQyKE9+kGrDxzEvHbOc6l9+Fbh1idKODdjF0ADZunPqheOMV+RAx06nJuu6JTWltCRZunY/C9EJM6jsFt3x9I15cJRa23LL3jThhzIlE3xFSboTd1R3IkmQzbLmRnS3h76mIgtzQzb+6tRX/2VyGDbWNOKhXDg4pzLZu4C0AltY04MU1m3FQUS4OKMqzsgmh5KZLYsP2oei8hoy+pa5b2T4+1sizIso+UXbCeU9FVLDxsIshqnLTgw3fP2vagB5soo9Nm78Aq8mSbYOLbJ5WKaNubhORD41K0E1b1hf5eZWH1Ldq2baoE79G0EHd4DYWNIMX1uzapBqmTgbpLlMxXuR2Xk0Kq3ZIfr7zsaExUTKQkWLD67fdD5uyujK8tOIlJMYn4sSRJyI/rUCmy6lPlspT8j1z9jwmN0R6o986J7GWXseTnHWO3HxfVYdjFqxAfFscpuVl4LndhyE9PgGbGhpx+teLMGfVJhSlJOHJQybj0AG9WCCv5cZkUaRAXOqxBSPvmegcuQnUQV68DMRep5tNOaAsnmlv3HUqEmzIClI7daztjR2btjYfWjZsQEJRH8Slpai3p9q7mS1uLi7GtkcesyS84OzfIGn4cNkjo21CcCwp3+RNbnR+Sp+PpS2OttyQJjhhqSe6dB+CTiIL32nYG7b5mOX79PuKsZ+KCBv7Lga9W0F04QfsYqA0vB4d0OGFdWvVrpqbXso6RMaNLoRXDlpY78rgOld/ldpYpbDbSOHUC9U/FrPJKh2hefdl3tXgje/u2LjxxtOzii41ESeJZqSuhQ3a/OS6fjoDuSPB4FKndjYpdVaZwbvcxBKbkPtNwtCpuZV1+OWCFZYTPyQ/C8/5xxrb4rCutgEnvf015m8tQ1xiAq7Zfw/cvtcIRk5u34fSRbAJtR/ErMkAACAASURBVIvBFRtmn5zkoF2c+p2HTVi7GCQ2G8+fhZpvvkPGhHEY9OzzInAm223DpvK5Z7H55tssNco+cD8MeORxof7BbDdJUZR0SmR9ZcAahr2JBBva+eFou6MuNzIc4mZT7XJxt0+cEDhybLjttjP62vYphaFTEe1i4PUz3vREXZ7unPoyYchvdypF58bnLR6WBFjFrzamNs2lLqKCwF0MPEJmNWo23ql3MegOYvWsVmhIfNdyaY/8SCIfEeLBm7oCOfV7sKEbf6yx4d3FLHvUTeVGlJ7a0Ohrw8elO/BqeRVuG94ffdL8DYgCy//8vAZ3Ll6D+NQU3D5tPA4tylP9Crr5UN7EVef1zoMN3x9gLz/QCIzouCcyGjavFZDlpEZMmkPXvCsmltG2Nx72WlhfRWRym1etwsqjf0mmB2OXLZUtYM47PKrffBMbr/6Tdb7gtJNRdMNNdBuQUyzRwaalrBRbb7gJDatXofelf0DWUUfLe4gO3JXvkLaVj5872+LwsAlli0mnoi03sqNHNvwGkxsHv6Y6ds1n7RBsrMDStsOD72JgBUvLihs6I7q7RDrELAAqj6g7mukmLsbAZDyuOBNkmCBSW/KXVGc1ZRJ1rkYKlkwrqvNSSbyep2Ez+u6qEC1uzMZMuFWv9vissve7o7BRJRQ2B6dGxLo5NtsbtlvNhgnxCSHlpqaxCou3+cca2zBtwH4ynSdtXVfCRjc8tFOn9K3LTadqWlpR2tiMVl8bhmakICHO34NAqc5dGxul0Ya96f7Y+KprsH7maahfvgopgwZg+AcfmHKmsqjCFrdWVKB2zjeWdcuYOgUJhYVqEXrr5s0oe+ppJPftjZxjj0NCgf9nkcnNjmefwZa//s2y3anjx2HYa6/K7KSDbQ3XFnegTrVfbgS7rxrvC+XX2uunooyN3MXAKvh0uxc5oEDOarpJ03wyow+liEJVCHkTEQUDHCBS1oC9DvqWI+/kagRSkRKJKENFvyxPZsxlqfiBOi3UJGU7udF7sFFTZQF7KiLA5o2Vr+Evc26wXuprx7yKUQWjzbE7JjetvlbcO/9uPL3kWWQlpeOBA+/DlP77aIEwXrrOQKmPcJIbGYa2Z4eH+gj5h1Rg3Ik6FWpPBWXnuh02bvZJDuqrW34Qe7PTYOPzAb42xMUnAPGsrhrOvgFfG7bddy+2WSWHNuSfcQb6XPfnQJ1iLWjBbHHdl19i3XkXis867hj0+dsdykcaXAo0UM51RHpUVacPZbvDsTexlBuP2IhsgHRgcrTfCUtH+9HB2EiiJKFFOgkvvr6+iMmvKsld6HbNz7NLmzLsIs0XaheDTnGGfz6QszqASkGKpRolsr6oqMe6c6PLrmc1OtaDjRJoxudNkyxe5IYak8wEo5axO+bchn+v8NdPgXPHnoXLp14p5+8D9wc0tTbh6s+uwEfFnyIhLgEX73ERfr/H713P6+9O43wxlhu2/S8a2ND3V6OIHaBTZEcFQZRBVYAdtU3YXtOIfnnpSE2iSQmPOhUlbOz2qatgQ1fFiOxNBNi0bN6M4vNmoX7lahSeORO9/vyXANvtCRufD1uuuw47XnnN6vHpNev36HXZpWHrlJKb1jY0/rwILeXlyJxxsHaIaqTW674BvT9A2xuq57v7KTd7E9SvydJN6H0l4fo18azBdCoyuQlvh4fl91hZwG6LnbBR2xxFPYil7SkSt6I3WauTK5IpsjHS8Py8jYNat2fotL3qKZA1QUXOYTQ56l4AHk2JOolZ25G0fWoFjcBB/pZswDG6i60fUYlDRHOi71KEOroWw35mWEp+nnoeyJDa0mgO2AQ2EQViI76+/zva6lgqKSi/q4rC5e71bojNcz8/i9vn3WGlQR855GHsO2A/NbLD5cz/XtraWvHRug9x29zbMSZ3JG7a/1b0zigKPK/uP6KBx8I8BtiIGDRKcuOmg1KnOltuVm2twl/fW4biHfU4bcpAnL3fUNB+KC2vLLO3C2ETnr1RnXo2eyMvTB5tcc0H72PDHy63PiN9t3EY8sqrKqvqfx++7dux9W93oq2hHgXnnIXUiZPoeqTKxWRPGxYtQuWbb6KttQUF581CUr++naRT0cFG+akurlPtkRsauFKTIR7lxis2Ye9i8MZxbe4hIMerMisyveKdGz34bgU9UCGMtLzLxJZTnz2MzhgJ5Q7Oqd+DDXVZq7wVS7kF7uRoz56KnUlu5FAJybcMZv3QfV1ehRN/WoPJ6Sl4c8oYJFAaku/fkGlarzs53HTq75+swt0frLCuQweOKsJDM/dCZmqimnjx+vm86SpQDvSzerM37tjIq6u4twaVM+/7SrqSvWlZtxZrTjkdbU1N6HPNlcg57XSRC5bPuu2hv2PbQw9ZMBTMPB29rr0G8UnJOsvtyRbzPTq7hk55lxsPO4Y6cy9OxH5KXpJ9bYLrTlyx5C1Lo0M/UYuOqb8g+HnO6ubCWc3+Rlgc1yTQ1PfhwIltGRyZ26WUipo8kakBkWGgl2s8FSXB2JauHmykhPRg02lyw7rqbTLf9/Mf0drmswLTF8YPwcFFubLpVjbguvHGByZ+Zf+xqbO1za3YUFaLsX2zMWd1GS54bgFqm1pwzj5DcMWRo5GSkCB7lQJ1qqKu2frdgqxk9M9LM3Rq0YYKZKYmY1BhOhL8tXP2fURRz8bB4MU+KcIk2YBII7vh2huP2KjacaT2RqZ8hX3STdviz5uFW9LBAGx8rWj46SckjxmL+NRUw3qXP/MMSu+8y8pEFl3yBxSc+1sgId7cH7AzY+PVr8VKbihWi9BPCSVw8FPRkBsP2IgeBNkgYqmkddNQ3YVaTWW6W5UwpOyKaFqcp8S6cNA0bCmlT6XZZVcndf+rBsXwzwtfz1K7jjzz3Pmz5ToqC+rwrFI5jWU8Pdio4IByNJ7kRmHJVyTzRU7dVW60/WZdNCp/ZWDD9UE1NFMQbV87Hj42p36/Ep/U1GJCWgpe2GsEeqUky6m+SHRKOilZZmtqbsXt7y7Fx8tKMWFgLu47ZU8sL6mCvy9ucH46cjKShA46NP9W1jXjujcXY9667dhrQC5uPn435GclW+c/+nkr/vL2z0hJjMftx0/AviML1WWExsRUXxQ1csjMc+fZGxMbzREjbFxgSGO3N2bfUyi5ESYzmH0KrVOt27ej7vPPgYQEZEyfjoScXFaCkFVoZruNvym+oHme7L6e89Jj5fI8lY8Dd34Es8Vu2ND1NXLbrWAM10/Zzu+K2IS/i8E+s9HOfQOUtTADE6rDhceprwWSJJsUV1gvp10PHc2NHs6eiqhjIyI344ahGphUUKix72xsvi7+Ek/89Dim9d8PZ40/C0mJ0vFJa0yU3dHe4UEAdSVsQnHqz9lehUHpKejv50Vg9L+Ws3XY3eBVDsprmjHprx9YkOSlJ+ORmRMxdXhB0N0NJDfLt1Rj1rPzsa68FvHxcXhl1r6YOMjvoOJw7ENf4qfiSsv/7dU7Ez+U1mBoXjpemDUNfXJTLV4HFSjwi3QPp350sJHZio7a4dGtdKoHG8tmWLGpxYPAJwblmzQzBXwZq9nRrCNnltbn0aXLZ7MkhW3Tg8vn20cmjbSYmYwL9t3DfdZwz7PLDrtV9GDjhqOKWSQXhW4TBU5+60Qs2bHMwvGu/e/A4cOPFoEeu8VQU6nr5+8kcmP1bagW2lA6Yj8d6rz52RzLmsYWzHz0WywsrsTkgTl44PSJGJDPSwX69mz4cQDlVY24+4PleHH+Rhw9vg9uOH43FGaKhVofLt6K699cjOTEeKwvLoMvI8OKWS6bMQKXHzEq9LOyMmJnYaOdHr/Ju2MZi/N2e6PenfpB58hNLJ61vba4BxttLT3Ljd7FwFeKMK5zqtkzw2xwOquIXlb5Kd3osltBc6OTU5dz6nLEh+pwKrJV6Uvd1xCK41rOXAThuNbFEAEU/+56/4QQcvo0cU6rm9OeCj7+QLWjYFi68cYHx0bd/mKCDZlbciqdh80F//s9vtw6x3oLj/3iUewzYJp6I5TTtnOdR4yNGucLfF/CsNj3E+wacuN/9rLqJvh7CbLTEtA7O032K7ntN9Fy4383tfUt2FrdgMKMFORmJEm/IWRq4/Y6xMfF48eNO3DB8wsxJDcNz583Df3z/RkExqumRoo6RqdE1dKbvaFRaSe7EExudPmye9mbzsTGPg3XobZYderJkUV7v4jRJ0C3bPddDNGWm0ix0b14Ln7KvouBMyU67mIglxku13m7zsuhDNVpKKvg0nBoxy0dNDE6SGpkvSxCXjvU77Hz1PktnS5d/8V0mWgBF3ZDBgxOeyo6GRtJmudxT0Xg3gnJtWpdh/izEhWYlfalayKVt2OMzZvLX0W/rP6Y3Hcf/ac97/zQchMKG3MXQ/fAJuz9JoYOth8bvyiU1zRha1W9lRkoyvYvCgquU+u31aKuuQX9ctOQk56E5pY2lFY1oLG5FVlpSdZniFKhMP+UMQp81ijvYogBNmrmPCx7I8anPdkbpoPCTqkhbdddDJatjJItNnRKXqS4LeY65b/wkVO0LCileZ2wIeIjm71x2xUTamdQx2Ejs2kydla9GN0YG1VisPEGUYZI5SYDEmdmT4lxnoCh27e67SmeZ31c/11KelA7sMFjZDbr8OwEBQNOORMK5NRtQN+GA2SP5a+kaTK60Ph59e3VV+XJX3bBYo9JAUcPNrb3KjFaX7EWpXWl2KP3nkhO8KehbXLgULsJiqXKcfImL90YyD/foVlcvi7bebW/QBoCNu4vfBk/H1wO1HnZ/GvKh01wWLo4Zjpl1xHddWiXYoWNvwnxqpd+xEdLS7D7wFy8NGtfpCTF06PIYEFOUqAN26oacfxDX2NLZQMOHN0Lj545Ga/M24gnvlyLpMQ4/OWY8dh/RKE0F3qXgBdsjNuk/O5uOtu15cZ9+kKrRCdjY5hvJvO8MT1wACMKOrUzYqMNm2k/Ap/VbgZCnXf0U4a90fw9hpJzv2bsYqCwVb5oVcunDl3rZimbF4xiME0xUC0uxC4Ga5mS/ys572JQQDAhc+bEVq3D4vls51U2xGm3QsCzsjlpT+d1v5/VxNGDTeBODo9ys3LHCpzzv9+i1deC/frsjdkH3+e8i8FVboJz6ocrZ11TbkLsYnDBxpJLtQ8lUEfag823q7bjd//+HjWNrVZwtOSmI5CR4udE0FNNinsgrg1vLdiMS15aqDIEC/5yGC5+fj7mrN5u2YNbjtsNv9lnsAowAnTKzT7Z9g3I3AhrVnG2N7HERpUueYcXXZ3l1ADHJvT5EPamB5seuVGZcz39EtKHh5Cb4LsYGO+zkm3pDBXZpUMaSFUz7A1ilrIwIyW/vdN58balx7dFowEXKjlgpKiTA0aDaHyTbjNyooG+ewBTIY2aCccf8KzhnlfZCXbP2QWwafa1YmvNFpTUlWBg1gD0zugdiCWA/61+D1d8dbX1crKTMvH1aXNkI6LEKyy5oWVidjljjXqGAFHfiNNIWXhyQxZKxL5dUW6ij835z87Hks2VmNA3G/edvheSLU4EjqW+5/jV9PrXF+GbteXYd0g+bvn1BDz91Xo8+c0a5KUm44Zjx2HikDzd7yHJnRyxjLpORR8beQeSZttp9wuNRnI52wXkhvPUyMFgb7a7Y7Gp+fRj1Hz6KfLO+A1SRuvGWe1edJYz0K9FaG+6GDayxEB1L9mIJREQjFyqT8+8octUBWsLMK/zRkpY87SbbMXKApi3DqKtZWPc5nfRtQpe+jAzXPy7u58nRiX6fFES47WQzsaGsu28QVJXXNRtSb2njseGVs+KXg05W90GrK5YjVvm3IT5237AEYMPw5/3+QtyUsSYG5ebHfU78ODCB7C+ci2m95+Os3Y/R0WSVubIvg+AqOyUkwgDGzbbrCq2EciZV7lxw0YAoBv9rEeJqk5FIDcRYvPzpgr0zU1HfkYy43rXcsB1qqmlDZt21GFgfjoSE+JR09CCjdtrkZqUgKG9Mpi9CYINlzPKjYZlbzoOG7t9oixnKHuj5EZNhDnZM/Hwhtz0YGOMckeKTf03X6H4iqvQsqMCyX37YMRnn0iw/f4wmL2h4NjsxWm/n6K7NZH2OfupaMtN+LsYVCDsvruB9ge0hzfecbeCdBbC4EiLoJqZqJFQpBtEckK6T0pEsHyL/nVN8uL/m5bT4MMFsqNZ6B3fWuOwi6EHG0aqAny68VNc9ull8MGH8XljcfeMezEgq7/jzo8WXyt8bT5r+VK8f92z004OG77h7akQbGSe5IbJmUwGKKMTTG5UwotlKKIlN0L2nBrz5DRFJ2AjVaPbYuNqn1QHDKsDe7E33D6xDId24mTUZeZA2htTbkS6rLPlZlfHpnHefKyZ+RvpleMwdunPai/OroRN+3YxkHPmaSLpnomTXbC2yBFBo1TgxI0uGl7oghiS150aq2QKOuR5am50OK+iApYetgIGuun5HRbjtudk5qTgBm98DzYorSvBHXPvwKqKVeiX0Q8NLXVYtGMJbph6PXLS8lCUVogxBWM48b7CeNeQG0pRCoEMvsODwdQddYr0x7NO9WBj2Bu6tVgX0x5sOgKb0ttvQ9PGYvT+4x+RPHyEFTaKv+vmp2SjsnYIxnldCReOMPTOIJm04H6HyYH6PsF0qp1yE6d2MQi+JOYEdcVAdf3yLu6g5xmNLNXa7bd5FWHbur9Vqlzf/lVcoXaQyBfEZ1Gtry9viSztKN5VBOc9P6vuZ1DtGD3YSFkCSmu3oq6pFnNKvsNt390G+IDWilYkZSdiROEI3H3g3RiaM0ye3wXkRsp9+Dol5YyahPWsmNmqo4Jf3l2u5m+jqyNSs4S/kinwYDrooFMiXcuqlywTQhz0QoU92KedARvrMeVL7MFGSBjJDZezaGJDTbzdWadihE3QXQycTkgYAZn4lZ6QZNnOja4UmlLywneLCMya1TV3NzidVzOkaomGCCTUTUt2bdt3MahmF6VmegRRk5NQqZPqerosoSlxWDRI/UuOeyf0yJH980XmJPSzhouNcV5GT16wCZ8bXbxzbbLcsXR6VqHc4jO+2zwHV39+Dcrqy1FVWo3cPjnITsnGgwfdj736TlL3Z8WQI23kroCNXW6EL2zDoqpa9E9LQUFykoQhyG6FcOWsi8iNYP42dYTLza6sU9wudqYtjo694VmyQNuqe8y82ZsebIL5Nd0k3F650TwIbBLAzs9NRBOW4hq7GCQLIhHrqNuR9qgGD7wDx7W637vsSqCOcEoKhDyvCqP6NxThihrNVNesgIYWEdM4724gFkjKaKimSCtN0Q2wkeUTL1g6NdC1F5tFpT9iR/12LK9YYfUnDMwejD9NvRa5qbmioqACStv+gI6Qm07Ghm6NP1TVYfaqTXhzZTHi4+ORWpCNd/Ycgan52fISvetio/lUNMsh1eopqAppb5icdfQOj1jolJ6DCLTFwbBxwpLrYAA2AZsmZfrbxVYq0iaPu1/ai03dvHlo3rQZiX37In3yZDQsXIim4mJkHrA/EvLz5UZEb3Kzs2ET3E+JZspAn2/fxWAF8TKtT52wrNnKugvzC4zxz9S9TkKjBgNVtzolEdTFkOUVTRIm+/8Tn0llN8ojcFZp/tcCP1/erdk6T2JqE88kvzt7Vs7gRtnNHmxkBogMAt1AI5CbZl8jyuvLkZmUhcyULEVfoYaYHC7KnSU3hpypla2xk5unN5fh2hXF2L5ivRUgZA/ph0fHD8YJ/QqsLMttK4pR6/PhupEDkJIQb+pXB+tULLExWBRVkkGOTKpOfVZLtNsnNnxl2g8qaaowP2DvQzTsTWdgY9gzdQsgmy6SgTwxF0yn5G91G2xWH300mlavQUJhAQY/9gg2zLoAzaXbkD5pIoY8/6worXmRG5vtUXdKkf+WdPvUP2DuNoi63PC/FgU/5aZTwbCJC9jF4LhbgSYWpNTJ8SxR9qDoQw6uyQYNC0x5G1c1SkvRxXkKGKiAaj8f6S4GbxzXPPEiGyhlrYvTDcvQRIqGy7NadM6BvPE92IgxtR5swpObr8urcMmyjSgpr0RrYxOy+hTi3b1GYGRmGl7YWIpLV22yxPKmQb1xwfC+MiKPrU75VzsvXL8Dny0rxeQh+ThgTC9YoYnUYzKbFJ+I/+XlyOjsG3DVKUmH3h57E+kOj2jbGxNL77tfdhVsGn/8ASW33gakpKDf3Xchqag3mjcVY+1Jp6ClfDvi4uPR+4pLsXX2vZZuxKelYfQP8539VJeRG9OvUpZcNTGqqRp3nYqZ3FCTojDkLPUuOzZJRKlqrzIBiu6Y5j2JQlfHWaw1MCz+b5HikQEG9SxYzU/GJ6rWQ36ediXQ/gDe6CT6JLWxEtUIEdjw0RWegldTFV0Em0AudRnr92AjWT5jIDeWQISQGxuvb3vk5ueqOtS2+DA6Mw3ZyYlq5PNf60tw1Zot1v9/YOQAnNy/UAThioM/HB30LjdrS2txztPfY115HfLSk/DmxftjYEE6y150HDbiVQTqLLdT0ds30E57E5HcyD6tdtmbjthTER421EuiuOkixKb4kktR9b8Prd/udc6Z6HXNtZbtrnrtFVR/+gVShg1F4SWXYPO1f0LzhvXIOf545J12qgqk7bY+unJDfyYSbESJVV6zI7A3sZEbY4qBvqA0h9SbohoMRbuxzi1b51laU79zWetRP6P6GCsVsHoFZQ/I0VMujHhk1Pw6NcxR8GDVxTTNswpeiAOBn5cTGpwbQScZ9SSCyKCL5jqFh5o/lwKgey4jwIb+Fn0Im29XVzCd5+oO2Ly76i30Si/CxL5TkBDvd2gq5JWC7lVuujk21lx7bOTG/8F1ra14obgcjT4fTh9QiNzEBCGjUZQbroOUgt5UXocznvoO67fVoXd2Cl69cF9r2ZK+sVOwwXNuNp2KMTYigIuOTplMkGJZmzAlktNZdtBb/0bFRjqNqJYhkX2Skx2GfVIBp/x8JTdEhOOwmpeXfIPYYltlmOmgfoZI5aazsdlyzbXY8cZblqD1v+UmZJ98srI3vtoaxKWkIC4xEb7GRvgqKpDYu7ehIzszNtRDYvo1bYtd/ZoExQkb0aRoWQL5Y331kWRD2inGmhud+h+5ntNtnooCVK5QHfk2u8DPm5z6UuE8PKsKEtQM6a6ODd9TwWq4bcAzi57AXQvus7I7906/G4cOPbzD5Yay3Z0jN+7YdAWdihY2q7ZW46kv1+DAMb1x4JgipCT5716hdGrXwEZYT4mGzFL2YKPzsO3DRll+2UDRhooXnrNKC+kHTLcCAkoMkxeLtZ+Klk61X24CsbGCWDcfLm9uxj4lt/MUC7f5/OExqx46rkCTQQLjRpffwnk1n5QNXX+2hyhaeLRDV9NOeg442HeR0iAie1YaofDJ9ieIfCmmz0pXCkoUhcKSX7XtmRj2/Smm8fysUcTGHz+ur1yHqsYK7N57L5EkYnLwf1/8CW+tfce6XV0w/lxcNPmygJcbEfYRY8PZLqMgZ5HIfLhyEO55j9iod+XxfNhy1h2woWt7oCiw/pgY2Cdpkqi5WZeoHL6ITac829b2yk1nYaPsUwz9Tg82joIWri02djEE8MYrchI+RSDnVFlHqEip0Uo1mU6W30SIgOwg9f+Tst82bnE2Cx2MI1/xuod7niY0iIXOnyZkFtEzN7p6bs6JzVKblrLrqY5AbHjKp+tj89O2H3Hl51ei2deM44f+EpdNuZLXiVDZUIXf/e8cZCZn4db9b0PfrP6C+4H3pVF6VmLD5cyUmxDYcCZMkctXUaVnrvMuLjc92LAVFUHkRtFsk5MzfLzN3rjKDeV4yKbpTv+A3S/dSG66LTbSRrvZYuu+TJT3hp31bm/csBHeNIjcyJ+LL9AJctNJ2Khtjvq20f59A5wy1pFTX/kBk+vc4LgmIiQ5BCernHIKQpf+adOb4+4GO3sjy0XJH8nFTJS9kolBYxeDuAqI87znIrJdDN0Nm38vegp3LLzbwmBQ1iC8+6v3hKoEYNlNsNEvXvJdRG+HhxunfofIjRMDoX13Qyid6mBstlY24JV5xSjISMZRu/dDTnqiVGPWhOhhv0lInepK2DB7RrtfuovcoLkF1e++g4bFi5F75plIHjjY+34TL7a4G2OjLrUizNB+Klo6FTE21OMSmU4JJkUjnW0+qg4cpKPktKiWo7edt4I5GnGkuIz+AKdV1SF/6PMs/25hT12i4gZOJQZG1Ku/JXdk7LuLp9HtHGbWwuOzUmpQjXvpTxRZtM7FRmxBlLlOIbbqv0XUQ56ez6iId0VYbq4uxp1z78DayjWYOWYmThl3mv5V+VqbWpuxasdK1DbVYEq/qQpXPhljr6DsDNgYb5hNAYV81ojkRkwZ6bcZO52Khtx4webvH6/C7A9XWM901j6DcfPxu6lgnOQ2JJaKDHXnwobroGE1w5GzKGPTuHo11p1yKlprapA6ajQGPfYIEnoXaQscBXvjRW66IjZaTplfY36qo3QqKtgw+xTbXQwqNFZX8BjxxpufrwIevruB83kzM2u0CTidV+mDKO+p6EbY1DXXobGlERkpmUjyTynYOPXfW/Mebpt7G1rbWnHebufinAm/F4be6pdh0XRILGn6Rb5BaraxdYHrlhMdEqoOdnZTcZQDCtxU+VOGTbK3h6IftcOjC8jN+6UVuHb1JgvL13YfgaEZqboRqRtjc/Mbi/Hkdxv86znw270H4cbjJ0QoN2xiguJ++42VAmJLLjtAbigUpyDciuyC7IpxkjO+b0BGhuHrVPSwqV+2DGuPP8F6R6mjR2HQo48goU9vGSDYpmlisReHSsIWlCxs6gLYuPqRcO2NcT6M/SYxwiboLgbqzbWiOr2JyGhMFK0GYe4b4P0AskeBrXBkaQc+20m0ETJrwHcxGH0N2tKb+wmkYWB7JETvFo0nSZY2496vn1u1K8hn3dWx+cfCh/Dwj49gdO5ITC6aiGdX/MdyDmhEGwAAIABJREFUWr8YeDDuP/h+vR7LQW7sWLJeXP0+jKtycDmQs4WdJDc8fyVr2UxfdJLGQc48YnP7ik24b9M2xLfF4coBBbhy5EDPzxoNbMwdHpR7Y9S+rjolsKmsa8Lykmr0zkrF4MJ0ZUtKqhpw81tLUJSZhKnDCpGflYzs1CSM6ZvlaG+6otyEh014u1/4nopQ9sYTNiprKP7BYJSVEba2idTjo2e6fQ2N2P7EE6iZ8y1yjzoCOaefLnKkLrZ4V8ImEEtnP0X52e6CjbGLwUr7cl4BNdpLwkRpTWa9A84THSqnTKA5Ykpri+hP+NrA82oqQQk0NRSa52lCwzgvI3ftx+WKTnljZCbc/VlVaUA/b3SwUZM6jE7CZcY6FtjIW0rE2DA+iAnP7KbyMBeO/z3eXf8+EuLicenEy3Hw4EPk84UjNzsHNgpbmYqIhtw8vbEU167ebEn2v8cNwaG989xn87ug3Pz2ybn4ePk2jCzKxNPnTMGA/HThoJi9mXTLhyirbUTfrFS89Yf90SsrVemI1m8bDwFjMOWMna68Be3EhihgTPsksgLt1alYyA2jrImuvfFsu6OHDbf10dApJ2yCy5lHP7WzYWPxILCag+BrNncrUIWacRvZnDstkFHxkZxcCAwA6I9ZkafMAfMOdGU4WMXcyiipIo9x39SGJsR5UQNyiJzpWY3Pl8ua6PsZhqUHGz/UZ707EwvKf7Re+MIzFqClrdWSm+TEVCtQIEkQncGMBz4IloqD08GQB5MbWSSICW98eHIjbl2m8ZHfLgKdspobAbS0teGb8iqMykpHr+QkJNiC6q6OzZBr31H301uPHY+Z+w6RMqGxGXzte9az+rH78LLpGNkny7PcmPbJNORBsWFypruRZHKmQ+0Nlxvbzb4dchNcBwMbs6V1DLDd0cYmvD0VPdio6Qp7k7z1wkL4Nbrjkn/0aItJpzzuYtBsYkJvZEek5bgddjGE4LhWvOfWl5epStvuhpC7GAxqYZ2AC58bXT+NangkCkf6fnLRdOhn7YLYsKbOaGKzqXoT/rP0BUzrPw3T+u/nQQ6ijI3Lzo+w5CZG2Oj8vwxmQ+rIToaNNFoU8M1+dyneX1qC/YYV4OZf+RsRmf2QRNK3vb0Ea8rrMK53Fq44coymZo+2velsubFhYxliZm9Cc+rH0BbvRNiEr4PUQ8EbGihTrsstuqFenHe3N+Z2TZH1cDsvU1CuciDp1Inl1+DZEd8xHLkJCxszg8Bu2LSfQKaVje5SlkYR2QfpWv1OW1IUi10KZAjoRm50k8gko+yYdz2vqYipt54zXetUJeM9ZbsVNHisXEDc9dYyIblWxrqtcbBV6GUQqhjnd2FsznjvDPyw7Qfkp+Th3gPvxqS+U0wsY4UNazKjbJeznO2CctNFsWn1AWtKa6zSQlpygjBojGQpMp2S+wZIzkLZG8ImpH3qbLkhmyTsmR0b0ZxnzgBRqVbb4s7FRn0ftjOD2249NRfkWR1tcVfGRgQRqrlZTYLRu+KZLeqGl+Vv3bGl5upUj4hMn4f2UzHChpY1iUYT3YnKMmyadEAqFzWyuO5ikNkAPSwQ/r4B1eXgheucc6NTmwMrSlo1Sev9yR4L+c8yfyGn/XSTgnFeWrOdAhs3LCPAZrd/TUC81XMVh9v2vQW/HHk8IxChlyAjyVjLjRIW6jDxyJHvhVM/AmwCdnhI0WqPTgnLQV3NmowsJKd+V8fGKEZ5lxs3LL9asQ2LNlTi/ENGmLwlrM6l9pt0RWwUOV3oXQzhyplIiHq0xbHERm35lRcyWZOjgXXalyOq3c62m5c9SDW4jnQYNnZCOLvf4c/qxd50MWy87WKQUwIqi6A7DGWZSy9Mol4Bxg+huwOM4qz8NDKeuslbTayxcCqQ65xqLywLZJ7nZEpUUZEGiP6Ckkj5c6UUwc47PCtL8rDuyy6MDeeNjwybd1e+ibfWvouJvfbA+XtepMfuaPyIOcWI5EbdMu2daIFyY7WzUIM4RX3K8dg48kPKTfuxUQbLkLMoyk0HYKMcsL7u2XTQLjcS8E7UqeVbq3D6o9+ivK4Zkwfn4qlzpiI7LUmlKyjNS21WkcpNl8SGerpY03iALe4ScsPyH3bbzQPpaNriHmwC+/3IhwfDxh9P+nw+f7AlKXTEWF/gCgGWHqF6vEp18eIDS+PL3gJrSkHSYxJxjk6QBTvP6y6cgEiXAfQUBHkDTuWsP5tSb9Y3tT2r/JpGaoca65zOh8JGfJB9iaguV6huCWqQahc2ZnsndeGK1LtJrEPNLMq4yaAmUmzu/f5ObKzZhLPGn409eu/pSW46Bhtqiuw8bNzkxoxdTJ3qwcbUcSXDliB706kfNlTghH98BR/isPeQPDx19lRkpiYYzasyapcsmlJHgupg59sb73LDKZWiaYujrFMyQouGLe7BRmQWnXx4NLBRY45qZ4AVZcpOfZXuct7F4MobT00UjLNaDEtIB8650UXeS80JheLU7/hdDNQUJNPXPdjg7ZWv4U9zrrfe3MSC3fGvY54X4UYPNlxRZKOdlpsW/0RCqw/J8XGIj+fU1PqM+y4Gmi5S/cUC7xjrVFOLDze+9TP+PXc9bjpyLM4+YCjirO8u0zYyGBYBqdf9Ju3XKZNTX2BT19SKv7y5GB8tLcWr50/DiKIsmVGXBlTdWJ3sjR7JFahyfv8I7FOEu19c9w2EYYudsNE3oEj2DXRxbIx3RbwNzjrVrbCRDbpyzlCUzOxy6SBnhi1uJzYBuxhM3ngnHmd/rwLPKLMcJHXkytup190KFCOQYtKcq/g7vK4sT7ACFPEo+OtWqu7E+xA405z16/IzbOND4kesD0EdlTcI60fcqIfGhsbU6NaiaCRZE6Xrs3IsGRFUV8Dmiw2f4sJP/2A91ti80Xjpl6+4Y6P2Wphys7Nio0XMlJvy2gbcumIjfm5swb75Wbhx5ADds6F2JLCdHyrppOg9xUivNBIdJTfldU2YdMtH1rcpzEzB8+dOxag+2ZoRNRo6xRJsouYsDAzpJLc3UZMbL1ja2Bh1Vk70MoWyT3pfiXTKcmxV3Pk82ptwsVEpwnbITQ82NpL8MLHsYnIjFwkF1ykXuTF2MQiTZh/7oxKeSPWZKWr7bAOL2mRiQDNM6S5Po6mERj9UYyfbH8C7QpWVMHcxEMe1UDjWRUrsbtKAUWnUOK+CD8aYKFPzSomlgoaLDT/PUaOmG5FlC3zW7oBNfXM9Xl3xCqqbqnHksCMxOGdoWHLjDRtNtEXdwV0dG7GH3tQR/7N+sa0KN85fjq9WFyOjfxGSczJRctCekoE08LwtLJbZGXmr1TQlMu5kJUFSzijqVFVdC466/wsUV9RjYF463r9sOjJSEq1Am571la/X4qslm7DvhEE4Ze/B0k4InfpmZRnKqhowdUQB+uSmGvYjejrlARvuaC2mS1oG6qSD1Hkm+0IdOPUjsjeKcdK0N25yE44tDhdLQ6fai40Ny10XG6b8LjoYK2xE8EpFZu8+PJTciF0M1il542EdpTSFED7/t+Q697JvQM12UkRBFQedLVA5Cr4rgWY/lVEMcT4MTn1zG1cPNjIhFLhbIepyQ6ld+cYtD6Tfq6qpyXdO5NhG5MrOdxW5uWn1Fvx9Yyl2LFqFnJxM/HavUbhj92Fh7qnoPGyWbKnC/NXlmDq8AKP7UvZAOLkL/jUPz73+LRq2lqHPtD1w7+mT8aspA63gYXFxJS58dj7WVdTh8LG9cc/JeyIzLUnSoAh7Y3DqS1UL396EgQ0bBY2p3PBdDKRALvsJ3OxNV8fG19iAtpYmxKekAUnyvdp01lkHZa+EFAEKkV33GYTaU7GLyo11PY8xNowoiV+VTd54EmA1RhIwLqCvLuKfVH6QCkI6RuUpSRmBRO08CRzbrqhyIuzv8uyt7OYT6Vv1bV2+PzlExu/QbbDReU1lrnqwMa5OsvxEoXIQOQ6QA2qwc5abN0t24JJlG9Da0IgrBxbh4jGDkegnm+S7GLqqToWQmym3f4Tlc5ehvqQMOSMH4+rTp+Hqw0dbjv/LFdtw0QsLUFXfjL0G5OIfZ0xC39xU0yb06JQii2N0sTI7JMHvgvamZXs5yh9+GE1r1yJj2r7IPf10xKelMYVSdZRub2+0b+hMv8Z9cnB7Y07SKX7aiOyN3uZo40Y39Vb+ERkOBuc6lwbWmE5z2MWgLhChdzdYYxZ0XtbH+AQZTQbwhcaUclH8Dkbql4HmsrvBTBWbvPFesHHjCzd+Vzb2KY53K0LheydCYxkWNi67GByfVQ+nshhK93noYGpnwUZu61R6GGSHR5jYtPh8WFvfZBnK/ilJyEhMEAtuZIOh5QZk4647zzzbK9bhcuOOzXs/bcFdry1AWm01puwzFlcePQ5ZaUkWQo3NrfjbO0vxwryNuP2ECfjlXv2QmBDPC3vO+1AYNkJfaH28266YrokNTZBFbJ8C9twILEhuOgMbsk/1CxZg/Zlnoa2lBakjh2PAgw8geegw3aismuNookp+d7Llimk/Nra4M7ERF69A+6GauG3YuJ3vEnJj38UgRvzat29ApYzcOPWN7ZAaBgqbiTZSJg5FJlJ5pBjtYjDSCnp/gLRP1lKpHmwE9tHcN0Bd+/rKZI5UmbU1vlW068lNp2LDmvvEvZMPEzsY4SjoVEhOfaZTPdjY7IfNnkVTpwIaOdU+FO97KkLZ4qYN67D56mvQuHI1Mvaein5/ux3xOdmK8tez7VZ9WMzvdAo25mVMBRg6yusaOtXB2NgyCKLRT3hkM1uknL4aShRXer0GOvR50WSmlzQ55KNUml/Vl2NynpUTgnw+JzQVFYpdD5tNNcXYUr0ZowvGICslW74yk+x1V8UmUEfsrlnvYtgZdMo/ovnhkhJsr2nEIeP6oHdOCg0E0rCjrEK663iATjl1PquktJ7rl6HpTm9v1G3SKNWGtq2dYYubN25Ew8+LkTJqFJKHDY/Qdnu3xd0JG/3GZGDI/KZ3P9j52DAeBOIj4fzf+uZOZEfCBCraAnFXCXMXg/889TO47W7QI0LUSSwS4eq/bdzr6jzj/3berRCKs5pPZsg42pE3vhtiIwlKaFROvEZ9D+Tv0p+y2VC5Ab95/0w0tTbhxOEn4Iq9rwognXHm1O88bGgUjXyMYAHzIDdhYhPIke9VbihNTmlxPcarymIx0qn2YvPBklJc+uIC+FrbMGloAZ7/3d46YHTbbyIFxE6OFmwXg3wVcpeLm72RY4YhdyuIaaFQ9qa92HjVqdBy48E+Sc4JwxaLCIHtbiC6cTH24rYXp6Ow4Tqo754enjWIfXLEslOxcdjF4Oan5Muz26eYYqNmzZhOhZIbPsUQwCNAEkjzZbJGLoyvubtBRUwqeqBIQpMmhOSN15bBegLGxWIUGQPqtZzrgM8Yy+K+Nz5vNtrEakQ04RE1bGQDpYiyujY2H6/9AJd+8Ufr1fqafHj22GeRHJ+EkXkjrbXOXQcbeum0QY2VpIJxo0dZbkw5k9kE++x7EJ0qqW9CYkIccpMSkaAaU3jzDO1icJEbusNZxwL7fsLSKQfe+Cc+W42/vr/Mkoe9h+TjxfP3EQGj6/4ArVPtxSaoveH2yU2nIsWGYRnQHyLLNMJO6aarQPskezjULZJNXQTsGwhfbnqwcdARRuvvZY+Oqy2Ostwo9feyY8hKuIuQQfeJxU6nWPWCBdQ+sQ3D6Yf0tSj6Zzpgz6AYOTD6LH1e/hvZaKhSs+xfGzPu7KUodJhhVR+jO+UozSC/MuuQVAOcBsmd63nju8s3Ey42gecD4QrAxnAcWuBd/3YQLGVQyMpEfK7bOzabqjfiwo8vRFl9Gap3VMOXCWQmZmD29Nk4YMB0kxcj4IvqMgSXm1hgE46cRQsbobHMKbDpXEuWw9Spz7ZV4t71JUhNiMdfRw3AyAx/t3/75Saa2Gyva8bt7y5FRV0Tzps+DJOHFdga77WcfbGsFOP656AwK0WnnjVrctj2pkduhItwssU7Gza++jo0LlmKxKIiJA0axDZ/huGnXHUwmE45KJzN75hqH9qvdQ17o3HTmTsnLAOxCdzFoBKyvA1BN7fQOIFFq+q4plJGwNJCRrqLQRhgQWJiT4OLv0CpMzUqr5rnjLhBjj9YqTQbZzXvh+CpHdGMKP+KtPb8WSmiE3B2PDZiIVvHYFPfUo+2Nh8u+vgizCuZZz3xzdNuxAkjf23yf6tl2Z0rN0T32zlyI9PZdm50D9icuWgt/ldeZeF7cf8CXDdKcAlwlTV2bES0w8MLp76cGFCRsrnfpLnVZzUxJyfGi9S9g05d/cqPeOvHzThoZC/MPnkPZKclCk1xOK+XrHdXuXGxT2HZm10MG2a7Zb+/0Zu247HHUPrQ3xGXnIIB992N9H33D5CzSOXGzXZH6qcitzeh/ZoTNqafcpEbRRgYnk45YRN8F4ORamfhv6XsetJB7XGQqUZaKSo8iGzSMHjjJUsenacEirHr3IX/m3H2BexGZ2xSQTmr5WeI5jqSTRv3uh6bCODUNzmxdU2ZXsfOiM2bK97Ay6teRb/0Prhy6lUoSu8tjT7VN7lMEJaRYkNu0c4bv/PKzS2rNuHvG0qRk5SIB0YPxGG9ckTdOECnujY2a0trcP5zC7C0pAp+qoenz56KA8f0MnY3iGChR250yUfvtRB9QGKvBeEUHXvTNeWGEujcFm+54o+oeOe/lrL3Ov889LrsUt3it4tj4+bXoiE3TnsqdAaBNfeJSMJMn6gGfuIg90cpuqtKscKRGOqGfynwcoBB0s+IezcdUj+TMZOMRcz6Cz+vZ0xF5CfiSX3e1j2uZlJpaYtM16n6Ds3yy29PtAtqqVTgeZVD5t+9W2Ajcx4Ke8IyGDZigmNHw3akJKYiLSldzaYLUn4T++6DjaxIGXU+JzkLjY0lOe2Qm5rWVnxQVo2C5ARMzcm0Sg2KhEuKZcfqVGTY1DS14rZ3luD57zdidJ8s/HPmJAwtzGgXNqLG72BvFOCSNpnmzy374W8YEzZMJeejZm8iw8bVPrVDbnZGbCpeeQUlt9+J5CGDMPAf/0BC797RtTc7i9x48GvcFquyZzA/ZcNG7mIgFRJWzqx2ue9iEGVw3gXPku4UX4TaN0BJett5EVEG2a3gwv8tns+d69y+uyHUeY1G98dG2MedGxtx7Qpfbro+NtQI52GHh4tOdUVs9DI2NgBpOfjA3S/c3piDtjsPNq67YmTBSdSQe7DpinLD++hEwjxw50dIv0Y9c6qErKkEPPs1khVWnI9UboLvYhD+JJCDX+S+RLwuiyIGOPYMBHV2uHCR0wiM0dkVRU59zrBIQwSq9MFHtp2eVfYiCL+jO0qFse3BhnpSPGGjsOyRm4B9A8GwkVkqI6vXATpVXd+MnzdVIicjGSN7ZyExnk2JUOmQEy4F0dl27Rtww8aug7wz1IP96DB7E+JdBWIjH0xOkqi6c3vsUxfBhoaBqaSgmn0976nowcbR71DTuszqG3147ZCbuDafz1yWbt2+5LIl1qitGoysi7TuLRBf1n6eN/nRWSkaSjIo26BzsyIyZufZbLUqXbBcbqjzqs+KmmKM707z0Q7P6nJe3Ex3RmzoVmJiT1vmpErKzJJsDrVh2YMNa5xtFzaUAelcnfLvT7j13SX44OcS5KQn4bGzJmNkUSYjw5EUug46S42L89fuwJbKeoztl41hRVkiTbwTYKOCYpt9Mu2Ni06x8dNQ9ik8neoacrMrYCPkO1Z+qmvJTdi7GEQwTzPWevcsBflqbYLnXQyMtEGGyuFyVhvnw9mtwG5B2s5Fvm+go7BRwqlIYkT4FIr/249TK9qQgAQZhwV51nCxcTsv9w1wbGK7p0IqbpjYiEA3kDeehcJszExmz/RlRvOCqLZc8cMA2nC+6yEMbChpp8e7g+03cdapcORm2eYqq9lwXXkN/N0Qr1+8H3bvn+sqNytLqnHbW0vw05ZK3H/qXpg4JB9jr3/fCghyU5Ow8MbD2Cx398bGzT4Jn9G1dKqj5SZibFpb4KtvEM2rySmIT0mODMuwdEo3wgucYqtTEWPTCbZYND1aTeZyoE/uTRAjfh52MdhIVs1OBMdBQ30DDeTjk12qLoaDpzHV1kVKvLnwzFPKIeC8Ki6IJwjxrFrB2DQGI7/RUxpsHzfHMuizqng75tj42nz4fOMXmF8yDzMGHIRJfadIBya6SOZs+hobaooxLn8cduu1m2jy2kWwoZZcmcuSkmPf+WGTG6m05thRdHZ40HhTZ+pUTUMrHvxkJeauLsfwokxce9RYi9OA8n66/U/8m3s/WI4HPl2NNl8bjp3QFydMGoCzn55r3bRy0hLx4w2Hc9oI+c/dW6e6pNyw6RCdow0YjmufvXG1rZHb4vr5C7Bh1vlora5B/mmnoPef/oQ4f5Cg9kjIpwnDTznZbqfdL2Z2mrGuRuKnwsVGucqOtTdesYnz+drExUkyKOjJAoqEKcpS2xFk2UiNGqh5baqr0q1JQ804Eygtx+qqoc9LFOlyaPUNiO8l0uD686mr3qov0pQYNUjQeYM0UX4orVS1mkPMG1h3wIZYJ9U7sGGzvb4cJ759EsrqyjA8ZxjuPnA2huWNsjBaum0RLv30MmypL8HUosl47IgnkBAXL1vDddlHcC90MDa0ya8dchOAjTKP0ZUbrQgyWIy1TsUYm7qmFlTWNiE9Jcly8nad4jr45vxNuPzVn+CvWF4wfTiuOXI0bn1nKeatLcep+wzGKVMHKX9l2Bs9+mFlcOgziceCgjbSQauJj8IUsgOGBZD2oF3YyK8qpw+5XdM1dGnd5ARVMGz0KDWNPJk6xeVG1eStZ9PKFh1s5PRFF8Sm9suvsOF351nA+5c/DXzgPsTl5IkvLDN1bthQWZpzw7jLDfNrpudQfk3xzHiRM+ICssslq/u7+0Ht12TLjOnXQvipjsAmersY1PQApWrbx/8d8S4GGRVEjxudpjicuc4pCFFzy1KYRSqYczlQR2v7udFNbLzxf29rKMXRrx2DupY69M/oh/sOvAdje423xHve5m9x4ad/gJ8UKTMpE1+d8hUSExKM8VFBJUvmUYXJjOUswh0eMZUbb9goOkCVHhYdP8H2VITm1I+u3Ig1u9HUqehj88Kc9UhPScBBY4qQm54kHH6s5MYa8SJ21K6Pjei9MEeynbFx208QYr9JwOd3ZWx09wXt8WlcsQyb/3wdWsrKUfi7c5A38wwHe9NR2GjbLZywu+2OxBZLjnrZ5K4pn3g5UvmOzpYbq8TAGwi07bdlqKhN0naFdDyvWio1Q1YAT7MUEqNpkT5bfqjOjOnKbrjnVfgpY0rXZ7XtYrB+z8uzUnjr9XznYNOKVny+8TP8uO0n7F44Ab8YfIjMmbehsrESzy19HotKf8RJo0/CjEG/UEQtSgjYwhvx77oSNoyMgq4OSi6jKWcmTXXHYsPkjN6FJ53qwcYwZLYmaTWG1SM3yh5o1WEGOBq22NF2d2OdMhuUKN/AeNbtPjNcv9b52MS1GbsYnDj7bfzfFNEQ/wFvN5ACEMgXHkhEpPy2K2c9N2yaItFprJIq+Yo62caRT39LRPGslhxgaJ2eNdzzbEI7ZtjwQCp62FQ2VSAjKROJ8QkOgZ0uMckx7AiwjA02rvsGqPOUxwjkZ6nsZP1/lsckBjuykgH7A9x1pH1y1g2xYb1Bqm3TRad6sOlIudGb7iK1xeHs8FCq5FWnOlVuuiA2xOlD8YNhrzpXbhx2MdCSZF3+oW5s0ZclaHTFLgbndip+PjTHtU7nis8VzIuiINQx+wbMywM1TglPIvwF1ao7GhvxHbxz8HMsg3Pq61uVM5+3+56KCHnjoy430camEzn1uys2NA7MdCRackPNaRT82+2NXWe960gHyU1Xw6alBQ0LF6Dmk0+Qvs80pO+3H+ISEwLa8KJrb2K4b8Blv0mP3OhCRTC/Zv3M5sOddEr1IOiRLD6nJYIBc7eCvlqpGi3rxAw8z+pNAVkHp893OK/+pEzZEEc952Ngm8506pd+0eQ6F/9WBjiO390Ym2DjarsKNrL+3oMN3xutM6/WimMavOEyvGvKzerSamyrasSUYQWIj+/BRjQsajumLaYXbHSQH3Azb4ctbly3DhvOPgfNJSVIGT4cA//xEJIHD6H0qGR9s9v6jrLFXu1NbLAxeH24HwnXr0Xkp4h0ULrnLiY3wXcxOHGXy5YFRUHM9hnwel4gb7xmzyMHbp+YUHf1gF0MwXcr0ArL9u1ikJSWMhcqRzuk7IhiE/98p2elxTodi40M7Vx2K/Rg475boVOwUb0bvLIhDF93lJslmypx5pPfoam1Db8YUYh7z5ikwm+RcGTjyDKwF3G9g07tZNgovhiHZ+1obJrWrsWGs89G89ZSJA8cgAEPPYCUMWOlS3PQEcqbet6LozOW4vWK9y43aIQlBx2Njel32uOnuqAtbqdOedvFYCk672KXN3lJLmP0r9B9m+ooEe5iEH6aUfKqzxO3NBodsu9W6HBOfZWL0ANQMsaQY1vq4kmhB2uaFyUU/qzmrYEETvZOOGBpCXcPNmr9dWfJTWsbsKCyBp9sq8Cp/QsxOD1V8Uww1682l4gaL78RhdKpaO8biI7cvDx3I654bRHi0YbMlCQsvvFw2ZvivvOD7zdx5dSPNjZMDQWnvbtOcR3saE59K6CyVtyT1Bi5XcYfwadsbDdr41mF3LQ1NqDq7XdQ8dY7yD7yMOSdNpNXg6xMQnPxRrTFxyG5X385Ih7cPrUXm+YNG1H16qtoqdiBgvPOR1L/fkH36MQKG1ENcnnWnVJutEWy3KzjPiUhN3oXg/TyInrT3ZPSbKntjuLnlF6Vo1wsQlDn6TP0BwjbzRkWFXEr+5vGeRvTlXxZ4s+xxkf+943PF79gdEvIJiqVPAs4TxS39hIENflGARvbpkyaZ935sAmCpa1B1y5nYrLGWc7IfIrgSDeVB/fiAAAgAElEQVRp6vMdLzdVLa04bO4ybGhsxqTMNDw8fggG/j971x0fV3GtP3XJtuTeu41xAdMNmGpKQg8hlFATCKGE3iF0CB0CBAg9AUIIocOjBAIhBDDdBlzABmMLV9mSZVu9rt5v75wzc+buvbv3rnalla388Z6xR6t7vz3nzMwp39dDEQvF+Az9rbljBfSpTrGbeFgCFdWNuPVfC7Cssg4n7ToG+00d6vJxDkHCE0X8MADROTlTseERWOvZ42Mjv/dk4k1S2GhKWN26HaPM6xVvmhcvxrLzzkdWdhb6HXcseh95lPwAa2SbbVq7Z5LYrL37Lqx54GHnNfscegiG3nob9Xzxr/aPHx2JTbviTZLY6AMst+PF3afMYVyfZ+QeHcSnfOwmSS0GeayK1SeQbDpenNWWngFHdSdBkViLQYebAOu1U3LDkGPRPJuSLi2GFGLjvIA/5z3PVovfaBoaE2DZjY1tBxLLZLBZ19KCSR/Oc9x5cG4Onpg6Btv16UW7XhANj/h24zQUOYcmbx54t0ZIIh/Us9j0a3WTXygfVAG8OdKG1kgEhXmKO8PS8NDnt/ZoeHRFbLzjWaZis+7hh7Dqj39yMge5/fpjwswPEuoNhInF/A1KO1v/j39g5fU3OP808JSTMeCiCw33T7fd0NWic/YpjjexWgxevM+uBkDDWe2nxaBGM/x445nznvdrinuu9RTA3Rz5oqvf6QVyshJMDa1Cu/V5HtzoJoEXbL1J8nmsd2NDzFqUo3M2ePk8zu/uxkankjYWbKIb5D9XVeL1iioc0LcnThg1WDS3tt9uHBuMYzeKSEmFYX89lMQ+VVHTiN88+inmlFXj1N3H4YqDJ2W8T6UCm29XVuHExz5DdUMLLt5vIn61y1jk5lCfhJmNjo03ATQ8Oize+MXuAHbTvHABVvz+ckTq69H7sEMx4LTT1b1TkHNJvRJlZ2bCyjMWJ8Amsn4dKh58CNl5eRh44QWB7CzpWNwObML6VCqwYctTxYAU7FNiH1QHO5Od4U5Vex/WWgwRbkOhQ54Z6XN+kGtiOsUhZsbp9i/YAzghItKMTDxA0YsUEeWLG0OU3axyPZ9VOcDRMwpmP35hU08x90BDuWbqLYY1XE8K62eX6+kIEhAbxzT0yc8eAjXPY0oJnYON9X21ZeGTlR/j/5a8ihnD98BPx+4vJIa6DjaGlKF9duPGhm/aBglJ7c3ftbFLczOPYwcxPpVeuwmDzVtzy3DqP2Y5TWVRNsSvr/mJrlGmFhvl0zE+EhYbr/ikc/vcx6R+j5bL1hsf4d4GPPLBYqdU0tTWhn0mDMR9x2+HngVRemkVA51353gjFGzddiFjph21wtiN3AaFD6YZm5aVqxCprUXeZpvp8W5TH5M9YfYzbQrYcFyPH7sT7FOdbDdJ7WtuLQbDde6jxcCpH9MCbtJCaeNGp0Ai4nF4LQZRDKa9WjUjyQ9lfQedd6UJT93KS+/aNbFhemA1hqUu8eV1q3Hhexfgq/I5GF0yCnfPuAvj+00ghtFNGxtj2NR4swnYzfera7H3Xe9F9T4xdWgxXj13d025Le0mVdgk1BvwjTd+nPrJaTEsr6zDUQ99guUb6nHSzqNx5cFTkJsb1SNRZ36/eOPlU+3Bhnlm1O9MoMXQQdjoy5fQnbDCpo8ujsTGXq9ij/2uiWNx5mOjK4qh7CaTsXGpOVLygQzBcJ1zRth0A0qmLSPik0hvwHw+7UA0jRCrT2A4rpWTsGCKPqPpB5DNiuTNnpz68gZPvdNmFMLFG286iFV2g1oXOM1r8cB3NWxsLNfWV+LS/12CT1Z/6mg03LnnndhiwJbkvGYUzUyxbDrYxONGl2N64bAR+gREOKbrs247EzoV/loMqfepH1ZX44c1tdh+TF/0L1aKep4+qJuMbY78wNg4F3gffYJOwuaTRWux8/gBIeONR3xKGhs/vYHMtxu7cZxj8aaCjcmwMJ2eEz/i7lMdjI2YjPHc17zijaXFYApJunaup/DImeWpVjQN2OvJ6dU4oqigcFOCHgBj4hBRX2XeGc666ss8pbXo5Klw99du0OlQXs/gcKFFvyvHPzELLMeMYtarKG5lMbswNi1tLZi5fCbe/fFt7DhsZ/xk9E+Rn5NvKiXaaOhwGBoblX1Jr91wGlg9tr7BiS4A/sIyy27CYGNuXeF8Kgw21DdEVRqqIPL5xXTbtAFvfL0C/YsLsf3YfsiVhGUi6aTGCTvCbjILG2tMMS3xpuvazcaAjb2vxcYbJ9rpfSq4T2UiNqTFYCrylp6BE9m99Ak81uuSoms9DRWr05Qu5VMuhm4QTBEjblDOAjdHvuCspo+lzcDUnamLiK/8elrOac42JUdVjwzEG9+NjZZT1fNRCbDsVLtJj06F6VMLajei9UfaWVfERjmj9qnHP1iMa1//1vnbM3cbh4sPnmzaqAL5VIZjI9qsEmq/uLDRZ6uk480mgI0YldftdwHtJtLYCLQ0Iys3H1n50eyWmXyzdCc4O8W9J4l8MOl9SsSbVNhNO7BJhKVq6OfYHWxfI6IktXOKtj7X5YF+tfNduHtydbnFFO6JfEF9d0pbQY9NiAOHOSWo5sHw622tBJ4O4PeI/fzY9bznieKJwoJOgOrvU4UNpYOTetewWHZNbBj7bruxEiGmoS8DfOrMv8/C6/PKnIzCmbuPxyUH8aSDVESVz2/ihxnza59P2YkiV3xKW7xhciviB6TpgM6KN3zjku2X7juYPm6k3W7SjA3a0Fq5Fqt+fzlqPvoEfQ7cH4OuvBLZJSUiYWjbmbKRJOxM73NM48W332T3qfRjYzSDTPLXz0fC+KBWc1SjQiJtzycq58QhatFW77FIHYv10Runw94V/f9WT7xZzz0FaiP2qNU4P2fq3fJ0pHojuHuIR21E2k33I9JPUZORNc2gfy+niOj9uQ1R0qmnEBtVFtnEsfGzs47ChlLi6lDaXruhUbBU2U0XwGZNVSOufnkuVlc34rYjtsaEIYrvwfiySbs6Y3JdGhtFG+yuJSdnN0Q9rW+a5mhh+r3UFh86FneK3XQsNg1zv8ays85B8+o1yC4owLjXXkX+qJFE4hRnn9pYsZFDcMw8GnYPT4BNaC2GYHoDtm6BisFBOK7VbKYZkDD3d3WhNzkcWyuBcgXt4P/mRizOOqRPi6HrYRMfe3N41LkW/T2F1RtIFhvuMqfTc0A7CG9nse/acdgYLFVHfVCf6saGfbpb+6Vr202kohzLzj4XjT/8gF677oIhf/gDcop7iSATNt6kwqeEHAD3PG1EujgWURITYZh0u2gVoGq+xTMQT4uBCw6apIOapYjciP6ZKnhM2pCYE5vO15TT4BO56UHgUhN/vt96Duzx1xum+EzHZm75HHxW9gUOHncgBvccTD15nAaRHbYG+fZh2XWwcSUIuyg2XOhiH6G3Ir2SWJ/teJ9SzqwCpnwe285su9GNziIg6GwhlSrVZ6nuZZWVtP9nrc/QeCOxMWwsqgBAiWvFN0GlTWWkkrkh2VjccXbDujjB7MA7dsu0uBc2rWtWo2n5MuRP2NxVXrDofoS+QGbYTUdgY8ZAU2c3qgdB6BOoZj7TkKS/JGmwouimbjLc2W/+IRhHvigiBOLUV0+jOuKjt02TVTAlC8HgqJ2PQ4wQkOHOAnov9yZC9y6VtTDjyBmJzXeVC3HaO6ejvL4co4pH4Y3DXu/GRrLHyWJVZ9iNk/1Ks0+5fFBV/Oh3WoVpt36A7YPp8yk/H7TmiK0N0+2D+pXCxpuMwsacnswG2HWxaV7wLZpKS1E0fTpySvrw2UDzRmg23UCxeOPChn1QlajogCc4NboCNuG1GISWAe+cYXng5Xq+FdgHE67DCb4C64YRR59AjzfIm7L/+pRyo1vYGBY3u+RoThuJdCqCYvPad6/gso+vdF64R24PfHrsZynRtdgYsLEzVanTtUgpNvLapG/hMgNgmnyd26bUE6FbZ1p9ynk+PmXwTbaDfCqN2MRg6fC/hHvXsOu7it0EwaZp0SIsPvIoROoaULz7rhj56KPU/UVZrrBYChszZ9tO0PDw8Cnur1EnWG89lDA+EtZutOqvde5PPzaGKMke5+SxccoVmtFFvmnHphCFfKxLQFIkHOgcaU1NudQM3FMR9N/6Q+xn8XseozjZses939UaXbHFNVOFzR1f3I5Fld/j5xN+jv3HHaj3Ra/Pz2RsTFuqtx2I5NYmZTeGfFemmuUhuL0+JZHPLB9M5FPd2LjsQMSbdGDDPlj3wfv48Yyz0dbUhLwBUYGnD/UkHD8RV0yYGM+Ofum1s86wGxOf7Cb7rrZPGdKrNqPFwMlGL851kSHV+gycT1K3F9XAxQVIFnSy6mridmQuBsTS5sN1rj9Pi0vQzbxd3Oj85bGBymc3+hPKyKkxTY/MJOBG1+3IMoOQWmxc+Spno2yNtKKhpR698op9eeO5MhyfUz8WG014w8yTFqGFHHtNHTa6riNyc1E7S2Q3Xtjow2wcTn3bzlz2oGvh/tg8sWw17lmxFteOG4JDBvdNg93wlBEhoCOvsbPOxYZDivGpjrObENhQA5lbPyC9dpN+bJQ5sGqobb+JtV/4HihKHUJ3wg+btoZGrDjrLFR9MBMDfnMSBl56CTHjUvZLl2dj4wLdw3V0pSemsUQuBdux2KhZ8PhisHjTUdgo0zKZv3gaHsHiTXC7SRs2bi0G9Y6mW9seU+SpAlb5Eqkk+rHY9clxo+sDhov/W+9Rgv+bN3H57M7faUZHOs/qBiAhSet+V9lhxSVcPQq3aWKjiZK6sTFSxmQ3UWzmV9Vir1nf6wHg1TO2sTQ8PH3K6ZFglnuyYEc5r5N9ikK2GVDm56H7mPApJ0rE8amk7cYDm5ZIBC/PXoEvS9fhlD3GY8zAHh5j1CpuOc/eLizVu/I4tRzX1p9PG4GtxWC0XJLHRh12FPuoR7wJZDep1anwj8X274mHjXO4p/ix8WJD2T0aww9qN6nAxk/XQj+DmaN1TvAqzrjjTazd6BKDuPzrMoAu57s4mnmBu1vZ/ntO8ND/l4dBthCiSjb1U3OO1M+jP0Y0edGLqVsmNUiaf6Y0l0kwWdkM+mDXXscZMLq4Kk0JQyVtSBetVJF+tfjrZb6fmyn5UGP6OEyJRjaXbXzYsBGatGim243+rlwd+mxhS2sbscNn3yIbwPiCPMzcZQtdBwhnZ/7YWAbKiVy3T4m8bkfZTSJszKO2z6fenrsKJz81G9ltwDYjeuPls3dz1VoSxJs0YMObOB0ndJGW401y2MROe4nqqk98yjy76cbGbMByn5L7bFewG3VAoMYLfWzlTVf06zhLqJQgJxdUcOcpBt7k+CTto8VAneROoohuIFrrPo4WQ9j1mv8/kH5Ae3jju7ExBBb+OhXabnT0SJXdxNcb6Ai7Wd3UjOeXl+Ogof0wpkchza+Jq2BQn/LFJoHegI9PJcsbrzcl0WwUXN/ETDUlr8Vg+9T/FqzGiY9/4QSYIcVF+OSKfaw+Kc186qX9spFjo4faxMVL1v67saF0TMw+tWn7VBC78ddiENfeQBzX+modVovBNKqYWpmqNWstBtkRqftkxY2bhqNitRV4zpgauGT51jrKcfohhO4EXXvTi403lp2Djet7ogOjVjyMSSeFwJIPiR6aHOE1PDy40WWFKSYFpGtjUraTLUql4xLaTUBstIFvethwloi7t2PsJgE2zRHggXe/x+yl63H1wVMwblCUIEcdIiwfpLRnSuzGJD/tBE7K4o1XfPLhyBfsn/ocEMcHIzU1aPxhEZCVjcIpU4CcXEqI0udTiNWkEnGwNHPeopPdhY1n7JaZYhG36bFNm5FnLE4fNh1tN8liE5OGjBmVlvtaauzGjQ2VGATNspMQUBumEjTS/Vbc40ZaBbyGUymGtlbWKNSP+3CXM5WdLBVIigsxxm0/C5UiHCIRQd3ksV7PdVPrvpMuIXpJXT/Vgh7cfyl5ltOHjTKATQkbQcdLdsbU03ag4tNpNzYiTLpavjMLG01/JK6u7LNuH3Rar5jiNVC8ibWbhPGJNh0WfFXnBj7tcbtI4vihMmPB441eL+JNZ2Cz7onHUfHQI8jKzsagC85D71/8gpwqkd10dWwEOZzukaEW+iD72kZtN+GxCa/FoHtN/LUbUqHF4Ml1LvsHdCdPMC0Gc2pVR2fz45IIie41lLGwxgGDcFx3JWwElhsTNhT+DP+/JsQyTWe6gVUfTM2In64LUr9BpmCTrIaHWw/lqY9KUZiXi8OnjTS9OtxbEcSnMtBuUoUNX2ZMkkn0A4TExvRvhY03Zr2Ws+esCNFrOwcsIt8xBHG2js7iw49Ew7x5TqwbeNKvMOCy33vq4kTWrUfTD9+jcIcdhJZGHK0Y3YrbdbGxDqhJ6OL4agxthNiE0GLgnJIyYOdMZnVhCy1mMmCTIqF2HaaOohRDLDc6j8fQTybi1OeREl2R4CkLGkcLod1gp9HMoUNl9sxUB9/5jRR19J87Dhu+BDlaESb/EKtTEQebd3/8D95a8iZGFI/CiVueiF4FJc6JSfI8yc/flLBRF2CuaZE2RCqx0bScYe1GUs5TFiyEvklTSwTXv/oN/v7pUhTlZePmw6bi0O2Gh7KbTMNmWUU9rnplLr5ZWYXrDt0S+281lEatKWtplSZFj5GOTyG1Xzoz3iSyGxFzo4fkDS++iLWP/w3ZRUUYfNGFKJw2LQabyLp1KD38CDSuXIkeUyZjzAsvOmuU72cINvw82gc9YnFIbOzYzdlK41Pi4xQO7njgiw2NJfqsN5WpFO1THYCN0WJwTsiK65xKrjq7qTvvZRd33PU8C6pkk5W90d2Mb+fmmE5lAvqtuqRh1ms/12cQMl43dzmPJsnvnE7fasrGxXUed73glN/IsNnt6V2xvmmDg9J9e/4JM8bsHcsDn+nYOLZq7MyUwlJsNzw4x6lz1a1r6w1IuwzsI6q4ZGkXBLUzHrDx8ykPbJojEfzh1W/w5Mc/Os9+1cFTcPJuYzV1id4QwvhUCrCx9AZE61EQbJ79dCkueXGuYwf9ivLw5dX7KTOIF28y3W4cDAgItxaDyFAGsZumH0uRVViIvIEDgeycGGxaqzZg4Y47q3ifm4vJ8xSWegdIVyxO1m5SiI3a64QPdtuN6bMR2MTVYpC0MDz2Z8hPTKO2W4vB1PvcDWPEA6+aAGxBZz5JWM0zXrzxlL3w4dSXkZuOPCLdHFSLQblIkHdVJ0xlXUHWdyQ2UQ6s1rZW5GTnIpvn67OAU/91Ej4u/wK5Wbl47qBnsFm/zWOe3fR8MBYKESO1Y2OpmvncmhyZiw3fClKr4ZHZdrNyQz2OefQTFOfn4a8n7oBBJYXkg/F9Sk8Y6a3L3w7C2o3ivkrObhas3IBDHvgIWZE2nLrLWFx00GTTsqHT8tRLlaZ4Y2Mjsqse8aMjsbF4/OLE1qXHHo36Bd+jZPfpGHrPfbRJBNXwCGM3KcbGMZvk7CYoNqH3NbrJ0lhgCM2g9GFDuxhlQsLvU4YHQXTmurUVmLzF2SASaDGoS5GP3oC8nfAtn5NZlkgU1+HCcaObwwGfMrjI4c0bT0wo+kmMH9F6mbqgI2fGYIMsVDdswAcrP0BdSx32G70fSgpKVPKrDahu2oCH5zyMFVXLsOfIPXHohMOpG78NC9YuwDs/vo3JfSdh77E/pU59M8lBqSSLf78zsTHtzsG+1xj2TvqGGRsjRtYeOzPP0hHYOAdQ2kwT+mA8n+oQHwyHjeSw11hSWS/Ru35fVoMV6+qw4/gBTukk0Xo+5soDLZ8qOsZuTIYgxm7ooGSnbj2wDIgNpwy6jt10Y+Nll+59rSPtxmgxOPsDpWd1t6fI1TvsZMTAZA796ljhWq8HLjwOojpBwOkrPmmLNnZzPxEXAr3eOv+Jn6Znp0e29QZUzkRVTzgr4XpX6/PtA4J6vczD5vUfXsNVH12NpkgTjpt0HH6/02WUac/Ch0v/h9P/e6aDRq/cnvjkuE/5CEgZD86RpAEbgaWTV4ixG9lYauR7Nwm7SRIbHmHw9UGLf5/vDaKXQud+UudT1jdHDH/q+6YJp7A+1cHYcMRIR7zZlLBpq6lF/Refo7WqCj12mIbcYdFeEDVl75Qv4sXuFNuNvgRIBV7ulQu7r/n4VGbaTbh9zSTuvGMxx5usNrcWQ0I+by5QmEbAGC0G3rZ9+LwtTn0fbnR9U7f4vPkqSOl88fne62k8SdNMcpJcFk/MGKaSdo6jxdAB2DREGhxdhZ55PXRXmps3nt/1j5/ejr8tfMopI+w7ah/cvdfdqGuqc25Rq2vLcPQbx6C+uQG98nti5jEzjU6GmRy3dDVsPm9tIqL8kGZsJP2n+6ZL2KsOALJBDzvbaO0mDdjUNragpTWCngW5yM3O9tfwsHwwxT4leuujFlfX0Ipf3P8hmluBV87eFb0Kc7WNOoHZ0wcFbWwXt5vUc+qnH5uqN9/E8vPOd4Jz74MPwrA/3m58lFl4icJbZm3DxptMxCY1Gh5mX+PPyxhsIm3RKhonAejMJ7r2eVKYtwsO0IZOVARr1ro2khu6bh2GG52pKeUEgWoME82JurWRjqceXa7MFMUHWH3yo4OA2WjcnOI0dcEUEDqDwO8ay0HOJBEKS5oIkBtZAGxW1ZTh3tn3YH1DJY6c9EvsNWovZpbnvln1RPT5FXVr8eT8J7C6fg1+Pv5nGN5rBG7+9CYU5fXA0ZOORWukCXPXzsfuw3bHpAGTYjQ2+JRPIV9ruGtJWk876BxsFOc9lYx8sEyt3ZiOi0R2U1pbj165uRhQkMdhUBBLZqZPLV9Xhxtf+wala2tx8FbDcPremyGHDtza1319Kjg2Jn4Es5ub/m8eHv7oR8cWL95nIs74yQTC0u1Tfj5IodWiY0+/3cgRIE3cxFNGoeKNvAkmG29Sh43UtdB8EK5YvPbBB7Hmrj85IJccfBCG33E7wUGRRfPVtNduMh0btrPg+5TuXRMdXonijbdPpQcba4pBzXfSS+qbmviD8+TciWFmcfUPUenB3OL4Z9WmZqYITFlC8Rax89vaCjRJqUVT+HfbSpGGrlcfXpybhhFncNY7vhadYiD4WQyFGq+4a1qV8FVzncZDz8qmF5un5/0NN826zbklDe01BP8+/G1PbKj53XnGaHmhNdLiHApu+OQGPLPgGecg9cvNjsBVu1xDzZOU6uN3DYCNhaX+hXT4YSypvJQ6u+Gu4uTtRmKj4rLLDnTWyWU3OjmS2G5W1jdieFGBk0Kdu6EGly5cjkYAf5o4ElNLWERI2XiqsNEtxjpdG96nJDYffl+OU5+chbrmFhTm5uDra3+KgtxoFoF8hDroOUWcEEsxcikPnJa6awC7eWdeGX7791mIoA1P/noa9pg8WDfOWfGD4pSeXlGBhM7p7cMm4bumFRv1HkHsJiY+8V3JN3aTV4eMxdJuxMnX+QaisbW1rAzld92J7JJilPx0fxTuuKMuLSTE0stuNOeEO950PWzUdin2NbJbk6iOE58yAJv2aTE4O7jsJjX1JvUdZ5IWAx1+uPji9+z8fXIaPsB6Z4lbpyIJbOaXz8VZ756D5rZmHDb2YFy442VakZJ7Q2UMNDFS/e0XKz/FWf89Gy2RVhw38Ze4YNolVsyU622diszHhqIRjTDbGh76ICn2Bzc2YTQ//LB5uLQM15WWoW9uDh6aMgrT+5Xg7PmleK58gyMidPLIAbhhwnDqXqbTchw7S5XdBMFmxbp6HPngTKysasTR243AWftMwAl/+RRVjS3Yf8oQXH/YFsjOijb5qVOkn52FsxupbyL6IhL41MeLKtASacNuEweQMqPIdaUw3nSU3Wg0rWdPDhuTlORMycaEDdDWWI8Nzz3nXGx6H34ksorUpI22O7ZMLzvQyewksOFeKd0oygd8tSHI+NE5dkPnDMnLIMs3QfYpHvmX75pgn9JaDDoBGMOpz6FWMJXqrhMj4WlWudbTQ5lOdK+V1DilD1MiLasnCeyfk00W+l8SPLvzVYd5dr4+WfUzn+dnFtcwn+/GBm34Zu03qGmqxo7D1HwybzPGbuNj8+bi11HTUo+fjvoJSgpLxJchUiauV6Dx+8zGJqEdiA1Z726x31V77ObcBcvw9Kq1jqdeNXYIzhw9GH9dugY3lZahGcCfJ43CIYP66mmRTPKpH9ZUY+8733eebbOBPfH33+6M1Rvq0dLahtEDe2JAL5URCWpnzlIyxYz2qZTbjfZIW+K1C/nUuqf/CbS0oHjGDOSOHBnjJLF2QB1/gbHkPrVEsV4Ufyl2V7/6CpZddJnzg0MuPB/9Tj3VMGSHia1hY3fS+1THYeO7x4Z91xDr42sxaOIW2YmqrESl+V1/NhFDnyaUCVBnc/RPotlKX1NCcJ1rXncxOy25zg33OqejiBnPT4uBPic0b3w3NjQRQhSvZBNMs+3YiJS0oDpUV7abf69ej5O+XYr+Odl4aMpoTO9fgqbWVlQ0tSCSBQzNz0duVPOZDpSqumF8ROoHhMdG18L0pIozLZDQp9The9W6Bhz54EdYsaEBx24/HNcfvrV6Vl1acdeL+bnN5JKfj8TomyTrU5S6CIKNtDPZ+JEw3jjRi9/VNOLygccdP6g2qU9O7dZ+6WRsql96ESuuvs558d777Imhd99jMah2NjbrHn0YZXfc7XxLvffeE8Pvf1BvPtLOeA8K61Mbq92kCxuRQRCCKPoGRnoLHPCohq+5qIPoE+gEkT2eyI0YmhHMzYnNREi8sfDgjMVUp1L7arRFXeENkQ/Vn2Udh8oe+vajmRU5g0GpLD4UxlmvxiX59yXmRvdc340NjyTEYpkB2KxtbsHp80vx/voanDakL36/+UgURhmnXL06TtNoQDvb+O3G9sGNBhtdF29PvOl8bKpeeAHLL7/K2YALxo/H+NdfsxkFqW/H0htIFItTjM3KSy91on7/35yEvImT1JGuM960gb4AACAASURBVGKxF3Nl2H0qxdgoGGj3pIxOfGy4j0MdihNpeLjjk2JSpNyFyhiS8lWMSqL6V3f2VnKqcRmBXMhDrZnnCsQniSZFldqKZhlMGl3SYZpMP3eJutbr2VvD8qduSGa9+13Vq4u3EBML8l03BWw4vczvuqlj82V1Lfaf9Z0Dw/iiAjyxxRhsVlzEnQ4dZzfc5uM4uPpWTLY3iE+Z3mJD0Sus2+Ujlg8G8KlOtZvOxEYLevnHm0zDJlJRgfJ77kVbSysGnHUm8oYNs1JTVuw2/XOCEjyg3XRBbAL5FPc5eGJDGyltb3Lf8drXnH2Hy+IxPijmAbS3d9A+JXwqvVoMMpq5Tz18RnAAVxu41afgMW3A6VC1odO2rstY5lSlv2gvjnwusNHvs9oWOoRTn961Gxuz0enzYGZhs6axCafPXYKPquuxa99eeG7r8cjpNLvhCQ9xQtgIfKo9WgyqacLm1NdG1dnY0MFKU0kHtRsZn6QWg8e76tily506ilJK1BubtuYm9Q/5eaF90DO2ho3FGYyNr2aQ3Kd8YnfKsXFGHdS+mHCfSpPdxNVi4L5j66Sji5bknB4c/KrfIx6fNxcYxL2cSgT2FcnFDkURQXW0qtsUn8BkyYIPXDYnNh1ENOkLZ7cNxbCcXlXnF5d2A38J1Oqt1xtPtRqX1CvZfOHd2HQtu6lobMbXG2qwz8C+dp+tHp/Udy5/zY8QdqOXZoDdcAapqr4F6+uaMKp/T5d2Q8f6VCBsrDRn/Phh+gvMXKDSVvCOTzLeMDa+Wgx8I/SNN7yHyxxs8vHGC5uKO/6I8kf+goGnnIz+p5+O7F69RAp408ZGF3vEGLRJj3djw/uUpcUQMwMtpgqkI+jjqXu+04OKWZ0VJMmJ4lIwMZNreiINylcD7ezMQ682XK31oBvzdRqBOxVMNzbVjOR0jB64IuOw47c9u64DgXs+vCtiw2k/fSbyxtLXDsRcv0k0UtuWF5aa1ppTb3QNykS7yXBs5Jk7GZ/y9EH6Ovx9CqhvasV1r8zHnJVV2G3CAFx+YFQQKbPsJq3Y6B4ndYig1k2TS85gu/l20mT9nKPvvxc999lXxGLXbD6VViVVsa+dsd10EWz89zVzj7XftetgE3hf84nFCbFpU63QdOGPz8tsJQUsgzITDfrmrTn47QMA/zInC0A5GdkZbKaldU5ApcH0jtQRWgzc2yBuu6H5vA2W3MmeKmxWVa/Acf863iFIunHXG7H7iD1Ms5/uIrF+mzk4eWAZTqci87Ax9z2b6Kur241shuSrn/LB4D4l19v9N8F8qrK2Gdv/4W1Eol3vPfPwl+O3x7Rx/eiAH0bfxNtunCM/BRZTA6ZvNKCGR2dhQ/lBz/iUvE/5cOrrrT44NqXHHIP62V8539Xkb79BVjYVZy1cTWO2X3xKxm7iYRNOp0LaTeqw4Yufsr+O9amuhE1ALQbJ5y3bGINzo9sc+XyTVPUVNd2ksgzqRCP6EnSKjvsUlMHYtMumGKKZ24LqDZCIkzmkhNUbSC02C9ctxAXvnY+Vtatw+bRLcdjmRyAnK8fC5qlvn8Qds/6I5kgL9h2xF26bcQfyc/LJ5jdebKTqX0rsxtfOaAxOz9txG6vQ8MgAu7F54IVPUY20oqYBDc0RDOlTiNysbNPrE8SnCJvqhhYccu9M/Li2FodtMxx3Hb2NnI10bI5mOMzUchhsXFoMFvOiHjGnDmzncMv2Lb+j+HoDlt0QNu2KN2m0GxtLJtX1e9f4sThSW4e6jz9Cj+m7ILtnDx1bGY+qt95GzVtvoseuu6DP4Ycn1H6xY6uI3ZICPwE2tTNnYsXFl6LH1lMx8KKL9IRqdKKCs9R+sTiV2MTamSFDUkbNM9p0MgttN7SvhcAmrk5FAp9KGzZWBoGuXIr3nkciKJ0oO/0p9c/TBsyT72zaWu7ZSEObtJXVaSPUFFhfgAMBqylS2oBTmqI50UwecIqbrsbEqcBjOiaAmTS35vWP3sTku1Jpw1QFRQahg7D5v0Wv4vKZlzu/eKfBO+K2PW9Hv8J+WsY2+myfr/oM5753LqqbqvHLCUfh9ztfjpzsHN24mSnYGJ5xkZiVUyKkr5CU3QSyM5Iez0C7STc2y9c14Lx/zkZDSwQX7zcRe0wcRGU39sFg2ES9a2FZNZZV1mGncf1RUpQrDgXp8alg2HAPEsvLB4w3GW83HJNohNsVi1OFTeP8uVhyzPFoa2pCTq9e2HzWZwFjdzC70aJ3XBImH1x2+umo/u/7juEUjh9HtgQM+8O1KNxumtl3PGNxx2Ajp+jUWSH4vqbOEaabLUgstpruRaYo3D6VJmxYrMmtlSAy+jp9rfoTmZY3jhYDayvoknMS3Og8fOPHke/Hqa9/Lh6nPhu5pgXRs6WqPE5fsM+7+mIDOMqKUSxzcvJEWYRPoXyyood0Dh02Np+XfYbL3r8MlU3rcOykY3HRDheRBIWpi9Gn4N8/vIGfjj8wxXoDacImgN2oHcwfG/VvJj9qNDz4SzcHkUBc50E49Z0AwRoeIbChxpb2cOq7ssp0c6e/ddmNG5uXZy3D2c9/jZw2YNqoPnjuzN10MHZjE4W0vqnFsbP83BxHtEn3CYlzd3x9k47Fxs8HnZdMgI22GxmfRLyxsBQ9VDH12i6HjaHGr535IZadcTYijY3IysvD5HlzrEyubgMj5iiLvEo09sXVxfGI3eW334qKvz0Fp97R2oq2lhbnK4uyOo586AGVhdLcAa5YnAKf8rcbg01CzSBrX3MRwrUDmxgsKfZQriYBNuqh2hNvvLAJpsVAqT59GrK6+kzQVl8uVQ3o/+uYzgPB8oSkOa5Fs0hSPPAcNPWHy4ZUV/e5WRPDwKa/eKvZl0MHbV5G5Ee/KwWRz1Z9gle+f8n5BadufTrG9hmnXywMNt+Uz0NV4wZM7D8ZfYv66T1RlWLovGYKtjZXOdWn6SBrXtZab858VOFR7SCuyg//Mv3sZKmWIckuGdGoKLFJt9047SxBsaFUXcy7ijOcxkKyqGYCNsLM5YSMigzqcMUluq+WrsOpT36B2qZWXHHAZByz82j1HXvYzYfflePXj3+OwtxsXHngZByz0+gOthsx4ayNy3QjiY5m9Vy+diZcVMYbFzbcI9spdiPtLFC8SR826596CvULvkPxPnuh54wZsbE7ZT5FOdk2IFJfi/ovvkDesOGomz0La+6+F3mDB2HY9dehYOpU6xCrDnvxYnH6sPG1M97XfLDRT0tBUzf3B8LS/a4++1oH2k1WJBJxhgJoPoBqfOrBZNOQLhPQoFO08S52wIvjimyiIsbB6HrRDCLiFA8U6hSoviTSyJGd8qeTEnk5U6PS8Ylq9fazq5iirqbud7UM0Jgn8czHro8lqlHv2hppxdUfXI7/K33dKQecsuUpOGe7s0VhpqOx4cYbjkhEc+36XjsCG5UYoPp92u3Gz86k3Wwa2HyzssrpQZgyrMRRanR81sMHr3llHp74+EdEABy21VD86dhtzflJ1z473qfYbvhkk9540zXtpktiwye05iY0LvrBUYHMGz7SJ3bzBFvwWNyl7Ubsazpq+vpg+rHRY45ujvx2cerz1Vw0GfnyxuujiOELCKStIObEA61PWoshVnfCC5uoPO0jcx7BA3MeQFF2IX6/42X42YSfG80KIjPROfQUYBM98Pxt3uO488u7MbnvZNy9990Y0mOISgXojZjS7qJzOXWc+sGwkVfXlGkxbCR2kww2fHyPRNShKyc7C00tEbw0axmWr63DflsNcw4FUVZo2w64C1z3/Tt/WFpZhyMe+NjRlTh3n81x4m5jDKdDR9oNpcjCazEYqnXGJny88cZGcx+0x6dosojmxYiq21srxsmbOJiz36ovwPZZO40YL3ZzucXc9uLo4vj6VGZgk3q9gY3HbtKFTVZbNMrwuKGTFjFDKOp2acZguD6k2SFj1msqQpUVIMPm2p36OVEnVk0NOl2hsjdmrj5mvYsdTfmsXG+PuVm1LF3+oN/iGq2KqX1xLSwENnVNtXhx0Yvom1eC3UfuiZLCPlYWRr9rirCpbarFFR9ejv8se9fB8Lbdb8MB4w6kNGznYsOMZDpDo/ncheaHTmR3HbvRvTpWqtjU00wpiTIWHj4VDhtZ+jE+tbqqEc98vgytbW04eodRWFhWhTOemo2a5hbsPm4A7jlmW/QvVgqNQXxqWWUt6hpbsfnQkqR9Khw2XuONVD5wcv90iIlrN97YpDre8LO0J950Y+PnI6IHK5BPbbx2o7dCVz06pq9A9mgk2Nd0qSQZn4q6YWAtBmogEyVCSsjbW745VHAvgpe2ginrqzMCd4mq8RK3FoNTGuDRLAJP97LpMgSPQDlPEGy9PqzY6/V0hkjHq3Dvo1PhgY1cLypLugFSZZLah00rInh87l9w75d/Rs/8Hrhjjzuw8/DpurWCsVSQKbrOwNjIUTgf7LlM1CnYcGGKzxYJ7MbPzroONjQ9TXbz9Cel+P0r8xyrPHyr4Th82gic+dRsbKhvwe4TB+JPR2+DvkV56jsPiM25T83G92tr8cfDt8GU4cXUFNUV7EZi46U7IeLNJmA3klfG9KrYpEBGkyMcNiqTwQ193rE7XT7FbSXtiTe+2MjSqxQE1JcY6omhDTDZ2N3VsFFaDA7idOOh1JZsWlP2oAzDsArHWx+fU1/3HzDYNBZidaSIbIFc7x4jMRLhdFcy/EuqK1dsima0VT2781Ye66139cOGIEs1NuqpjNNy3TUeNgsrF6BHbg+MKBmlDgD0f5PDxvzyjsfG2JnJdprvNRls6BRr7GAjweapj0tx5SvznG/70KlDcffx2+GDhWvw5twy/Hzb4Zg2vh8df0WXVxyfmrWkEkc89JFjffm52fjuhgM41ROQBz45u7G0GJL2qQy0G0tvoBsbKxZ3RWycczYn24P5VFKxOMOwEURJVn6Htik+b3mRB/mtp3u2TJOIUxhdS3TiU9/LU7Fe7/t0eNHHAEu/2TwNb/5aW4EbseKsN7uuJogRpyZ3m7igqxMMkAHeVZ1X42PZ1NKEd5a+jcUblmB079E4eNzBKsfh9fkdgY3uHHfbjTjxMPrWMyZ+V/udwq1Xq+Ng2eHY8CGQT6euvFwAbMrW1+PZ2cudasWR247AsH6Fzhv+WFGD52avwN6TBmG7kVH9CNdn66+CDl6ETdn6Bhx674coq23CpAE98e+LZqhvqgtiI8NNt934xAOXHQSJN6Fid7fdZFAsFvHGCYTB441RcxS1f1srQdUFnbqersdL1kMz9melgAwNgbcWAxmQnkKIWU9FBE1sou/8nloMzCRFdwnu09O88VyS4A6IpNb7aTcQNuq8kTw2bZE2PL/wGYwuGYtpw3bWXb163+WeEPoeStcvwVn/OROlNcswsfcE3LXXXRjZe4yuaMS8qw9vfFfARgUnocnBo7dx7Iw1O2pbWvFxZRXWN7fgiOEDHW+JxYYJdyhFHU93Qlf2dT9ofDtLgd2QacX4oN7ECZtpN76Nipom9CvKx6yrf+K7XuuZ8FE9Kwuf/bAWi9bU4KdbDsGAXvmu5jgmL6N4QL1KJtSIQyFLRLs0PzztrAOxcWJjCLtRh8pY3QlDDc2NhrHYkInE2lkXx8bywW5stH/FxKcQ2PjZmRn05cN8J8QbtxaD4xJJcKNLvQHdIy05rnVOQh1dtQ62HnI0Fe2Yzds69IjbI0XHIOsTcqPrawd9GdbGoxr+0oYN/a7jXz0GX1XOdZ7kL/s+gp2GTzccBx7vuqjye5zwj+OxuKwUO201Dfftd69zQLC4zp3/EgbmgWVXwIZzQsnYzX0/luHGJavQCuDPE0fiyGEDhNWlDht1QJQH6Y6xG8ZmeWU9Drr7A1Q1taAoPxvfXn+ATvMF8ZGwdpOQU1/4VGdjI1uvZR3aMwinIN50Jjb+Gh6UEHJrMfDNr4NiceZjw2P63hpDnFrb2HzKy25MBkHKJ7NjUzHc8DyrTVzdBChty62XKjYKZnWrem44E4heV3+QLrfbU876v0Kup64s06mke2rUqI66PfIhgx5apsYF57WeuYjBRl+NBA99+7H5+Ys/w6LqJc7h6Z4Zd2GvMftaXeiqpmX4J+aunodjnz0GK5eXYe9t98JDhz7kECu5GSr0N0FcEOZaaX9n+iSr+yDozsclmE7ERtOOajszo3qi68LTzi5b8CP+WlbpmNw5IwbiigkjuBNBr49rN7qan2a7IUIf5xDEW3tIn3r16xU444nPsO2IPnjgpJ0wrF+PmHeVWOoJJjHt4Laz9mEjyS910czItdsjAtbBTVR86dJC8u5JYiN663x9pLOxURlgopH2wkZww+hY3NqKxnlzkD9xMrILoqWm8LF4o8UmBT61KWMjeBAo7WrpE9jMiHo2VyUBaJ+RM7LBOKt5o1aZBG8udXVhpzoEr5Ec104qn48qUmhDjs3oe6c1bujLcS0Z13SI1iR1zvMY7YYQ2HCDSwIe+KrGKvz6jRMwse8k3LDHjcjNyqVyive7zlo9G79+89eIlib2HLkn/rzPfYrCdCPERqXYTc0+jN0sqqnH7775ESNzsvHANuNRmJNjNiJZ79dlhU60G7VDkJ0F54FnbB5893vc+uYCZOdk44hthuG2X26r31X5bHp86h8fL8Vd73yP4qIc3H741th+TF9DUc0Mj+31KQub4FoMQewmeWxULExK+8Uz3iTi1OcDlxkXX3HuWah5/2P03HoqRjz2OJVFiF2UaKdlrJTv2lHYWA17MrPEF0C3Lk6KsHHe1cduVLnEX8MjPDZi4ofbxX1jsbGbjMZGTjEE4XEWRU0KAHZfnmlksY75pkari5b0B6eMZ1iyLK59FtRyzgEubQWpxUDTCCa7QXzegmxETXvRQULzEHCySHRB8wgBO73KjQbiuA6FjfO5PvzfXMAkbNoQweyy2Xhryb9w7JTjMLb3eOdS19hcj8fmP4avyr/GtdOvwdCew1yqmJQ+pwuprgG7sezC2OjsKPUocLe0NcHBfPKWYmhAbAR9sbcdiLEv55cnsjOdMqMIQYVxdQKK41N0Kk9gN399fwmuf/1bx4ImDO6Fdy7Yg1Itqk5ukRBpylLjg1EuhB/W1KA50oYpQ0tQkM8iYB4+RdjU1DfjvGe+wtsL1jjB+M/HbIuDth6mJ5/USK/QN0m5TwXDRk8C6V2Dv4tg2GgtBmumnDGNF5+8OPKN3bQHm7oP3kfpb0/TW+6Uhd+aY5iMtQHjjbr5cew2TRuJ7CYTsVGplICxO0Asbjc2vB/R3Vdh2jl2ExSbrLaI8lz3vm3+xlTsxLt4rDeBjz/LrDeHAefBLAOM87vpsuO1ng6F5rN09HMdJsStReoD2PO84kviEoo+eXY+NmvrK3DimyeitKoUW/efilv3uBUjiqMjjd5YZiQ29KyxdhYbz8LaTZj17cFGHyclU5h0ejY933fVnmHEyOPaWXhsVq1vwAP/XYSKmkacuOsYTBvbX2f6zAZp7Oaufy/EsvX1+N2e47HZ4GK89MUy3PrmQjS2RnDu3pvhpN3GUU1RNOWQqzOWzZEI7nxrIR74YDF65efi/mO3xR6bR5tBzS1Xn/E7ERtx7lZlUpEF9cJGrrfthrMw5oBvutVcgx+6WiT5A1IUbwBEaqqw5OhjHcriPoccjGF33C4inlfs1h4oAlv7YnfHY+M6lOuiN/HUBPKpbmz8Y7HBJlaLgVMjVmKAmzbopO4cLNOrxaC+c0UklFCLQcfdcHoDcsBbVH3pcKXu25Z2Qydhs7xmJfZ/fj8nhg0sGoA/zbgbUwdu040NdxBwMyxR1HprfpiygZ40sezGx86ob0PaQabbTfRGqrJy0XITMWp6YPPEB0tw3evfOGtzsrOx6KYDccbfZ+Ff81Yhgiwcvd0I3Hrk1v52JrCJRIDPSytRUpiHiUOLnfgQzKdUC60863LjoPoH9a/ueOO33okXce1AfabWlkm4vjPtJhg2iETQFokgKycbyI6Wz8S9KdS7dhA2KqVkxdbwPhUMmy5nNxmGTXwtBitlKo5lzumbOcIFHz/rDVDdS1kApXKJpMX+JxkaeFySjwM+/N88z05NEDKsi4ypi7vc1CrkTLzzZKKJ0aRgZW3DR2+gA7FpiTTjpUUv45OyT7DbkOk4bOLhxMJoGvXocTTXY9JaDIRvV8GGm2HEfWCTxOaMp2bhjbmrcMl+k3DGjPFmZkhociyvrMOcFVWOnPPWI3vj4+8rcP5zXzuxedKgYrx1/h4O0dKd//kORbk5OHOvzfCTLYYIER1v/YCu6FOmiUpkdSxRHHrXFMQbbl8O5lOJtBhIelwV1uky4xGLdUBgvYHwsdjKIntgY451AWO3E1btWJwZ2HDSxa1TYUae3e+akdhoW5X7syx7BtjDXXZjMgh0GyBpRz0ax8d7bqzWHbbRmXrapJWpSj59KbFABk+dtTwZ4AR03a1Ns8bcSU3vYZ6Fzvzu9fp2RL39mgWSus1j1tOp1eNdlfOaYr26vPivlynJ9mMTbW5RgUq3XYbAJsqHsKpmhZNV6JXfU/NE6NsU9Rjw92S9q57X7YrY+NmZPVESY2fyVr2RYDPmstedGBZVbXzxtF2w5YjeQuakzRFz+uNbC/HIzFJkA7j+0C1w4NSheGPOKixdW4cjdxiBcYOLnbhXWlGN/JwcLK2oxZC+RRgzsJeZ/NkofCrD7CaAD3ZcvEk1Nn6xO2C86cZGxXM9ZSQneZijI4X7lJ6cod4apcXA25J6DDEbQCdUOgDIXgU6dNnpf/WXavNXB9yEnNUB1jupfqr7qkRErHYDb3oqfgXUYuDPjLM+WWwoMSrSrOnB5sNl/8N5712Axkgjfjf1dJyx3Zk6K5J+LYbk7KajsNm47IYbmrx96uf3vI9vymqw/+TBuPeE7WN8sLGlBVe9PB/PzVrmePjVh0zBSbuMJR8FPlpUjlmLK/GTqUMwaWhvPPvFUlz8wlz0zMvGg8dtjz0mDQymbxLSp4ySi4kkln6Aq81Gjx7zpY9zlNz1nkjfJFC8sSeUOjTe0A3bXBe4IMLZAu9YLH3KyqrS2GTqYnHnYWPFM86eiAJ0ELtJJzbc305Vgg7dp9KFTXwtBioBMr+B1mLQtUGXloE+NJARy+7HANoK+pTMHUQ+WglO4Kd+gCB6A5IoiKe8dHI+kBYDHXukTkWGYHPPrLvx6Py/OCWfg0btj1v2ur192CTAPlanInOxcfeHtdtuOhAbu44sSkk+PlW+oQHfrNiAGZMHW7oT0qdml1birx8uQU5ONk7dYxy2GN7b+eAV6+sx447/ork1gqElRfjw0r1xdrRkMb/M8bTf7DYW1xwyhU+4mu9Ee7nO0lM5MYRPBdJicMWbsNj42UGHxZsk7aYbG5OZ1pUJuoJ2Y5NGbETZneSeuT6l6gBGlEKQnHBDkuWdPB6kFaNJydbwmfL8Ld3rKbPAvQe6BYkmSAwBkcrw0/3C7OpkHkRtqksc1EjkWm+qi9QU4zy7eVc152o/u5qI816fCmycphkKeKnAZnVdGS7/36X4dv13uHKny3HA+EMCYdm52PjZWfuxWdvUgueXl+OjmnqcP3owtundU981dWNaKLvhG1u67SaRD7YfmygQNQ2tjgv0LFDNbEvKa3HZ07Pw+puzUDSoP3oMGYDSmw/Ci18sxTWvfYOWNuBvJ07DjuP6cWjWB1A1ERfrs6n3qY7Bxive8M3c711VKwA3MtLABx3iEmKjO0XaE2/Sg41q0LZtXr4r3Y8oTextB93YJLNP+fiUbpiX3Q/pt5tYLQZuKiQLUDZCiRm978fyFvAhPwjXeRBOfUX7aHOd6zoM/xI9ZcRNOnSDcT97qnjjMwQb7bgBdCqC8Mab9iVdILLpmfUeYGaK+YBhEqA+2HvoVOi8ttNAp3LEqbKbF1euxQWLlqOxtQ2HDOiNe7cYg4Ls7KQ59TMFG3VgFgShugvczPJbPcLSB6ip2MtuHvtgCf7w+jeoWl6GQbnAzefsj59vP1w0IfvrDXQ0NnrW3mU3jg1aFNccn9qHTaB4I3xQx8pOiDfd2PjvU52CDU3f8ais2kbFPtVV7MZPi8FLW0GU/cRWyeOOOpFnhmpjSg5WktddRdSrPTmuxT1Q1uf4JBujNyDWy6Gf2PU+n2YFY5tT3193QmdhxQbr7tIwW6v9LF0HG8sOqOHPOfdq1jBeQYcGiSU3tApSbvN57cfmHysq8PtFK9AQacPxg/vilkkjkZ8dbctjmmRjp+ZI4z0ylYzdZCY2domC83dRJN6YsxIXPz8H1U0t+NWOo3HDL6bqMcBU+1TmY8M+aI8Jqudmu+EqtjgQx4wV2p0Stp15x5t2YSN90DUUbu6b7tikjz9Cu8VEJJcHO/8pqa/Np3UwNjJ+BIk3mzA28TQ5zIWDrdN7n8qKRNqUsFsMZzXfFvl07tJWoPVOcwRv7Z688bTds8ph0PXcZ+CsF7XNGG0Fl1IElUIch6YJH5toyTQ4qqYSugfF6A2Im+1Gj42h2DNjn97YSCwz0W6iyo3/XbsBC6vrceDgvpjUq4cyhaTtJnOxqW5oxnOfLUVpRR1OnTEeI/r28NFDsX0ketv++sd1mDy8BBEAHy+qQEV1I/aaPAgDehVS2U3wnAgflD7lrOAyncVdE+tTvnaju6YzKd7Q9hfAbph63R1vksVG1W/UGJeWbtdMrq5YzJm3mFgssLTUW1IRi32wMZ1PLj0UOvSLWJwQG3JYQ3Us7pxpw4bKQ+3apzIPGy6p87CA4f8we77Zw2PtpotoMYThuE6FFoPrBqDHR5PUYnBKM+nSqejGxluTg/sczN1H95Z0FQ0PYTdevPFvzy/Db5/8AjltwMFbDcM9x21HEzzx9U2e+LAU17w237mLPX/adOwwtq/puwmFjelk6XB9kwTYmAlsI9KmplqCaL+kwqeSxcZPiyGM9ksbWirXovLhh5E7A8H1YgAAIABJREFUaBBKfn4Ycvv315mhTR0bQ8Xgp8WgYkYQLQZbMyh9dsMXWSUXoDYkN4Ggtw8msBsnAeS1rxE2TolBFoJlrsvKOInEZML1pglRM2TJAiolrEwXsfuz6SFk1YKLOY7ftXe9yHnr93XTd1LqLOG7MkhB13djI2lpJfzme+XsBWEr5Gh1ytSyA7neyveaq0cbMHt9DYpysjC2ZxEKnbJDWDvrTLsRdkZcBC/OXu4QHWW3AQdtPRT3HRsVZuJZZJediXe9+oW5eOLzpc7PnbHHOFx84OQu7lOx2OjGFtvAyHz8sTFGQRt8quINZTStz2fKbiabEdkUfx8JFm+Wn3kmqt551/l1Qy+5EH1PPtkQHAj+GrrzuuyGMkCa88Lfp1ISizsYG7n9cJu8Jg3pxkZUpaIHakuLwcUXzqke5kaQN2muXMmyMTmT5kLU8ZTqdrL4KQ4f+iOsP3hsEoKLSZUH2HDpg3048tkgVFetqMfGrHfxc8db36nYcLeo2EA7CJv2YSmmkFNoN76c+qL78YWVFbhqSZlTrrpszBCcMGIgGZD3YURvIYJ8TNeSfeymo7FZXdWI5z9fhg21zThlr/EYWFxgn58ArKlqxIcL1+AX06IS18puXvhiGe54ayFW1TTitF3H4otl63D5gVMcBUZPn9Ivpk7sXQEb1ZjmOgDKPd9q+hT/IN/VtT4UNnyPCRBvUm83bSi78ipUPvcCGpua0G+PXTHq8b8Z9V1fbOLoE7Q3dku76XBs3IJqqnYUbp9KIzY2x6DhEJIEhLr0pA5vevYuRHwS1Svx/vGx8dBiSMBx7eTomBtdjWTEkiUly3Xuzxtvt5aJUUTZZ2DRgfJZXVm2ky5yaSv483/LkTJ1SpCtSXRuoF9g3lXlL7uxiWkD5FtYJ2Jz1rc/4rmydY4NnDK0P26YNJJGctUBQQzG6O81vN142xl30bjtRjV2UrRMKTZqG19b24yf3fMBVmyox/6Th+COo7dBz/xcS1tBMTCqnfC1s3bDFsNLFBZ8gAuoh8I+kipOfTc2i8trUdXQjJF9i9C/uND5jqSdBddWUNgEX0/xg0efMxAbpTdgohRjU3bjDVh8759RUlyC/ocfhqG33JwZOhUCy7TZjZpLpQ6MWGw4cxLcDjYiuwmBje5BUDUXtbnJk7L5O/eIm+gKFzd5uV43SOhGGdF4wykALY9r5qlNS5XpBVBxlJxV12HMoJXUhtBpM2c5hRHDqEQHBsWJoP+aRipj15NhbFTY0PWpg7ExThlrB+m2m1sWLsMNXyzAmCH9ceyoQajPzsKh/Xtj+z69lB3weVKdCjrcbtKBzZoN9djx5miauQ1DSgrx5Ek7YkJUSIneNvqWu930DpZXNTq//v2L9sToAb1kR1js4T/N2KjYI/uI4BBA/faJz7GiqhHTx/bDP0+dTm4qY1ac+CEzjeLzfeMTIxAn3vAhI/V2wxea2FjshU08u1n3xBNYddOtzpKiLbfE2Beepe/TO3bLz28/NnYfF5G/CB4ajt3sbkFicQJsqFHSqdNrf07dPqVPzrJPxzUdlWifUnbTdbCJr8UgalCGgl19SZqCWPBEmzqOF583N3CYm31wLYb42gqmiVeZBalExGo9xNFWUF+sGGWiIKVsgdI6Cd6VnaAbG+GeGtLOsBvljt9V1+O3c5fgu5p6ZGfB4UWoy87C7r174v4pYzCoMH+jtJuG1jZc+dJcPD9rGX6x9TDc8cttkRUFgI4/UWwWrqjG61+vxNaj+2CfLYZo/ZFM8ql/zVmJM57+Siepl9xycADtl/bEG24q9o4HnYKN7k+QrQTxfaq1ohzLzzsftV/MwtinnkTRDtvTgERYbMx6neD2iZVdBRu9C/H9kS/IxN5r7guJNIM2bmyy/LQYrAuVnj3lzkkqSPHtXy7mBB7X7zKMG53VxPSBQHdDy7FIpnIWByFxLEo3NsuqluKxuX/BzsN2wW4jd0ePnCJVPvbA0gn2Gmv1HzzSF1aLIRXYxHCdU8VaMO07GSr7lC8SfonsRoCfSPODsflkQw1OmLMYG1pbkd/cikgW0JKbi11798BDW4zBoPx8Q0/s1vzgbUmn2lmRTmwiOu0c327ah43KoLW2tWFZpTrojOrfg5hPZbo9BJYpshu3nam9zF8PReqbeGoxxMQb4LhHPsG6umact+8E/DR6kLHsIL5OhXXLDxmf/LRfnF/vsM46f0idTkUiLQYPbJRD+flU18EmEZZWfNJZMBFZNOcB71Pqu+nGhknWTLlMdxMlsBujxUBepFMkdFsWFThtmiYt72J3M7UJGsUQzXTkSBbjmUy2cKcZnT3U9+9iSKOgoP6JSh4iG+y9Xm5NwpH5FuUi8aHuBu935TJHGGxEV6x+tTjvuqauDFfPvAozV32MHrk98Pj+j2FKvymCatA0ZtpYKnA6DhuDJbmh+c71Xc9Qqyi7Mpl7I6yiTVU9fyA7EEm6AOuj3AiPLSvHt7X12KGkpzP7//WGWuw7sA8OGNQHedl8+OLNlYK+DEJahEhhbLEaqt2CVlO/iu5Qp4qd+IFAPuVjN+9/V46b3liAhuVLMbF/IX7202k4cPvRuundSmAKbEoratGnRx769MyzWQeT8ilzILEOAoF8yrYbBZ1xQj9sor3Ua6oaMLh3kaB3Ng2T3nbT3vjk41PG0fyx1AcRunikERvOp4fzqW5s1NfIp2TpCF0XG1lN03YRE58CxmLn4BuJsFYkRccwWgx8itY9lfG1GFg30qV/wB1iXtzlzvbRJbUYksNmbUMFzn73bMypmOt8H38/8ClsPWBrT8779mDDFzDNDeDgLOuC6dSpSA4bt0aI5GdOxBsfURcJpzSmS1Caqjue5gfZdidjwxoeV744B4+8OBMVb7yMNmSjZPvdUPnW5cjOEZu2rrOrg8sfXpmPv322FGP6FeGpU6ZjcIkiQ5L/081a+mDC9d6ug41qQrZtWFUIw8WnbmzowJtAi0Efi51+QNMDos584XV0Uq/hISzcU2PIR98kwT7lZ2epsRtvLDsLG0uLge5GJonlHlMkvC1ORTr9O+GEmb1UTsfcaly88Yq6kU7nWt/BzTNPju7mrBYdyDw+a25NaguQz6IzDa7WK7u/1Ty713rTtenx+a4pjlRg8+biN/D20new1cCtcPTEo1GQU+jCMgQ29P1YtLnal2O1FcJiaZq1QmKj+6470W66EDacHfvvt2twxg3/xMI3Xgfye6DPiNGo+PxOZOdE0yC2TzU2R/Dg63Nw20Ovoya7ECUTxuF3e2+OKw6ZojTmXf7NlymVIVH/2BXsJiZzmO540wWwaVm+AuV334ncvn3R5/gTkD96NCVrbJ2KlMfiLoCNZfdp0PBQCWY53cZZR+FTAbQYOjMWa59qa4vercyp2wyE8CZEM6MWR4xYr09mfutdxC20Xm7QqkykDFfPL/MNR9b5+DmjfyfXm6/DzLaKP6nRK7v+YsYW9TSsbt2S6xkbvn2KaVjVLeSwUJnDjYVlJmDjGCLXxk31l//UpbGhjSxpu8lUbCjHsa62Gf83ezm+XL4BJ+w8CtuP6YfWSBv+PftH/Prqf6J59Wpcd/6hOOf4vXTOUKdMATz9USlOu+1V1P6wGG111Zi47ww8cckB2HFcfyEJbfzW7YMZaTfWYLWhwTY+GCDebOR2E/Xt5eedh6p/veUcCgafexb6n3GGim+61meyeFYsTiU2enxYxNjOisUpthtvLGVpUtmmr091FWzcWgyevMxiFlpnCcJyVodd76PFYG45ggdef/lm4sD5AolCUs+8sHNQoUYd9Piw471e6g2EwUadZTpWpyIRNjZvvKQS5fSKzsNTL8Omio096aiDapJ2kyyn/mtfrcDFL81FfVMLdt9sAO4/fnv0KsyjfgdFhRr9X1Nr9HtrQ15OtjOlwKwd/5m7Ckde9zKqVqxGj+IeuOWyw3Dm3ptR+pcyPvIrltoKwqf89AaotElCF2r/CetTyWLjXCkow+FSmlBFpA6KN6nGhrlUeIaf06H6XX1isR1v2rDm1ptR8cRTzlc08ORfY8BFl1h2o+JaMvEpObtxSeRY/B9B7SZV2KTUbnzsLEwszmRsbC0G2RjoOKA3j7OqMfGt2TQSclc5qT/peqAUiKCWUtH9S923+gPpji672oTQjjmjcTtGEutlfUyMMBqOa3tONeZdOTjRTI+e4ecSTIqxiYLtrTegbgSqH05kSNqDZQZjE44bvetj88KsZbjilXloamrF/lsMxR2/3Bo9C3Kt9OWcZetw2XNfO1wGVx00GUfuOFLrDdQ3tuC+fy/A4gVLsdu0zXDQtDHo21ONdG5MduOlU+FOI3PTc3wtBl1D7QSfcpqA1Her096SI19y8CeITzRFsu7hR9CWm4u+Rx+N7B49LLvRaXBB99zp2KhRLXXw49iq+5pjsfHWJwiGjWqYTpUWQwfYTWdhY2kx6KK+2uGsbJRjv6wGJhspzGnB7OlS5U1UMQWnvq6v0A9ppzCXWGt2S6f2PdbrVhSaxDAVIJNS4xKBblAwDQyULRLzrg4NJxkaNzR0Y0MF7kzEhtN5ZDLx7ICDr+zRywC7sRtnlE9VN7bggXcXoaahFYdsOwzbj+6LrGw1ZskdH0/O/BFXvzbfObAfts0w3HnMtjQtYpT/VKrTGxvHyjPcp7ywseKTHDMV2Eg9A+94E99uMhcbwxKYLmzUuHRXtJtubOSYlb2Hh8eGtBhMRd4SV+I0va8Wg+RxNmnq1HBcc/rf6n7UXEyU7OCcJt2KdFu6bgrQ+0AIzmq+YfGUAKcwu7GhnVRjmYl24x6tNbdlvqOZ3ZKsI0UaHp1hN0sravGL+z9CU2sEF+67OU7cbawvz7yum2ogOgsbbvt1ab9YDHVa9diHNz7V8SZD7KatFS0bNgAtrcguLEJ2r56m81Q0RDMhkdEUSGcsThIb7RD2KDPdNU0Z36SzRGratHs72SCyWd0KHUhHxyM+0XaSUVoMZMp80dW8Ntxyn1btl/h2Q0RJCn2TtCeb1Fdz+loEEYV7vbmE8ZasRkiydBOf+G9N9srfFk2Re643MwQ6N0rVNJVG1HcjXfYwf6OtgQ7a3MFLg25iVt1+fsORr/6+GxuDfQdiQ1kcbUch7KY+0oryxmaM7FGAbNGEK7nXOUUlqRTcdqzHQClCOTfReHZDQTHtdiOwWV5Zh/LqRkweVoKi/BwdbhLxzH+zfD1ysrIxemAP5+e6EjbmjOMRb9phN068SmBn6bSb5sU/YOlvT0PTipUo3n1XDLvrTmQXl+g2Kn20ihOL5fnPvZ4zo8n4VGdjkwqfCo5N4n2HS8tBsUyn3aQLG63mqGpfPloMXBsjjms+xVlpeN2/oGo70RpSbDOISdtz3dzps3JpK/hqMVBwVr0RdAwghyYOUYtnntfoGr3soNW/V5L3CFIl0X+RFDY+WHYdbAxjoHPMivZBMHFQmrBROiDtt5vFtY04+ZtS1LdGcMGIgThqxADDOBjQbpbUNeL7mnpM61uMvnm5ZgpGmx135HUtbNhn35yzCje/8S2a2tpw6m7j8OvdxiJbd1bxiJZISeoLO3k/973E+FTXtRsdz/hd3fFGZDiSizc+2IjhgoY5X2LZmeeiubwcBaNHYvTfn0LuIKU8qrIGVIsnHRkZRxPr6MjZrRTH4g7ARk+iBdmnRG+W776WonjjbTfevXXttRtV8aZYLIdSeEovxdikSYtBBXm+e7NhC2kHlQNw83nryQVq15Gf4bRA8P2OPl9rK3CFQfzOuOuNk1n5AX0ZMQEy9VoMXRwbatBUjZNmCkR+316aHMF0KlKDzbMrKnDW98udzEH0m1w9Y1vKhQWzmxV1TTj4q0Uoa2jCnn174a9Tx6FnbpRnIIHdpAmb6GhjdUMzinvkITsrCy2tEVRsqMe7C8oxpE8R9p4yWL9fUJ+65Y1v8eD7PzgbzoFTBuPe47YjLgU3b1ryPqXqn34+64GlCBDmx5RTZry+STTINTQhq6BApc4TaLn4YRNZW4EVl1yGhoUL0ffII9H/jN8hOz9PCDAE12LgBDBj6XgDHTISx2KVN+VShhXP43yvYdd7+VRn2I3q2lV2ljw2NK7vY/NdERubKInJG8ylmqtIFmGKrijF49Tn44Ho6GfuctETRp8vaGpl6ow4EOR6FS7EXL/VhaG+3JSuZwQ6EZv65jq8/P1LKMotwv7jDkBV4wYM7jE09e8aFssMwEZvX8Ju5lfV4aS5S1Da1IxjBvfDn6aMFjMe/lwbbDdfrqvB8fOWoLylBUNyc/G/nSejb67JInjZcYxdphCbxz9cgn9/U4aDthyC/bcahsdnluLpFz7G8qx8FPbpjX+eujN2Ht9fFwSVh8T3qZnfleOGV7/BqppGXLDPBJyw6xhH38GPhyRdPqWbDcXT6zqzKO1xAPfW8DBFQDlx1JHxpvZ//0PVm2+haKup6H3M0XTPNw2gyhyCx6fG+fNRsMWWpl1GHwHFu+o4nUBvgFtau3os5vhE2V+7lCz6WrqQ3ehDXKr2tRRjo3oQaFdV6QszocCdv+q2T2MhzHzM/Woe61W1gazRlAhdIzwqiOmhlMDrOTXGY5h0XKGUZ6w+QTwtBh6ZkE003pz66cBmZfVKPDbnEQzqORi/nHwMivN7a8pSic1fv3oY9869H5G6VhSjDwr7FeD66ddh+vBdXRz8HYENY2XrWki7ITOiLBHbjUu7wdPOEmgx0OxaELtZ1dCM+kgbhhbkoTCHjxFcwjA3W5OiNcyfDZEILp9filfX1eDm8cNw2LD+yKEpFr15kT9Y78olGCneQxFAawXIDgHtU/7YfFdWjYPu+wDNLREU5ebg2gMm4vy/fYyKeYtR0K8YfbfYDH8/cSfsMXEATR4F86nWSASVtU1obI1gUHEBCnJzqLwTHxtzEPK2A6dbJwQ2VqwIiY2JT7bdNC34FkvPPR+FY0dh2J8fUJkRZyorGDY8bOVer6op3vFm4bSd0FpVheyCAgy/7SYU73+gLVilG86UPwSxm3RgQ/c2E4tD+FQ8HZ142AR71xTZDV9M3T6Y5niTfmxESVMfJvx80OIhsC5HlBcy4mK+e77yqfBaDIKfm9tQw3Kdy/WqzEe0r2SsKsIkx+fN873yOuXHM69O9DZPO7PyqToPOzOdcvzWU+pZ8sCbG4M/D/y1H1+LF75/wVl66pa/xTnbnWc9D2Nz8bvn461lb2PNDxUoKi5Er0G9cOqU3+CcHS5IEae+ORQy9p2NjcWpT6N4abUb57vm06yynnj6BCnlRrd8im+axm62u+EdrK1pRM+cbJSvKMeG70pROKgfJg/vg5122QJ/OmZbILoHAnhnXhmuf+0bZ8P/x6nTMbA4P0ZjQ9l18HcNvV58tjn3q8NZOnyKdSqcbywrCwt33gWt69Y53+HoB+5Dj733NllFEW94fbviDWG56Cf7oWnpModvYMQdt6Ln3vt66xN0IDYtq9dgwwvPo6W8AgPOPhs5/fpZDayK98DYmYzFqcQmSCy2lGqt+2WSduN8L+I3h9FiSBBvNiVsXERJdD8irzYDAlyT9xAVFCMaotoY0wds/o2+NEFP7NU37F5vP4vOO+hkqsUZb2U53J8em4rS8VId2UU3N20UYlpCc9Tr/Fby2Px59r14aO4jiCCCX006HhfvdBnvTFZmYMn6xfjLnEdRvq4cH5TPRE5eDq7e8QocOfkYdV62nqXrY8OvI1OIejtLud1oyD2wNExzfAtKZGf6jKuDXDt9qg34dPFazF9VhaUr1uOvny1FQ8U6tLZGsOih4x3iI4nNxU9/iefnrHSs+LoDp+DEPcbRYcfEyw8XlmPsoF4Y3kfJiLtyecKnMggb63tXzyXtXk4alR79S9R9OcdZM/afT6Fw2+1UZpSznh5zCl7xpq2xEY0Lv0WkthY9dtlVBy455cDYt5SWovyBB1H/xecoOeJI9DvuWOSUlASOT+2yGx9sKh99GGV33OU8d98jfoGhN95olSw636fEGKKmenPHM5cPho3FIexGJru7sWECQqHFoEo8fKuOuowX1zk1pllaCW6ubers9q1pKvg58auykrYWgz7Z6vKHPOn6c1zrUZK4WgyyeEKNKTolZd6ZwpAVQM1xo/3YNLQ04ok5j6JHXk/8ZNz+GOL0FXhj0xxpQmtbBPXN9c6a4rxeyM+mhihdb6bbZyAs7e+Xb8wmEcsHKSlfnB5sotMCn1dWY9s+vTCpuCiOJofAhlO9cTQ8nGaxLoaNvw/CoVw+6v6P8HVZFe775Xb42bZDaQdXPhv9XzSDcMrfZzt/fu60nTFtbD+rr+D6l+fhH7NXYNLAXnjylJ1QXd+MS56fgz4FubjwgMkYO7CHXu/tg51nN8HiUxYi1TWoffcd5Awdih7TdrJ9KoTdVD3zLFbdejvQFsGgs85Av5NP9sWmtaYaqy65FFXvvoes7GwMvuwS9PvVCVh6ym+R228AhtxwPbLz1GFOk2HzBIicBJFqown1A0ws9sJmzS23oOKxvzm20P+YIzH42uvJqe2MqI7FIbDRl/M4egPcJOUVM028MT7akdjE6uj46VTwGVqk8332tdTHmwzAxq3FoC4UKgh4c1bThEFYrvN2radbGI3X6bqxnm9Xzyuf3XlKXy0GIWXsflfZ5chtFNR+2o2N6ABNETbVLS34yazvsbi+AWPz8/DGtInoF+3apgOeF6d+BG34tHw93q6sxn5D+mHHPr181ku7se2Zjz+J7MaxLBV9tTiXpx10gN2Ura9HTnYWBpYU+OoNtKINsxavRV5uDrYd3Ue28zqjqjPueA9L1tYhp60Nz5y2Cz5ZvBZ/fGehs4kcuOVQR++ha2CTYi0GKz4pu1lz842oeOLvDja9Dz0Ew267LQYb1mKI1Ndj1RVXYMMbbyG7sABDrrsGNf96A1XvfYCW1hbkTBiPwfvvjz7HHo/cAf112cfQh6uPZt4YJm71isXm+/GLxQqbtuoqrLjoYrSsXIlBF16IHjP2TE6nwgMbdaaJ9SmjBMIlYvZBwx+SyKdYdj40Nvqgpa+eHpoc6bQbfV7vUthwq4DXnq9LDFLm2KRTjT84p0Dnu+Y8nZEKptybzkfyBk7mq3IF8vLJFkK9B6YORreTeOudgG0Ij7gZ0p0ekqp2epOh07m7m1hk6OlR479r2PUaH0s3IcC7WjVCs359wzp8WzEf04fvxhHCND51ODYWb5BJYRJIieymsqkZ+8/+Dkvrm52f/XKXKRhWENUL0B9gaYJEv+9Hl6zCbR/OwfLsbIwdMxSvbTsBY3sWxLczP7uhX2PQNYWNZO1Gd9p7kZQJ50qEjbSbN+atwkPv/4C+BXm45IBJmDK8N95bsAavzl0VbT/AxftNwiDuN/CxmyikD72/GNERx0lDi/Hs6dPx6lcrccVL89AK4JRdR+Oqn22pG4w1ZQR/G2ZEwATeuD5lAOB3TQc2XCZJdbypnzULKy69DIWTNsfAs85CweQpcbFp+O47rHv8MfScsReK99gdq2++BZXPPIfKdZXILyhAXl4eeh9yEMbe/SczIsxZLj0RRvTP9lncesWgdtNaWYnlZ56J2i+/Qo9ttsHw229F3shR6Y/Fbp9Kmd2kDpuYQBUn3lBKU/RrBIjdQeNNhmOjDgjO7iq/VXU95IsT/2uMFoOfPoG+uUs+b1kMUhMITrKNfkkQLYaw67VSXCBthRRrMaQJm8qGSlz2v4vx6ZovsMPgHfCX/f5iurNDYJlJ2MytqsU9i1Zi5769cPyowcjPidqFh4aHc2MBhvznS5TP+d6x2RGjhuLFvbfDDn2Kjc+L5iTdid5FsYk+9rrqJpz1j1n479fL0LiuCreftAt+85MpuPSZr/DsVyscHB49bgfsMzXKh2D7lJtTP/p5za0RZ6QxJycLG+pa8K+vVqKipgG/22dz5EYnPrih3NQBnbOKThUzljyD5Bs/OsqnTJYnnt0kwkY2tTl244DVgqycLLRl5/LF1tfOHJ9qjQDR9VHAopMiDz6AyrffQdP8BfhxaSl69+mHMT8/GMMefMhwRASKT6av1Plsty6OR7xpXlKKRQccqJQ+Bw/CyPvuQcHUrUXzpEqPecXiZLUY9PHa5YOZFG/0vpZIw6ODsLHskrv3MsSn/LUYxPXF0lYg44zRJ9BnDFFxEnO3er5aBh1zSVTFAjmny6UOYWj8SDpbYF3luR5nfZDVwEVnEnJwcb2TpzjqjUjIdW6HTE0oklpudJHsJWwWVi7A4a8e4fz2ET2H4+4Zd2HSgCnysun82W7g2riwOWzWd3ivdBV61dbjxulb4oTNRlBiy2VQVmpLYUlfm1if+dg0tbbihue/wh0PvOmQJM3YZxu8fMUBOPcfX+LtBWuc7/rvJ++IXTcfqGvMUX97/P3FeOD9xZgytBh/+PmWGNm/pwHB5VddFZt0cOo3zPkKq2+5BfULv8fgiy5En2OOhqOSFSA+WThSrGstX4Mfrr0OZc8+hz69+yA3JwdTFn6rTDESQcOcr9G8uhy9dtoJ2X1KuLhmp+aSiDeR+lpU/Pl+1HzwIQonTcLgy3+PnD69TU9KTCz2jt0mBe2aDJAFlzDYuEblTUojUewWTY1c0tOx2/Xs8fYpLyx1sy4dsLuxcfZkKjEImmVKjTiUwPIqYTKvaqKXJx10KoWOY7IdmPs+qNkmelSlqgKlzJzhVN3zwLPKmtJXUCnYz0IpHpptjrdez+fSjsk3Az0aRX/Pn+9e79ybmL6yvdiw0Vn7mNGF8MTGKbdwRqcNlfWVuOC9CzBrzSwcPHp/XD79apQUFOPOz/+IZbUrcM42Z2Fs73F67ntjxGZtYzM+3lCLAbk5TtZhU7Cbd+aswOmPfIja5ghGjxiAdy7eG+XVDXju8+WYOrI3dp8wEL0Kc6XCEba7/t+orGtCBMAtP5uKY3cZ7dIrEakC6sUJgmUm+JR6kmwWAAAgAElEQVSmZ3f5lDoBhvMpt4+se+YZlN1wE9qam9B7330w7K67kOUQZVHDLvNdeMSneNisvORS1H7+OfodeYTDkBgNr43fzMfS089A85pylOz3U4y45+6Q8YazJ8Q1qSfQ1FEl0tCA1tWrkdO/H7KLi9uNjQpdqbMbiT3falIXi32wibevUS08SCxO9z6VPmyox9D5Ml1248ImvBaDqKP7cVynQm/Ak7OavjxukNGNiHoTNSN+Ko1E5kyHFi5nOCd3rqhYJFGUF7HWq9SIL583NUoqDXM+9PuvTxYbq2GUUl9sQE/NfQI3z75d35fn/WquOuoH1KkwGQcVVDoLm2S1GOJhYwIasdiZl6NxVnVI1c6oA6ChXM0Eu4li84+ZpfjjfxfhjsOnYsbkwbwNqmd32V7Uzk54+GPMLF2H3Czgpd/tgi1HRG+P/u8aSN9E+GDydmPszFM/IKRPpcRuBI1Sy/LlWHz0sQ6XwoCTT8KA885z+BUS+lQS2FQ+8Gesvud+VQYYOhQT3vuP9sFMxEZFQz4kdLRPZbbdpAIbSmT4ar+oyoPXPpVibMgHQ2gxcApBnR6doMQbkDAYzuEq7m5KuOlEgegujaPFoH8skRaDnlyg3yrWW2mxGI78BOvFxuqrN0BB2fm+dD6/c7D5ZPlHuPiDS7GuaT2GFg3Gv4+KBhme6th4sGHb8tMb6LJ24xxaEvmU4eBfvb4e62qbHPVG5sj3wqaxJYIopfLwvj0wcWj09kikZOYe6auH4oVlp/hUSGy4gUKVE6kXgFLKYeymZdkyNK9Y4dAdZ/fqRTj7+5S6kJj0qa3F4O+Dbc3NWH3TjaifOxd9fnkU+h51VGLND3nwD2E3yWATWD8gTrxJFhvlFMwzE0f7RcRi61LU4dhQn47bDsJiEzR2pwIb3htj9nC67EbanGESujbKACL2d6Hcpqe5yHGNiIdcb0YOKYuhr6WMnTkpcfOTCpG6A0jc/nW5lG5JvPlZvPFOjHVxncv13CXMHSoJ14vPivuurtN0QixDYEOHD32s0mc0kxlhbD5d8TG+X/89dhiyAyb1n2xz6id8V1Yeo+JgwvVdCxu+XSdlN3TU0lmETsNG2dl3ZTU4/5mvUNvQgoO2HupML8T4VAi76WxsLC0Gvk+EjjfCB9W5wD/eZCA2bbU1aF23HrkjRhDBJQHBjeJ8NdXtMq5u/qDxqUOwsbFPTezmTIUAQmJDf62n56TmRTc2VnbRmuALgE0SWgz+HPyBuc6p2yd2PfcjcDNMNFVvOPJp3IJSqkKLQZ8r7LkySrqI9LH97GF541XmxPQD8FiV0alIJzb0knSOUmWPANiIoJIanQrl8mrUSs1iqbRXx2LT0NqGukgEPbOzUJgT1RFQtzSeB2sfNuJG7/GuHW03j3/4I657bT5u+8VUjBtcjMPv/8h53b0nDcTjJ01TduDrU6m2m/ZhE2lrQ3V9izMt0aMg12yIQivBOcjRzSKInekLDheO3XaQJDaRlhZUPvooyv90L0bcfAN6/exQZEWbFX19qn3YuN9VcV9x9x9TfmUGNr6xuBsbKlZRRpDLwUxC5akZJOyGR5RFbA0bb1JpN4YHweQULZ52zaVOTUy23gDXPr35vDloWdGbb/AUz5UL+GgxiJEtsdx3vZE35N1CJ16tDcyUPnjY2Ge9PP7qqGDWdjlsKGWXEiw7EZvo4eC8+aV4a101fjGgN66bOBK9omJDZMMxioT0wvE0OTidmYnYjL7sda4I4oXTpuOi575GaWUdfrnDCFx6wGT06xHVWwhm852NzYfflePaV+ejX898nLfvBOy62cB2xxsnC0GbqVd8Shab+q/nYOnJpyDKkli0xRbOmGDu0GF2ajXDfSpd2LCfdFWfUpnq9NhNImzUgZ5HOUzEiYulTrl7rE9DLGZs4msx6GehlLbo2uWDrfJL9Q+iAkeMXUK7Qf6sa8zFDKjou6n4LLoYcnrd1mTj+50lR62x16Mr6ljLQk5GGERMY1ifTwcWeiH1eoyB/a66ZScGG1M768bGbQfBsXl11Vps36cXhhVFiZDUXlLV2oqJH8xFlFGxT24unt1qHLbuTRTB+jDQ9e2moqYJT31Uimse+g8KB/TBtMkj8MzvdkF5bSMuf24Oflhbh22Gl+CBX+/gNNGZ0VYu27k9kg/MqcHG8njHv1w+4uFTt77+DR74YIkTn6eN7osXztjFTESJ9WpSKpjd+PsgZ7doUJv92QwSWmTGdF/XdtYQnTA45VS0rK1Ej222xsj77kXOwAHmp1sjqPv0E+RPnITcflF2RI5fphHUZPoSYyM46OJimQnY+L4rE2f5aiu0BxvOmvpj2Y1NarHJamuHFoNKBnhoN/C27ctZbbQQuICaMi0GnZpx60PIgkOSWgwhdCqSxcbSYvDhRk9apyLTsXEmOo0mx2lfLsLL66udgL1ot61QnKfSu42RCH771WLMrmtwWBf/sdVYDCzIpykSQbmdKVoMSdrNK7NX4PcvzUNtXSNG5bXh5cv3w4CSQmeD2vbaf2NdQ5OzA155wGT8doYSZVJ7lCgDCR/MBLt5b0E5Lnr+a7RG2nDDz7bAQdsMNwRM1BARFUhafsFFaPxhMcY+/RSKomJLTCbkiWUI7RcvbCJtaK3egLaGBuT06YesgqhmgrKj+s8+R+PiH9Bz+nTkjR5taTFUPfscVlx1jYP7xC8+RU6xEmcy1J8qOxpG38ReL8cq42u/+MYbl0/JiRxWbO0KdqOOXhLLjQkbvtWQlkDMu/K7y9JuPDtLITYOk6JOAlCaksoJcnzMPCLdQvStWgQkrq/ohChPMvBtgK4I+tcoJ9SkSzzexCUHnhsUNcSg6/nZjWFxOkTW7rmL0c0pToGWv7eYd/XmINe/oRsbfTNrj92M/2AealtanDn+JyaPxgGDo3K1Kv6ubWzCsvomDC/Mx6BCRc2sU3TSbpzG1eB2lkl28+pXK3DxS3PR0NiCg7YahtuP2Mqp20ff9epXvsETH5ViQK98nLTzaLQA2HWzAdhhbD9xK+YreeZg0xJpww+rq7Ghrhk7jlffp1tvoPy221H+18ecvbbkoAMx4s4/UjYhSHyS2U53vFF9Mu54E80QrLzwQmdqofehP8eAM8+ghuf4dvPtpMns8hh2zRXoc+xx6nVcWramHyY23lDnjs6Y2hmHWGzkE/nHG7/4FB6bVPkUFZI9sXEOKMJnjQ9KwnzKzuhMVSZiw+YcLt5kNDZyikHzpFOVTU4aqJMxt8GqEwXP/gvrpgO0GAdSxZbY9SJ/yNkDXifHk4xGjqFqtjjyNYmQ+nL0kUSyI5IOvXpeyiTokUidoNTMZbG88bbuhCsTSreG9GPz9uI38fcFT+Hyna7A5v0nCf2gDsRGYkknyyB2Yzj449kNd6OrL/KtNRvw63lLcGD/Ejyw5VgU5ETZ7Eze2ctu5AVO82XQdx3XbvSB3IWlE4fYbgQ3AvuI5lWgWyyvTwE2Dc2tmPl9Bb4qXYcDtxnm6CewOzU2R7BifT1WVzXilMc/R3Vzq9OL8OXVPyFXjdUr6SrY1H40Eysuvhgta9dh0Fm/w4Czz4kbbzjdrSegQsab+SefiLIXX0Gf3n3Rd/vtMfbF51WcSGA3G559FiuvugZFkzbH6CefRLYj7+zOZtCmTOUNKz4pAg6VNdN2o+Jse3zKPz4lF4utpAhPiLTHp3RWqxubuHZGU3kx+1oH2k0wLQbJWc21Qd1da3oQVJpLnwcUX3gcTn2nGkU/lH4tBqqYqnyJekhh7PrZ2Yf4rBtgvbMkADd6e7CZs+ZLnPPeeQ6T4jYDt8Kf930AJQUUkOh9wmBpc6N3bWxK6xpw+6KVeGt9Nf4wbhiOHjEA2RzAMhkbOoFH0V9f24ybXvwKX66swh1Hb4etR/Wx9VB8eOM/W1yJU578AlX1LSjKy8b8Gw6wfMox8zjaCmF9MJjdiIlluvSrpCDdrQP4VP0Xn6Fp2VL0/sURxJkWx2eT5tQHql98AaUXX4ZVq1YiL78A29xxK/r+6tdoLluFtqYW5I8ejay8HDMx1AZEGhvQvHQpcvv3Q07/AZQ1EO9G8+mmr0w+e/uxobl00+cl41kkgtbqKiA7Bzm9ivWdK2ws7qp2ExcbcZmMicW++xplhMQ+1bnYSH2TcD4lsdGjZ377IBP4tkUidN2n5JsmOtDZM72hKtIMYj3iZJ2cOdU/Yqc0mYWQm/3sFByljkRZQSdG3dTMPp+vt3xrNEQn4FS6kAKVbqQSY3ryTa2GJ493tbIlFBp0Y0wasZlT9iXO+d95WNuwFuNKxuKJ/f+GvkV9zaUpDjY6jStoJigZlhAbfRsJ8K6pxoZzQons5qnlFfj9ouVobAP261uM+7cYg+JoUOeafBfA5qE35uH8e95Edk4Odt51C7x9xX4uOF1lAsqXRbF5e/4q/N9Xq5wSwzE7j6K3dfkgkcbIxj/d/AzgmU+XYkF5DfbefCB231xtehub3TSXlmLt0/9E/pDB6HvSSY6r13/0IUp/cwqaW5pRtMP22PyZZ7DhlVccDYPWmhoM/+Md6Dl9Z2tyqvKxx1D+wEMomjIJA885B1n5eSicupXGPVG8SadP1bz3LtY9/U9k5eej/8m/QdG229qlN2E3jrS0VQ7xi8V2w6i0m5jSXhC7oYDtFYvTiU3s1ubvUxbVst++lsCn/LDhy7Dnu2YYNmKKIZqSpOYmnkrQ6Xgp/mPWyPVMd6rsz+gyKBBoWiD6J9E0oyN4MjzwVl8CP5Ppevbj847RYqDP8ef/5pRh52LT0taC2WWz8PnKT7HD0B0xbdjOzi2ZknSiN4qSmO3kjeexManJ4eaZV/XSKOadgA0FuugzzNpQgxPnlWJtcyuOH9IPf9h8hFOO6ErYHHf7m3juhU+ccvzxB26Dv14Znbnnq3Fin6pvakVBXrYj/cwHK8cohB6KE3s89AN+XFuHA//0AWqbW9AjPxfzr48eTtLpU+23Gz8thnjxZuG0ndFaVeXoKgy75kr0Puqo/2/vuuPkqqr/d3sv2U3ZbDohhRBKCE3pTToqCCKiooD0DioIWFAE6QgqKF1QQIoiSO8EfiAtJCENUjfZ7Gaz2d5nfp9595x7z33z3rSd3Z1Nhn+Myd3Z975zzrn3nvL9Itjbh7YXX0Tn4s9RduJ3kFNdjdrrrsem++53YCw78jBUX38DMkJjtCGfCvRh/UUXY/PzLzr/HsjPQ052jvNzE+/+E7LGjiV+ELY+YlcVI3WRfErGJ/V98dQUlx4ix+KNt9yEuj//1Xm2cb+6ynknjrNRY7HwqVjsRseDQYrF/cVGY6lviyaZnGxsqGakfsEgxOKBwkarOXLwUI4nCWd4LIVrx6IBhjeHSOtFUxB/CXRIItEPw+cdF6e+/hA5MmdGaFRGyFXjEnUE9U9yUEtFT0UhTT7ltT6NjYo3KYbNvI1N6AoEMae8COW52b7aCqavJvl2oxkN48YGDjfAI//9FEX52fjt976CI+ZMEKRPLh9Msk99vHIzjrv7XQT6AijIzcbn1xzqr1MRp0/F5IMRfSq6vgnJzVDd3jQhuuPNFwcfgu41a51tcMLvfoPCrx2KriVLkFVaityJE4C8PMdu2l5/HRtuvAnd69aj/PhvofzrxyB/1iwVFBDA5kcfQ8MDDyLQ1YXWFSuRl5uLrLJShyehcLc9DLNllHgzENhsfvTvqP3d751D0PgbrkfR/geqBl4S33NPAgxELA69l7qt8zRN/LE4Pmy4j0NdjmLVxYnVbtTl0ZSk+7NPxYcNj+EngKVIT6gel8SwUUyKIjkmQpF9i7BuI/qaIlJU5olM0425yzh/ssoRtJ6Zo+gwp/gKqB6g18svSGkfcLOP13qnasTlBnJSs17MVuskrkm0Gc4DffBWj06na4J5cLHRzc8ZeGfNG5hcPgXjSyY6NtvY0YDW7lZMLJtkNYg6z+uB5RaFDY2iqQRUcu1GxQRpZwNjN6Fn/7ymGeMqCvDp6s0YUZiLGdWlyA01ZIoiCZf3VmxsQ2VxHkoLQtMMof9kp7fwqTixefzDNXhl4QbsPX0kvrvn5DAflHYzWNiYW2y0eGNKn3ba1sama9EiND72OLLHjcOIr38dzc8/jw0334qckZUYecH5KDvqaNoHguhevhwrTv4+ejc1InfsaEy4807kzZ6tNopQD8K6GgRa21B3y61onfcuivfcFdU33ozskaNisxsRnzjeyWePGG8oPtrvSr3wPd1oefU1ZObmoPiAA03/Rlh5MTl2E08sDrcb5bP8rupbtmN3MrERxxX1m0TJPJLd8I1Rc1n6xhvhsjHsa5F9anCwkXbmFW8yBlqLwWStXLd5s+tqhxL5UItLXde8fLUY6NuOqMXgwecdy3qdWkm+TkW82Bz/zPFY1rgMU0sm457D7kNDVwPOe+U8rG+vxVmzf4zT55xFQ1aysWbrwMaUq4ydpbrdrKxrxeG3vYk+ZOBnh87EqftMpnN0Bja1duO7d72LisIcXHnMbGw3rhSXP/oxnvx0PbYdVYx/nv1VFOaG2CPtyQqKtgn5lNOOlEFlCm7gjcVH1GnUHFiYoJT+WjdHeXDkJ1uLIZpPBQMBOHWYzk7UXHQxml97w/mRUeecjVHnnWfIWAEsmmHGGCfedjOKDuMGUONTgb5eoK8PGVlZyMjKRvOT/0TtjTdj7C9/geJDD7W1FeLFMslaDNGwUXcKwSOizp/Jj8V8qI3XbuT6NDb6MKVKPcIHk4hNmBaDP4+zoCUW3R7mFGboQFQa102dqF7AYjGU93L1QUayjnLBkdabmjjfMNxaDOJ85MVxzaCS8qR7xjh2bvSBx2ZJw2Kc9eo5qG+vd5z45W+9hNdXv47fvP9b5+X3G78f7jjoDk+dCj6Zy+hnc6lTYJBNnsMIm+FqNy9/tgGnPfyh8/XsWFWCZy7cV99sQoyDd768BM1r1mPPCaWYO2cqHnxtMVBehuy8PHz6i6+hrDAnzKdCWgcr6ttQPaIABdmZ2qc2tnahuaMHpYU5qCzKM0x9Lh/st09J39d0QyJD59LwiCfeaJMUdV2dfBVjiSbx4h9vgr292PyPR9H4+OPIzMvD6MsuQeFupGtBNdbGBx/A5qf/jeyxYx0WxUjY9G6oxaYnn0TNHXcip7sXeVVjMOWpJ5BdGaKSFncz/ZxCW0Gn4l1aMX4+qOOviXfJxIau1v2Oxf56KB7xJsxuVNQyZYrkYSN6/80+xftrDPtOMuLNcMHGZBC4ril5BfQosC0MJG8LfBCQtmzZNTXaMI2ocl6SYSVCIUPGQVsZsempaEk3d7qgOMcQ0WJqp43o9kg/x6puXuudkOX1rszvYCd4iUGNG05074kI0OKQwkd1j89PFJuuvk7c+dHtuH/RQ/jquK/gpv1uxucNC3HJG5dgU9dmnDzjJPxsj8sjY0M3OIqveracAypjOdywMRS1PPvPX56YXolmN0OATW1TF3507/tYWNuCH351En759e31jPDf31uFs299Aa2ra4FgH0qnTETX5mYndXz8N/bEnSfvgnxilpQ+dfsLS/DcwlpUlxfg3h/uzqP8OP5P89DU0eMcKh4/4yuCh16l5yP61BBgIwMoxxtfuxT3EbXPeNiBjgmmcz3Y1Ym+ug2Obzs9CHqTILvp7UHvhg1OSYLHosPiDWHTeNefseb3N6J23XqUlJdh7B57YOL99yGrvFzFCDcFsdZgMhwrJs1N6+OIxcnGZtB9yrQUc1+f4b7oZyweEmy0FLOZqDf7pr2vRd2nhhIbN5Oi2qzj1xvgTnbKEwgtBjlKQhCJZkC5nj00zJkEv4JyNnOy9HQ+j/XxaTFwTZsPLIrpK40N5R2kiqR1yOuf3fA9S4418mFGHaxME+lwshs19hYfNl1dvbj8vnfwyIdr0dnQhKz8XJSOr8Kpe03BlV+fpYfptYAhYTPlZ886N92QTsVvjtoe39trChava8LX/vA2MoMqu/7l9UeqI6zekYbOpxLBJnJ8ij3eaDvrC5UdMp2pEV0oYWyCQQR6upERQi47GyExRx2fAkEEqLyw8eYbUf+X+9Dd3Y2Crx2AiWefh4KddgrPmuoJMdEI7hizUGZNovZLoj7lNVochk2CsTg+DQ+JjY8WA9/NeCNNSMMjAbsRI6JbKjYxajG42MHoqO34kC6AUBugbr4xnPqKDVHUtnQruUoiOVmCkNvFwxtv0efyMYFKFJKURXegqq/Q7uINvZcRcaJ8rMWlzn/H76reI8K7urCJuj4MGza1NDbSbpa1dGJsQS6KQ2lznaHZUuxGtgYbfZNnP1mHs297CbXLViN/RAlyy0px2L6zcOXR22NmVanLp5TdfO+e9/HWso1O78LT5+yFiZVKxOrku9/D8vpWTBtdjL+dtie5Hfkk+2CSfcpM2du88ZZPWXJJImWuNTm8sYnog3H4VMtrr6PlmWdQfMD+KAn1DOTkWdi0vPgy1l50MTLz8zDmp5eh7IRva82P+ut/j82vv4b8nedg9Eknof6OO5BRVIKqSy5C9riQ6iOcscq2d+ahr6MDZQcfhIySMopz7jjiFZ+8OPV1d524KNEBL0adCjsW9yfe2Gq+6qYeHuv97MAvFse2fpCxoVb+2Pep5GLD5eHYsaEhKNcEhj2+GoPdWBkEulawvrymmHXPcYp0nbrYkbs6zIlcEmBeBQ8yCk5Zcqc1ZS1YqtWUHMh4+TPlej0/wek4uhIRp0JUTn3fd+VDhD6W6pKcIxjjvKsZ+QybcU0CNpp1LiYsuXnSdFCYN9gysLltdS2eXL8J2xbm46qp1ZgcqqGnEjZ07zSVdpF56odP3f/OClx+39to+GwpAm1NKNt+FkZsOxHXfnM2TthtIqVi2UdUH0xjexcW1DSjJC8bO00oJ46KIBpae7B+cweqy/Px6ZrNuPedlThmx2p8a/fxdNxVh149DiWl1vvjUwOEjfJBYokkvgj/+MGjy3Z86lm5AqtPPxPda9agr7AA4y66ACX77Y+ciaEJIYVH7ZW/cPoUQv+VH3U4qm+6icqNwMfbbIONdfUIIIBZ1/8O1d8/BZkF+UBOrp6PavjTHx1SpUBXN6qv/jnKTjrZxA9PbDjGqHiWWLyxsWm89160vPUOSg86AOUnnghkZVtTKoMRb2jGwlunwstHEsKG8yWmEKQykHT40rG7f3YTyc50Qy55Uyw+ldLYhGkxUGpNZB/1PDb3A3ATop8Wg4pcsrE5fi0G2mcHT2+A5rvVWYU2W+ZJEH0J+rncf5D86RF0KgYDm3dq3sLlb1+Bzt4uPHLEw9i2YrpOKaugGklvwJ7WUJkTsgY3NtRQ0R/eeCs76GE3q9s7ceqClVjQ2om+DODhHabgkJFlVtaJkjaGO1+mz93vKnngXSnlwcKms7sP3/jDW+jtDeCZi/ZFvsPboG6G7FM9gQBeWlCLS+9+Hcs/Woq+pk2OT22z9x64+/yDcMD2VTHqm5h+DL5MbPPTZx0ss4LAc+fvje3GlVkqmlZvjjh3p5Ld+MUn7hUI04oRTdN8C+xa9DnWnH8BOletwob6eoysqETxtGmYdP+9yK6qcuypY948rLnkMqfMUH399Sg98ADdQ/XetGloXL0WodrN9H32x7YvPq9MUSiS1v3ql2h45FHn70sPPwzjb71F3fwH0KckNr3ra7DiuyejZ12t8wzT33kL2ZWVto6OBzaWT8kEEE81JE2LYXDjTTLsxtShOEsgynX9jTeWTsXQY+OjxaAz/94a8+GdduG88RT5tT05p0RzK7c2BtP2QIGflor1OrWivMucRF0ZMv5ctyFY/58XWZ8va7Ky61icBPjQYxEp0W3RzTNvi7tTUDC4Mhw8vNEfbPTTEjY/ff0yPLvqBWdnOGH6Cbh6z6st7BPCRnx1Npbm8MDNjvQY+nda353ukDSdZXK9ruXRP2/u6cFVS9fi8frNmJCXi/t2mIIdSgrNK/Ov99EbcGOjb/nJtJs4sbn2Xwtxy2PvobOxGeeesCeuO+Ur3Jzj+NEXG1px/7wVzu1/74mleGLecjz66iJk5WRjypQq3HvGPqiqLELt5g5MqCzCiKKQmiXboVsPJVyLYfffvIT6lm7nB545b2/MHlc2cD4VJzamL8J0F6mAbA61sjFac+qLeGMCuB1vLDsjuwmxKG5+7XVsePop5AeCyB0zxiE8yt8xRJ2sHL2nZg0Cra3IC6k3CrtpW7IIq6+8Glk9Pag67VSUHn2MbW4huegPP0TDvfc5Y5BVV12JrFGjzN4rQstA+VRfcxPWnnUW2j782CFzmvr8f5E9oiIsFnth46fhMWg+5XVZlR3V8t81gP21G2FncfiUsTT7oWPad3ztQBq18O9BsBtdiggEAiqb5tJWsPdzUSbgxhRddghPyeuOAG5gI8ZFr8YXub1yOkgfaIn8xk7dKg/lhkHdpOX8JVE5W2cRWk9p0ljeVTVO0W8ZRth8tP5/2GXsXLyw4gX8+t1fo72vA7/b67c4dJvDhzU2dV09qOnqRkl2FqYU5CFLjMTIcpSyGyMtPlB2429nsdnNC/PX4+iz/oLQTP7kXbfDwxcdhN2mVGLh2mYsXt+Ee//zEd784AuUThmPb84Zj5P3n4HfPvc55q9vxrRRRfj9sTviF/9ZhIaWLuxYXYo//2BXixXU36fU832wYqOj3XDMnHHYfUpIcjl5PtVfbMKefRDiTaCnB433P4D6P9yJUWeejhGn/BCZhYVie+B4w83K9E8BoG/TRoRGJnOqxtrrRbzpa2l1NuTMohLqP5D7s9pCBjLedK9di4535iFn4gQU7La7w7IYXyyOxadc2ESKxbqkbPadZNuN843J2C0KaHIzjz1+qP0g9vXSp4YvNgOjxcD1BcED73Rxay0G1v/mr4qu5vFwVtONQuQSPHnmzewyOaLqiNQbCd9MBk2LQWCj3j6CTgX9Oz+jbFCxBT+CuPvTuzRNUlYAACAASURBVHD7J3c4TaNPHfMENrRtQGVBJWaODHW8e3PwDxg2hLHVv8qz3k76lWqE/GcVHS0Nj2RiY/pUE7AzuqJK3ggO5pF1Knw0PAibqec8iua2ToyaNAYvXLAfqsrzMf2K59DV2o76N95CoKQS6GhD6dTJ2G7XmbjooGno7unDV7YdibWNHfjxwx+iq7sPOdlZWHzNYU4wpLK5uHa4eeDNuDJ7Qypis3XbjY9ORRw+ZetUGF2c4e5Tjg96ab9sBdgwRVAsGkMq3sen4RGuU6HsJsNScwwbxZJ9BJRYYp5tSulKPQO62rMdUjLIzPSqAQcxSSzSdcz3rHtTPfm8TewzWUf5+ba2AjM263SJK48WVjsX+W21VChXpjg2V795OZ5a8YzzJd15wO3Yd+KBejRT8X9HxsY084h+EXEnCsdyCLFRh3llblQmGki7GQhsvnb9y/hkcQ1mbTcRT527F0IshnN/+xK6W9rQMH8JCqpGo7tuA0bsOAs5RQX4yaEzcfYB2zqvvXpjK37570V4b0UDjpo9FtefsDMyLTKe4YFN1+efo/mVV5EzbizKv3ksJw/s+CHiQPioqEd84oyDHoiwmQuGu93wnYHjE8fUNDb23iA1D5KJjZkCiGFfI5/UmXHi3kmZWOw5fm37VL+0GFSMtrZ8OiOobmGVSfLiyOfGKY4J3F3MZQIT/SVNK1M0KG1z2hx0GYLHw9Tu4a/FYDiu9Zr+8n87FiD6FjTGg4fNXZ/+GXd8cqcz+vbU0U9i24ppWp9ABROm5O0fNg729tdHMdfqfzdZi3iwoebQ4Wo38WAz5afP0kYYxH0/2B37bzcK//xgDf7x3kqMzwEqx1bi/c9W49U3F2BkeREe+e3xjpwzY9Pc0Y3Gjh5UFOaipCCHmhxNbc0JXy4f4ROV26dUFmFgfcoLm6V774ve+o3IzM/H1Kf+iZxtpiZoN6pAGq/d+K2X8WOosJGxNSxLGsWnfNfHEYv9sfTQxRnAWCzthvVWBgQbWZa2KMHDfSomOxtknxoobBSTIl/Hnf1Znbh1/562B/UHw/JJSUp9g5O3OsF5wB9GJQbB0qwaEokTQf9W7uqIYT3P3aodyzyP+9nZ4Q1nNV9BxfvQX6nnE++aMDZ+2g1pbNTNX9iZyAZo5bQodqNHs6wrVQx2wLXIWO2MbV5nu/ztLB67Oeuh/+HjNZudccQXL91fTzEsr2vFaQ9+iDWb2jAyC1jfE0QmMnDZ4TNwzv5TbfpbH5sfNGwsTv34fWrxLnMRaO9AZlEhpj75BHImT9YxwcJS5UzpfBO/3eh4xpcWGpe2TvXR4ke8dtNPbJRZS0ElFV/D4lMaG515SmNjSrUc3ujGnrDdUInBbs/XRBqydu1q8nN3slKCh8oK1NRCfQKm9Ve2/5uMosMsoJW1zHykOQBwwwf/FvU56tYg1hMfAylX0LOIBiP389A78WlI7xncRENOKt81+diYwKoe2NRd1POkIjZu7G1SEI5ZajxdfT/cMBSf3WwJ2KismGU3gKOLsKKuDVVl+U7/Ac8FP/juKlz19ELHtrvbO5CTn4ec3Gz8+pjt8Z3dJwmbHzpsKPXh6YPqxM/lJ5NV081dwgebn3oaHZ99hoI5O6P06KM5ltF5f3jaTbKwMdkeJrMSWA5Tn0pVbFR84mulPkUOaixOOjY65vbTbjQPQiQthlAdkBsMKfob1sNwfQLTH0CHAC9udHPYUSlqa4rJkCypUzMXc2jWwkOLIYyeORauc90lIX5/vFoMQ4DN/LqP8Xn9Iuw+7iuYMiJ0q2TzCufUD29WocMVZV24HmZOnJygpJuy/G6GATZMYhKL3aQiNi8t2IBLHv8ETR29OGRaBXaaNBK7TK7A3CkjkJedpbUVPPUGovoUHbBj8KlBwSb0vL09yMjOcXy84//eQ/fSJSg/+ftxxRt5IFV/jqDJYdWFveNTtHgzKNhE0oqJIxansVEXRE/dHXEBTobdOBmfBGKxynB566EktK9Rv5y1r8a5T2m7cWsx6K560dTGZxDBp0EbOo99yBOYudnIURoFAu9lpg6uVsuBNI8NShLfJMj/nSjXuXEw2jDDmhX576kJX2+oA4NNbdsGnPvy2Vi8eSm2LZuKPx78J1QXVVNNiKgzdYEoiO6+XmzubHDQH1U0xomIbg7+qDoVnLjhA1XYSPogYiMIIwbDbqLyxgtslENG5tRvautGS3sXnvqoBjVNXfjBXpMxK0RUJOzmwxWNOPw3zyJ/ZAWOmDVGjTFa2JNtuX1qmGAT7O5Cx8LPkV1S7LAWIicHLS++iLXnX+igWfn9kzHm5z93gm1vzVqs+/31aH/tTUy88w8o3GsvrZugoRfYdH7wPladcSYyMrNQdeXlKP3GNx3fMN/j4MSbZNuNoWzpT7yh+Cv1U8K5DS2FgbANKgmxeCixsZvqo2DpwsbdZTbg2EiBL499J5Z4E4vdRNrztZqjOhWTtgIn+1gGWfAR6I0+bL2pjxmObVMv5JDGtMwUS0XDm15BsFAzHJcNxAmDa02GXJh72LmtXTIFqijqrKAGCNPh6l5vj4Hxr1SsbKmBzaqmVfj+f092FBzHFVXjtv1vxczKWc47Lm1YjPq2Ouw8di7+sfjvKMoqRGFuMf659DFkZWTh/DnnY86YXTTjoKxpamz0AWz4YUMk2DpFrZ2D/sA5kVjsZiCwqW3qcPgMFi5YhY+X16Fk0liMG1GEeVccRM+sfPDpD9bioifmO/EokAGsvu4IoSEyAD5ljh+CzNzfp/yw6Vm92lE/zJu1veIRsOIHbU69vWh6/HHU3nATcqvHOuRBhbvvgRAl8Ybb/uBEnuL99sPEu//kPMuGBx7AossuQ05fEOMOOwQTb70N2SOJbCgD6KupQda4cVrRYcNvr8WmBx9yPqfs0ENQfcutyMhU+h3c/xTJDmR8skuP3vFJl1RUkLH6BOLzKdP8Jzvw7fSqESviwoNKBLpj9yDF4ljtxgsbAldZGd9vzBiyc4zTXAqpgI25uHrFj6TaTQphI3gQ6Euy+L9tVjY9v65vO3T/F19kLBz57DiqedBbu0Hdcilf46XFoOfpXXoD1D8w8FoMUbChq7o08mRg097Tgfs/uxf3LLoXv9j9Shy17TecALhw42e4+LWLUddZj2l5U7GkcxkQCKKzqQt5ZXlODfxHs0/FxbtcSCOP3NfhuluJPo5wHnhK15mrm49ORRzYOIE7Ng2PgbUbDu7qmKEsO7nYvL+iASfc/R56NjejcdkqFIyqRH5FCeb96mhMGlWkS/d9wQC+86d38f6azY7uwkm7kzaAy+ZVWY6e1XQPa59q7+rFw++sxLG7jUdlST5ljhLxqejYtL39DtacfyFC2YHR55yDyjPPIDpfnvBRWIYYCWsuvNDRBgj9N/rSS1B52mnoXVfj/H37/AWY+vQTyJ25nVMX/vzww7DyjTedMdBpJ56Ibf9wGzKKSxHYUItVp5+BnroNGPvLq1Fy2OHO+ra33sSa8y5AoKMT1b+9BuXfOk5fDAYm3kTHRm8entoKsdpZPD5ltBhU2ttfFycWn5J2pkt3EXR0osVueavdsrARk2IUPxwuAT4oS30T2kNZ84M6buwcYFyxOJqGB3PhmLFf3SrkueeT3cgphlg49UUR1Obz5k3D1Whnju2GZ55atjWVKXOj05ySztVbhCmivsHrdW2JTqh8ElWP4Kc3QIcaNy+AuRaRx6uDC094pDo2b9S8iTOePQPrPqhB2+oOVO5QgTE7jMGE/HFoDDShKLsAP97xTBw/84RwbISKpnNyHybYyGY4dQ2JwI3u8HZIxVCyFjGe6mk3ScQmRHD0y399hk/XNCG7sRGfr2pAYfVI7Dt7PO44aRdUFOXgoXmrcP0LS5CbnYkHfrg7dppYLjKbvLnzbdXfp0I/dMhNb2DZxjbn+37zJwdiQkWhFjjSkz+MWZzY9NTUoHPRIkfSOHvUaGz4/fVouO8BJwqVH3k4xt58s3PQ6lr+BdpefQ0Fe+yO/O2VTPXmh/6GxqeecrIMoy+7FIVz54pbpL5OOu+95seno/6lV5A5ZjSm/fWvKNphByfSbLznXtT9/gaVcfjqnhh3263IKil1fjgkwtTb0ID8XXe1yml6akE0USbDbtRp0hVv4rAbS/uFak0xxxuP9fr8bq7mlL6JzW5EhbJ/PqUDsh82dLiNEG9SFxtXxsj9rtHizTDBJiMYUMPn0pasDVx0CAjeII/1Ot+k/834DH06xTfbACP8bl7PHYzuj9EPrY9jlOYTBiluu5K3XY/T8Ygks/txXdfwACURG8GFqB+xn9jQcTxUejj1oVPx6j9fRUZpJrLysvCz8y/B92efgvqOjSjKKsK0iukoyM63RI0Ynv5hI2ajzbdvtAEjYsl2kzg28dgZJXZ0z4adex4Iu7GxqW/uxsqGVqcJ8eLHPkFTZy/2mFyBP353F5TkZ+Pchz/Cy5/XIS8nE9ccsz2OD6k2Cu2ReN518s/+o3lKHv7h7thrxijd0Orlg/Fgs/K449GxYAEK58zB2CuvQNt789D83PPoWrUGVVf8DGXHHoue2lqsu/xytL37f8gJaRz89S/InzYNwa4O9GzY4OgT5IybIL4LdY/izE33l1+g5YUXkFFcgoLZ26Ngzi46WHR8/LGTKQhpDYw65yxU/uhUIDuH7i+x+VQ8WMaDjdun1P+X/AEedhbmI8PHp2hSPSGfGhJs6PtgO4vHDuztIjY7szcQLt1aaXjuM3eeTOqR9Mtu9Iu5YqvzS7z2XXPLZ2wywrQYODUiuRAEBzVHGIfz3qpYip04Ls5qutHTE4dSpjSSLIh+7FSv+gmigiQmUXUjik+LwZA6kG2zIzsXAnvMSr4r4UsvzM2I9IU7F9nBx2ZV00qc+fcf46V/v4LscbnYe8aeePnSV2PD0uNdhys2cWkx6FM8k2d52FkSsFGdzco2Ob364cpN+MEtL2NTdwBv/epIbDOqOFQRwvX/XYx73v4SI0vy8cSZX8X4ioIwO2Mf8X9XZYsvLqjDWY98iF3Hl+IfZ+0Vn05FBGy6Fi7AF8ed4Nyau7q7kZerxKJGn3MGKs+7UL9kz7Jljlpi15crnEPp5EcedkYabY58LujYPti9/AssPyokfhRE+TFHovqGG6144+eDsWKTGKc+ZaAGyW5MscvGRt/oaFtxx5uUx0bEbuoOMw0irn3HsWTPWOxtN2lsTOtkvPuU1/rIWgzOqZdT7eKIqxtjiD1PjBSqI5BLnjFMb4D7l2RKQXIa0E3C2vDpWfSdiMcrTaVYTllE5KxmfgE6rRmCDbJTmwxe1PC8OK55hMbAK6k9Zf3PpDPtdw3XqaCUpQJT3T4034M3Nle9eYVDtdy0djOqC6pxw3E3YJ9J+xqeS/oIFdv4e6XGSy+9gS0IG3pdwsJtN1H0CQQ23B7IVbSodoMglta24r63V6CsMBtn7z/N+d/Q85x63wd4ZWmd82389eS5OHh2leZPv//NL9HY2YvtxpZg3+kjUZSbPaA+pU4gxs7EfUM0itl2s/GWW9H61lvOAWHTRx+jKxBASW4eZr/wX2SVlSHQ2oKcsdVonTcPra+94ZQXRhz/LWTkhzgfVJ4g2NWNYFsbMkeMILEpZZfdK1diyWmnYfXbb6GkpBxjpk7B9Pfe04JUMfsUpa7NRSr+eJMINoqhlT3NtBPGZjf2JJLXSKWkgFcbqLJpbliUo76+sTiNjb9PbQHYyEbi2PZwm1qA7cZkEOiUZhju7PSJ5rx35inV2JDzJ82Ip2kRVQCgq5KaHqD1+u8okciLeAaUNi8uZUi2PSdoudfzuA6dXeSzK2c05Bdqtpnmoz3e1VqvZ6X915t6pnjXIcTmjx/dgT99dpfzzr/c82ocO+N4pcWQStjQJMjWZDfnPPQ/PLtoAwIA7jl5Lg6ZXeVsgtc8sxD3zFvp+NJz5+6FWePLnO9u5cZWnHPfe/hsUxcKsjPxn/P2xrTRJRF8ir1xcH0q2NPtNAiuvehiLHnpZdQ0N2PayEpM3HsfZJYUo3d9LUqPPgqjzj3PZECED/asWoWaK69GsLMTVT/9CQp2navznq1vvokVp52Ghk2bESjIw6xLL0bVBRclEG+GBhvu44k53ugZ+ATiTcI+5YeNV+y2mU8HNRansRGss7T3xrGv+e5TMdoNaTFw7Y9SoVYlkPpvqLHHKvuHdXqrWKAMiPw9CfzfqvtY5WdV+WEweeOHBzYtPc14a/Ub2NzZiJO2/x5NX9m6E8qukqnFMDywGUq7+fkTn+HhD9YgOzMDt5+wM47Yudrxkab2Hry2sBaTRxdjp0nlzu2vrrkLu177CjZ9uhi5I0pRPrEa/71wX8yoKlGHcjrtxaNvot49XA/F8XTto0CwrwfB5hYgOwuZJWUk9BVdw+OLw49E06JFWF9bg/KKkSgvH4Fgbx8yMzOdvoFx11+HzIpKZBYVIDMvT18uNvziajT843EHi1Gn/xCV552PzJxch+Mg1PxYc9FF6NlQj9KjjkL1b35FccXEJzp16L8fSGwGNd5Q9sFs37Irwz8Wq9yILJFxLB5Yu0ljo27DYohoaPapJNiN5JXheCO0GGhrj0WLwbFGSqGJuir/rTJVkYHgzo7Q38r1g6TFwM/CKT7ZwW0deLy4zjkraWU59KUonOM6jY2OTCYFT9/7FoxNbzCARTVNqCzKQ3VFobP5zltej588MR/Nnb04Z7+pOOOAbSNic8vzi3Hr61+gY+MmZLS24YKT98VZB26LEUW57G12d1EM+gFWN1KE9fXXXY+N992PnDGjMfGPdyJv9uyI+ibsUyEio7W/+R1WPv4YSoqLUX3C8ehcugwdi5dg9DlnoevLL9H0/IuoOOlEjL74EmQUKWw2P/wQ1l1zLbJKS1D2tYPQ19qO8m9+E4X77oeQNGWIUbGvvh4Fe+2tJ4mcqOKKNyISDRg21PFEjHyii9knniUr3sSkxRDBp9LY+O9TiWGT2L4Wq2aQr91EsjMvrZhYNDxcdqP2bPMfF8hcWgx8GhL831y75kYR65O8Ofh53MxxrAhaCeZAEZu2Aj++F6+781kRtRjonVzPw2ph6ud5qofKEc67Um3WWeDi1I+Ijd96puN0YeOekaUjGAf4aLoTwx2bVe1dmFSYT1Slww+bq56cj5eXbERBbhZeu2Q/1Ld24/v3vIdFtS0ORfJbPzkAY0rz1I3Xx25W1rfh5L/+H9Y0deDW43bAkXPGO+OOan1y7Gb5hjZsO7rY4pkPPdPnO+7s9ASE/qu67CJUnHY6PSvdSplvQXcrGJ+tv/km1N31V+cQU/HNb2DUBeehd+NGBJubUfPTy9GzsQGFO+/ojCLmjKlSIkQd7c5Bonv5MtTd/gf01NYhY0Q5xl54Por22gvZ4yeadmkrcnn5YGLYxBKfVIyKLT7xZSPS+lSLN26NEDkKmszYPTTYRIvdke0mZbGxfDB8X4ttn4oNG82kaBJZfHaQvXGUfCBHNVznphmRDyRaNsG0JyTEja6abkyTJM+BeHFWW408THMjGieTpjcg7nGmb3DwsXHrDcxb8xZu+vBG7DZ2D1y06yXIy8xz/JybljSWQ4iNsg8h2kS75PK2TpzwyXLUdvfi0slVuHByVegCSZtTIpz6ZPiDrDcQkm923jEDuOVbO2HnSeU45f7/YVVDG0rysvDqpQdgZEme6Dc1duOHjfQpxz8tGuf4sGnt6sXPnpiP/8xfh6kji/HgqXugulxNSDh8BQsXYNUZZyMjJwfTXg9Nv1AzZ3MTMgoKHTpky+a5kQtA/fXXoeGBvyHY14eyo45E8R67OY2GRQcehPpbb0XXsi9QcsjBGHPFz5BRWAT09qL9nXfQ/t67yMjJxqYnnkZ3XT02NmzEyMqRyJ84AeNvvw3522+vMPWwm2Ri4256tLQYaMSUE6JhPiXsTN0lDI+IyU4aFj6+g/phqUw/ynoPLQad16bbo2kP65/dDDtshF2y3fhrMaSxiYoNazHo3KcmLQ1POIgMhL7f8piKXf1ydyqYXEG86yWlqHxG+1n4871HX+zkiblrx/4s8vNtfj0xTSoeiesSPO44MFgyNif++1tY2LjYORDcsNd1OGzbo1zwiENf2BiRfLbBwMbG8paVG3DdilrnFx9ZUYI7tp+MouysfmM52HZz4d8/wserNmPWuFKcf9B0/OGVZVi6oQWH7zgWO48vx34zRyGbKH9js+Pk2tm6zR048a53sWZTB8aU5ePuk+dixxAJE21IIV/o/mI5sioqkDWiwvnbpn8/g+Z/PY2ivfdG+QknILOoyFrPX1Lvxno0/evf6GttQ/7UbbDuql8g0N6O4n32wtgrrkBf4ybkTN0WWeXq93UvW4ZVp/8YPetrkV1ejlHnnYWOFavR+NxzyNjUiMz8fIy76QaUHHxwmB33NWxCz7oa5O+wo8tG3HacmA962406RoXHv1SJN4MTn9LY+O9rWyo2GYFAkBr8Vbu7u/OfNQycjnhyEnOKJu4BDhuseWCrKZBkMc8QC6mOSOuZY8EpG5h+B3OSZ20Fnvukp6NSCF+hNaeC9iGVleAbtpGnDR8f5FO4l04FUzlzA9hQYnP2S2fizfUh6toM/OWgP+Mr479K9LLe2DR3t+DlL5/H1Irp2HHMzmKPMM2fqp/RjL7xDVYS7Kim9P7ZzbK2Dhw//0u09PTi+m3H4djqSl2WUlLXg2M3TCsdyW4UVTZtFS5s2rsC2NzRjdL8HBxw0+uoa+lCZjDoECAdvoNqTOTu9jCf0iUHPXJiYE6ST7V39eGyf87Hc5+tx+SRRXjkR7ujeoRhVuR+EUW9G0TPihVYc8556PriS2fDDnEY5M9Smh/GpxgQYzetr7yKNWef67jYXSOnoufki/HHMw80+6sjwLQGq37wQ3SvrUHuuGpMfuxRZJWVY9M9f0Hd7Xcif+ZMTLjzdmSNrdZZi5AddPzvA2z4zbXobWpC1c9+iuLDDhPXGZdWQpLsxnzn3vHGz26M9ouPT6lgK2igdVsXdyKqlkNKlXjGG1+74SyGj35Av7AhS6ZJTrfdhOuhmGDLdpOa2JiMK8vU6xm4mPepLQ+bYaLFEM5xbaiUB0KLwe4HNgySzHctuc59OK5pYiDZWgym4YVuSNSk8sySJzG2ZBx2rd5DUCl7Y/PtUMZh8xLHmh85/G/YcfROuqoVnRt9KLChzVW0Csem4REPN7ra+cI1PEz1NFZs9rn+Naze2ILGpauQX1mObx04CzeesDMKczItqmPuLeCzq1da2EwE+XHqDww2XUuWYvW556F71Wpkl5Vh0kMPIm/mDK1TEWIyDKkv9tTVY8pD9yN/tz2cQ02gtRkbbrgJf3zjfTw06RBg7HRcctA0nPu16VaPfevLL6LhkUdR9dPLkDt9JsndRtYb2Pzoo1j/i186dlt+5BGo+s2vkRkqf/jqDQwMNrYPxmc3fOhWNO7qQGjnivw49ePQxXEaqnn94NpNGhtlc+pqxaP1PO1F1P1ifCjWeJO43Qg7o14mzoRJBkmju+OyG6fEYBf09A3bCY06qyIIPNzrZeKRfkiPVoU2MJ5qoAkJcWWl3yVqQZwZdGX19AgGfz4P9SS0XqYQ9N3OZE+cbAlthAOMjcZiELE5/J+HYk1bjfO+fz3kLuw+7ivWbcWkV5KHzer2bjxRuwndCOKsCaNRlpOtM7bGzoxanSbSEFwb/nZjc3DIbPBQ2M2XdW2499WleOSNJQiUlTqP897lB6GqLJ/GFdV5bGNrF/78xpcozcvCt+ZOQHW5ocHWTuwaR3TEmcQctNZGoQyFbjJjARZrvZ0p98Wmrw/1t9yC+r//A33tHRj13RMx4vjjkTsjdEBQt9oNv/kVGv72D+e3lh1xOMbdfJNIywF3vLQUN728zFGjPPOrk3H5MbP67VPtH32EmgsvdnQWRp55OkaefTYysnJE+X0QsBl28UZl+VR/hL4TG0VXzmyJJmkZu7WTigrLUPiUzKYYPSAxuJLQPpXGxo4fejvmNClcWgwuvnBOgzEHnSZTFBOTsiyjN28XwyI33ZiyYHis52sU3byV3boMWvi/XuZeT41C/OLanyNxnbs4qznWOh+tOatTCRtOPRJoQqRIn6uEw2gsCZsljUtwwSvnYd9x++CyPa9Adka22lP93lWokSWCTYhC+A8ra3HdylqHMOj8iaPx822qrbSzn96AvpHIAyO9m77b64ZY8Q/6QY2AU0Rs5HrRYUP0H3Fj0xMI4NBb38Ty+lbsPaUSd/9gNxTnhXorKLWMDFz+5Hz84/01Tknl5N0m4NfH7qC+h377lOBC9MGm48MPUHP5laj66aUoOvgQ5+35d4dIkBbPmYtgby/qGjaibEwVCouLMOWB+5E7c6bzeM3/+AdqfhHiJ8jAuGt+gdITvk1NxaoG09bZg/98st5p0jzn4OkoDL17HD6o3dh5MHqfvj70bW5ymiFDZEyZ+QW+OhX+dhMdG1PXkKRB8nsx2Tv3Ad86P1h26qXFYMq2/cbGaejW9S+mhLX1UDiryYeBMJ+KARsRkg0ZXhob40AGCysEx7ivkbnHHW9iid2ePhXFbjy0GPwbb5ikSF3qTGbA3U7FXbhqHbH50ZgW9zKYA6lyKT0aFNd6L250d9sgfT6PadJO6OQIxFC1/Txy/EV5kewrln6l+SD4GpyC2HT0dqCluwVjisZYew8VOD25zpOJTUgP7Kola/HX9Q3OJhQ6IFwxdawrtaqsIDE7iNfO4rAbnSY0dhCPTsXz89djt20qUFGsRhylnV33/BL88bXlztTG93afhGuO3UFn2wbSp/rqN2DtBRei/aNPkFlahHG//z1KDjhAp0TR14u1Z5yJ1vfeR21TE0bm5yMrKwsTbrwOJUd/XX1PnV1OT0CooTGPVBoj+1R8nPqOz+nUksrmcSbSqyFs6OxG0svw6U6mlxOzm5jjDWU68TxjuwAAIABJREFUk4NNf3wwDp2KfvpUGhthZx77mp+Gh79P8U5gxyeacFBSMqoJTW38ZhcxNMmmwUpviXbKUNfc+TP0nCFtBHba3pDoSK0HUatRxKpGS8C5SNBmr+t31ETHWg9CNlS9kriK6W4jPjAojgNZQlGlFgrhIqU2nLFZtmkZ7lt4H2pb1+O8OedjTtUu9HXLMotpNjOwJRebFe1d+OvqDajIycY3x4zA1OICbWf/Xt+A91va8Z2qSmxfEroV+tiBRWSVTLux+yq03egrNRd02aS8sVm7qR3L61owbUwJxlUURvWp5s4e3PnacnR29+HEPSY62gtWaWuAfCrY1Iyay36CljfeRHZlBcbdfCMK9/yK6V0JBtD9xRfoWLAIwYI8tD3zH2RXjcXIs89CVkg3wXT46ptqbHZj33KHf7xJjt2ok2O4Dw7HWMx1d2UiKoiqc54r3lCVPj67MbE7jQ3vUwNrN5G1GHSKX2b71ZdERQSLJ1qWBCxdBJcWAx9IwrQS+K4ep35A0vUGYuH/ThibyDoVycbmsSWP45r3rnGOW3uO2R037HcDygsqEtep6Ac2fcEgMpHh3JjZPhY0teJ7C1ZhfXc3jqoow+2zJ6EwK0vlbIaR3bR29uKEP7+DpfVtGFuWj0d/vCeqy+mQEEGvJJRdCb1opnO4pYNRAvomsdkNN20CPV9+gdYXX0BO1ViVFcgM/ZutkOo8TSjz19urLg5Zmb5207N6DVpffRk54yc4JQtSaonLzkz8iDfeJMOnDDb6eOrDeb/1xZs0NvoSLXzTHZ9S0m70JExiPmVpMXCq37o865KKKQXocyErPSr09H+m89qbBz788yNrN/AB24xYJa7FwEpr6lRL+g4R9Al00BbHIvtdVQHCxk6oYA4xNq+veRVXvH0F2nrbcdKM7+CiXS/WREpa10Kf8rk+PnjYzGtoxqmLVmFTbx+OHVmGm7eb6IgU+eoNxGtnXAemdLXu2fPUJ/DXqXDbjVvXorG9B3tf9wraunsdauQHTtkdO04oI8vw4ciPy25i4NR3YRNsa8fGO/6A3o0NqPzRD5G33Xa+vPGd8z9G68uvIquqCiNO+i76NjWgY8ECp5TQ8uoraPt8IUYcdzxGfvvbQF6omZI7tYHAps2oufRStL4zD1klxRh32y0OG2KYfoqOJRxKXTdwen5Ol8fuU/FjE6tWjJ/2i3J4MSXj1orx8aloeiiWnekbuCk4DT9s7OkLaTch/FTJObrmh4nX7sxyimLDOwL3zcWgh5KK2KgDgqjF63QQnZREhwDPIoi0vBQP0XcGyphp3mLl9jpdGjIKfR4zRQTDcxxhvfwnGkkTVQSe1Tef7w4xYgOgRzKjHroiT25JfQfDHJuuvi58WPch2nrasF3FdhhfMp5MNzWw6QwE8ej6BixqacfRYyrw1RHFzm2a9s6BtRtfu4wNm5ChfLmhFWNHFIQ0hvC7ZxbhsY/W4oS5E/CzI7ZzaJepfidGT73sTE4LJc+nmv75OGp+frXzfRfO3cXhMgj99r6mZnR88H8o2nd/IDfX+fcvDjgA3esUYdXEO25D+yefOOyIfd1dqNu4EX3dvcgZUYqdHrgf5QceKNLHQfTVrMfaCy5A+2cLkFVcjPG33oyiffZx2ZkCW10e+GDOX6+hXR0W8aafdhMen5KPjbJgipcxxVZR0I1pvU8sTmPjCl1inxqG2PRTi4FP0dw2ZGq0CiVvLQaL49qxy9i4zsneI3Ojy25R+gE9j+p8Qdy3QE1TdBNynnYQtBii6VQMKDbO+3PY4EOat+4EE+bopuUUxsbPzrzflTI+UTRC+Ijg0LV62E1oozvl7nfx5opGzK4qwX8u3MfMPbvWx8aNztbt7VO+WgykP+JlN+0vv4xVIbnlIJC37baY+uy/EQwAn283y/llJbvvigkPPej8+fM5c9C6sdH58w5PPo6Gh/6GphdeQl8ggBXra5DV04PsnFzMufZajD4/RIRk2037W29g9XkXYtTpp6LinHN0M+Zg+FQi2ESKT8mxG287Sxkthgh2k8aG8sauvSFa7N4S7UYTJZnORJHEEiNSsqvaDOeIJkE6sqq9XuVV9ElZc6mrY63NdU4n3TDtBvpsN9e56HTnXimTdPJ4dg9u9FjXm5DNaYo0Nl66FuoeuHVh8/z8Wpz+yEfIpEzUyt8dQSRLcoomeXYTlh2LwaecEsOf/oiuZctR8e3jkbfTTkBHB5YcdAi6OrvQ09uLnV56AfmztsOK887DFw88hPz8fMz520PobW9H4yN/R/aoUcieOR3r/nwXisZWY/wvr0bRXnuHvWusPmUSfkOJjVd8iiPe0KlHqu+piS0VBDlWmjfk23ls8SmZsdjfbgzBE195/WN3amHD/LC6uJvgPiW/K3VBtLViwvep1LebpGMTDIam1O2aoGXiRMklU/GGpkvedtiImEKUHYanIujmSoqIcnDJOTQ42QY1HqTqg3I93+fM73Cv5xuUcU7hpppWjD5fuLHXu1rvl8aGT3VhndZx243oXDa36nC7ebFuM2aVFmJCfkh0KjXtpr6lEz+6533MX9+M7+4+CdceF5JHNtMOA4WN2oS8fapv3TpkV4donYn7AUEENjei9pe/RufixSjacw+M/ulPsP6Gm7DwxhtRVFSI8QceiDEXX4QPjvk6OlpaUF5Whm1/eTVGfP8U9DZsdEoGGbl56FiwEJnFhcibNBkZoe8lVp/i73yIsbHijdgMIscbTkFSaUTEJx1v6CLkGUdofNs9k8N9TfpgncZGkPObywbdJkXWM859SsYbS2PIdP6bfS2GfWpLtZtI2Li1GJybv+MXgs9bN5NQKYA4+OPirO4X/zedvIXtWHze+gXVgUWfwD25zn20GJx0RDg3uqU3oDtChyc2Nm+8Fw/80GNz2Wdf4qGNzdgxPxdP7TYDRaHOecfeBlbDY6Cx6eoJ4MXP1mNUaT7mThnhCDdpfZMkaDG0v/02Fp99DmqXLcWkA/bH6EMORnFodLGoCKvOPR9NGzagu60VZQWFCAYC6OnpQWFhIfImT0LxbnPR8MTTWLeuBmVz52DXV1+11VSEHoppFNb1Ozo4yunHyD6YqE+peO8Rn5Kh/WLFp9jjjb8WA5db4/MpNe7IWKaIFkMSsLHCsp5A7w82JtYPqU6Fz75mvsPoGh7+2Kg9SSWmEtvX+ouNrcUgGwn5gEBHrDA6EJnWkadoXRIw/QfmlE51COr+lXLO3toKJghp3gR9KpcJPDfHNXMgccsTsxvQCZSDjJsTW3Ojy/WmN0GfaAcBGyfXwVMiLqZHw90gLvdWR/zwxWaXeQuwrqvXebE3d5uJGUUhXgRjN+qMNvywuezRT/HYx2sdg77luJ1w7G4TRDKa+kEi+FQ0vYHVF1yAJfc+gM7uDrT0BjBz/HgUV1ej8qZb8Kff3o6/vP82dsjKwBXFuSjLzETejOnIKS5G8cEHo2juHNRc+hP0bNyIUWeficof/9iVyTNslGZiZyB9ivdIM+8Uxhsv7MCNDRPCcMqfia0Gz24MrZNO8ev+H6Hd4BlvpASxboFXJR1r/cBho2SSRd5DNoJLLpKEYvFWho1n7CZAo2EZ1z41QHZjaTHoor6KVFamnwxcKezJBhzT3afX65u46ljWlTehN6BrlvRDWuveHColrZOhTfJYr3sFjM+Y4MvreV6Cmic12Ys8AGnuUJvUSRzp9WkhjY253YRjKSoDcdrNv9Y34vTFq/HtMeW4aeYk5Ia+06h2ozxNxzGXHTjp5aTbDWfyqSuf3pOrzdzoxdicdu/7eHlpvWOqF+y/LS46dAbxclHVMKpPmRupl081P/csFpx3ATatXYteZGBS9VgUjh6Njhv+iLNeXo2atTXIWLsQ96x6A+ML8zD26qtQtNdXkTV6jINN98ovHd2FvMmTkVnIss4W9WMcPhUfNtwdnLhPRcaGOwPcduDczlLcbgYcG6dHS5WtpI9sCdhoHzTNcPa+ps5q6pbutU+lsWEtBkFeyWN9mvlKVNfCtBhsumI+Uejqv7t5hMrJpsVZfTle61WVgyI9B3w+UJupSXO75PXOwdc9NqVu2lb5lhopVdrSZn2kCgutT2MjmQ1THxv3iKTJslD1XnQRmv4G2w7MiFiy7Gbx+mb8+KEPMbmyAH85ZTfkZofIoLSyr/CD2HyqpaMHxQU5pnGafKTpkYfRWV+H9tffQuUPTkbJ14/FD+59H/PXNmKbkUW4+/u7YWSI9jkVfcpi0EwcG918Fle88bYb3e5BSSydzRrseLMlYcMtZsnSfkljY9qSIuxricSbDNWkqEKnSUzz3/Dd3JVj8lgvEl70QyICcVeDoEbo33pxRTT3RjGmKJMP8tktL7eZmHUaIvq76o2Gd0vrxBOOZeR3pfVbOTa9gQBWtndhYmEeckOkAmKaWI5lb+12090bwEuf1+Lx99fguF0n4Kgdq/X0lR82dc2dWFHfhvEjClA9otBnfbhPdS1bipbX30TZ4Ycie/wEbeVyToOKIzrVwPeKeH0k8fVep4Bk+5R8OhMf/O3SPz4xiPZ3JWNl/2Oxedo0Nv77WhqbWLDRao6qVhanFoPPeqVxIBr5dBOR6iU2hxz1O3m9dVOlepvF500/qJp+uZOHhi691tMaKXLGVy7z46yARmMufJjReuqUoEwhbAwllQosuoTDvR3DEJtLFqzEK83tOKy0CL+bPdmSx5Jpe+5F8bObIcVGNkLrfp4YfErUIn19kGiQ59c04zt/eRdtXX2YProYd31vLqaMKo7Jp+LBpnvFSqy7/HK0fzofpQccgLG/+TUyKyq13xktFbdOhWThVCkSx4cHARvdkJVAvIkHm2h6A/3DRm1cMcXiOOwmjY2HxhD5VBobf2z6p8VA5QF95nVzl1vaCobPm28d4VoMRN8apxYDXzYt/QemUqYtVPLMc0eoXK8jmPMy5tChslfUsCN4uBPnjVcHJ8ZMnWuGETb90GJQ72yw3NTdoy+g281b4HAKhCzg7d1mYFpxfhxaDCliN0nEJtynlBkuqGnCSX95D02dPdhlfDluO3EOJo7kngHRD8HPoiiNCEujgRFNK6Hpuf9i3U8vR7C7G4W7zMH4225B1ujR8Wkr6KkfOmRTQE6+TwmeeTUzvdX6lJ/daEcbKGzIzuKPxfRkMibGG7uToIujTtix2o26e9OdVMRzbqA2GSEV6xPzwfix9NinhA+a7VkdQmPRfskIBB3OPCrUygCivjh525cpCXX1J0U9Wsr/I4mUTHmf7rnmwq4zleHrqVORNk6djtM9CMwDL6YXnMdRG21S16exsexAG7vUauPJFdnTJjt09dQKzzcBr29swh9W1KJz1TpkjyjFe31BIDcbM/Ny8fSuM1Cek00JpS3cbjywMQdI41icJeruDeK1JXVY1dDmHBB2nVIZZvN60oOPoU72Kz6f6mtswMY77kD3mrUo2GknVPzoR8gsLDSDPBz0JG9JrD4ofEo3Q5vgQe9DjafszyLeKE8Px8aaXnBnDymWJQMbPYo4EPGGOzUps2oVSKP4VCS7SRwbPZOY/Ngq3zVeLLmJPlG7sSYIqPGeT9Iez+JtN1s+NpYWg+Pfopuae/l55E45s+FSd5Z7rFfZVVFU1x5NoxhEO2bJbkRaT9FArecyheq+5SyEST1LrQf1QmJy2sUDzyMTJlUfaX0aG38s48Xm2I+W4T/vL0TPwmXIGFGK6fvMxZ/mTMPOpYUYkZsjWxCc71DPm5MN8vk3op2l7UbTmJPjGCxjwCbQ1Qn09QLZOcjMy+NtPak+ZcUK3XnC4m3h2g3edsZiTT4aHsM03qQ+NhRZqdt/MGNxGptI+5pXo35iPhW/FoPgsOe0vJ9+gLPZSs57um3I9byFS8fn3UGT43jqB1A+w82pT7VfmdRQNcPw9TbzXRK0GJKNjeaU8HlX57TEzTZ80U+OrsXAYgOct2g17nx+HoJra5FRUY5jvroT7tt7RydzEJPdbMHYeGs3qFtOGptQltDWfvHVYvCKN2m7oYOeyr5asVhgE2Zn1ky+zN4kJ95Y6q3W/dJbKyaqvokVi1WZOFl2szVh4yJKokQm3eYNIQ/X5MWFRGonkL2Iygu1CalUoOwX1duZ9fNS6cHukdY/q3NtttynHmkyrXrqsmStl3K7YmzR4XRQD+L3riYZksaGsaYLmQo0nL6OAUudocoAmnp68dCS1fhf7SYgKxO/mDsDk0sL03ajb/bKqdzd7mzWW7VPsc/qfUq36aZ+vOFY6YpPyfAp5Y8Uz9LYqH1H7jNpbDQevtgIu1TcGG4tBn3Soq09ES0GlciMoK3ApQJuAAxfr097WhrW3BoUKY79+eZ0yOWCSFoMsnhCjSm6dMLFKTsEq3IZn0KjY+O/3oiCePPADyA2Fpb2O5hizOBi00u15ZxQi6Kk8PbU5IiOjdRusOuGdIvws5uBxCYqDzz5gdMc62dn/bebNDb+8SZVsGGxHRWnKc7xsSdCLI7FbuxREnOrNhVgETt9dHGG0qeSjw1P7hEC3BPhBEMV67d6bNxaDCpDb7ohjYnKVkIRrGLlyI9Xi8GH/9s9PmnyDfFwVodzXEvOaklrYPPGb5nYmN4cczjytAPZAerSD/CzG5kPUr+HDnbDxG7S2BibdzYYoVcyFNiYaSOvMWoVtxTba3/sjDISNE4tx+BijTeJY8Oj35Q98ojFfj6VathInQpns6X4seViQ2Vep7HWZKq5pZ7z6er9DeV0PNhoKoCwWDwwdmOmGIQsMmVmDGmYi/ecc8uKHzy8pdjoJnCBQXAf6BypaWK0bv+iWZEOzFQOF+yILllO7oTm0546CIav11KYsnOcSiBKF4LntQXXP+XRWeY4LmxMqY4bBEyHtk6G9g8bM8NGp/8Ux+bz5nbcvKYOp4ytxF4VJbKYudVjE6rXSDtzZYm1pYrxH9MqwlFXSaKKemsMPigObpTG0ZS0w8GnrEDFxGkyETissFGN08mKN0OCDcV4bXn9icUOjwbj4ZpsER5hvnbTjGftUx6xWGOj97A4YnE0O/PzKcZG22c/9qlBwEb1IHBBgghNYub/9lsfTYvBh+Oa+0rk98XfayLaDUzKpHgNePpBbPEicOjpDCcixrI+it5AGhvln4Qna3iMef1jZAYzEMgIom7/nV3c6EL5LC5udEtQ0JqB23LsZnB54/18MDV9KhWx4Q7/oY43aWxU5st0PupKwiBrMcS0r/HMne+eHJv2S//3cOovCwZCxxAPvQFxfbG0EvQGSikSV6rDT1tB19t1Uccc/9xJBd3WaJEaWJdNfSPXim1cGjFdXWaDIh91/snrXeUJlxIiTIKRxsbWtdB+FskOCHm33dR1deOw/y3F2p5ejM3Owkd7z8anze14a1MLDqwswezSIldChOxStoOIeOttN5IVzL428MeYxiX6Gw87s9YOpd14YanqOUZxMWafGihszDFeD8sPhk8lhI2f9ktysNGHYqH9ooOV1LkhYiDLhhPwqbjiU1S7GSRsrCZyQiyNjWnmt7LyQpvF5VO8wfnua4ns4S6foikGQbNsdcIyT4DM5ahoJLtlVb2Pj2O8w6r/lc02jpa7xeqoKRN1u6kxUZtKgaWhKd8U83rNlUC1EOdGSbTJikvFPKGuMnBtg8oAmvY0jQ3xSOiwZihhY8Tmo8YWPFa7CYePKsf0kgIc8eFSrO/swc4lBfjzrMmYXKiEhNx281LdJlTl52HHsiJJCxizHaTthktQZhJpePiUKZ0500bSzqjBVVbrVEwknki/eKO6YSl7JebJLT0UGfsoWc48MNSkJKlbjHQ9U01TH8OAxpsEsSESKc9YrLExPuhs4WlsaENTe5bOSA8gNpq/Jwn7lLWlafs1Ey9mmo+uRmzyKoNAN5JY9AaSzP+tukVVz4DFic3kG/wyLCeVoN4AHc51XYB8xCJOYt54pqS0Rh+HABv1jB66FimDjTImfYDSJ1+mIVVWFvpeO3r70BUMIi8zAwWZmc6Bck1HN776/ufoCgQwOS8X98+eglklBbYdIIi7VtTiqpUbMD4nC3+ZPQVzy4ssDY/UtJvYsTH9WxH0UBLkjU86NnSKtn3EvKvqYzTaC94+lcZGZZCpK4qyniy3HKtPxWQ3fMlxDleycc6UXA3JnE+8cX5OU5OZgfJ4YnGS7SZsNJ1okjnepLHh3sDwWBwPNpG1GPioJFJfqoOGjCWqFgOncKksLOgxrZq/izeecy1RtRUi8H+bjl46/Fg88JT0k9oKXu/KDX+ik5jvJ9bnaxzS2GhNUF0WCKI3CBz5vyX4uLUDe5cU4sGdt0VRdhb6gkH8p64R/9fUjv1Li3DomHLiNbft5oxFq/BUXaNTnbtqShXOnVRFyTPWtdBnXHVgicbrHq/dxLo+Fg2PhH2K9Qb8fYq628Kw0YfjYYqNnpDxjTdpbLR+jLhI6cIPXQDtlLRR7x1edhNj7NY+S5M3dNHUzejsJbokzbFbHZJMll/z++vLDpfAmaNOUlzHu6957lMJx5vkY2NNMdjBlTvMuLk/Bm50XdKVI4eiqC9EiSyb1cxoov7gw6Wubi4JaDFwZzCna5xnjaDdEI0j3ypfp7GxeOAFNrWdXXhw5QZcM385CirKMSI3G6/tOgPVoVKCOeTSxm7shpInzi3rncYWfPPTLzG3pBD3zJ6M6rxce73J+XFHVvJ441PGbohNk5s3zayY1g1Lrk9Raihejvw4fcoKxgn71BaEjUotUKVEbFRpbIiqIo0Nl8KdfVBncXzshv5aTxbGua/FrcWgT5tMe55ULQbnikPOwWUPqa2gjEN1UgstBn2uEA0d1Mal13Nbl0h/mhos1fLoiO2n3aAyJ6Z2qedaaTeTOhXs5+71KognolMxvLBp7Q2gJxDAJUvW4tmNTWhfXYuRo0bgx1OrcfmMCZSFsrEcSmwU1SudwClAD4SGBzcXKufm24rRN0m+3fjoE3i9a0yc+sIHk+BT6hbGjbDMtbIFYMOjpv2IN2lsIugNpKTdqLxD/JpBcl+jEeUBsRs5xi/LgOH7GsdiTbUsZ6spG8MZKhUGRADVJ1x5c9OrbVpmDrl61ze5G5MKpc/hAJ3w53tOPfg9j1/XcgLrhws2+squk48qFyPoSKPaQQzrP2tqwy0ra7GhqwerO7qwIRB0pJx/PXUsxuVmo743gG+MHoHy3JDuQrRnoYceaLuJGRs6qLmmZfTGHw+WcdiNagxWDYaD7lNpbDx8xH1gj8GOkxWf0najw5QIIHqfcsxVptN89qmt0afixsbhQdCXWjoB+XFWy4uv9Web/1u3wvitd425yMkFPb5lWmFU1kBvEHbDTKzreYLCHHZc72p9vr1peuoNiI1NGpo52PJBYyCwcW0RKYbNFUvW4t51G5GJILbPz8VBlWWOCFNVXjYuXbbOaVa8dMIoXLDNWNWEaR0VzUYoLwlspM5qcfsN/+nUxsacK9j+3Pom3nbDEdFKPrl8cLCxsbB3Nq2h8alEsTH3PfkmdJXpp0+lsVHlkaixOy674Yuqv53FE4u3LLsZGGz6pcXgfE1e+gScevTl8zZ8/1xScMKiWB9Vi4H6FphfwXs9zWroGQ/VvcBJIPpXw3luUzeyeetiRVK0GLYCbD7e3IrTF61CSGfhoolj8IMJIx0sH1hZh8tWrEOgpw+njRuJ320/iWhBVGmova8PHX0BVOZlmxl/0wkkCKzM7S1uu4nJzlLQbpKgUxHVp4YCmyTrDaS+vgmNavpovyRfb6D/Gh6DZzeph41J2HEZOs59Kiaf4huSaqh0Luxh+9QQYROeQTA80YpKWXaKi/uPc3sRnTM68yrqiDxio9PSdCzXPyaaDXXfqEzxcwepnFk24HEPgEmTm/U83mXAFilAKV3q4jqnaoxVZTEZBBc2NDbET6R/QxobLGpqQwDAhMI8knAGvmjtwO5vfIrWlTXYbso4nLr9FJw3cYxzRmzq6sbvPl6GBRubcNTUapy13SRR/nDb2fCzGy99k+TZjTgwyYPzMPGpxLCxx6INlq744QQACu4CG9/1FA9U82Tsdpa8eCNvgvzsfu9K2bKweJN62FiN5SL7qjQJKEUcNRYPLDYm++AfbyLbDXP/xGc3KY1NIBj6ilSNIRL/t2pOFBzhvN5dG5Y88DrHxE2FQrtBai7QKUuNfPBhwKSnmCeBC7BaiEXJUcbGG08jXs56a9yLEk2aGIFO3Lw+BbFRhx6iFyYOieGAzWt1jTjx4+WoX/gFsrOyMGu3WXhpl2kYnZ+L+Q3N2PXRV9DT1YWZZSV4+ui9MGNUubFLtrModmPIrmj6xo8HPlY7SxG7Ya4SM38Vv09tSdiICgCVnASxkW5ijj3eJB0bnQ2ldLjovVa+S2/AmSEdb6JrMUSLxQOJjbrzmWaYiLE4mt6AmFRzzgg6rqWxYfuQPftDYTexaTHoRmhWSjNdj2q3NZs09wowS6GTlufZXN0mriYQnHkE2ul0E6TLz8W9n6YX1M4Y93pfjmvB+KgPNKazQRXSjMF6vqtMColJh8HEpl9YDgI2L9Q04NQnXsO6zz4HenqBieMxbacZmHfEnqgsyMNDy9fiBw8+C+TkYLvJ4/Dvo/fC1LJiPTXCWHrZjSLnEX1LooGw/1oMfpz6A2Q33GORgE+pRJ3tU8MSG33ppy72WHyQ4ohfvEljEyl2p+2GtWJ46szE7q0bm4xgIEDD55RScykdUhLLpHvVrJ8e5zCilTpvxFV26vw17HCcqjfDK/b2r7rpTX8CHwLsJIWp0fB6c6M2oxtezWDOVy2f3RolMc+iU03ud015bBQSVsmFjjdhNNd0qOF3HUhsQt/7Je/Mx61PvwpsakJGTjaCE8Yir7wM+1dXYsboCtz16L/Q9elCIK8AY088Fg9/Yz/sX1HiMC7GZzd2k6M9bJBa2CRsZ84BOeQrWwY2XlNTWwY2XIY1sTW8oZ71EaL4AAAWVklEQVQb7qgY6hGfZGS1GuvijU+pYjcUsHVTq+7HEIf8GOPTcMKG758RY3GKYaPHHLWegpMQoM57nY6XUwRUz2P9BVpvaTFwskhy6lM6SREa0katEaPkUjxc54KPQHJWG35xTtVF4Uanz/HjUlcJEtKaSAY2rFmxFWET6kU4492FuPf5eQhsbACaW9QhoaQYGcVFQFs7go//DWhvATIzgH2OwPe+903cc+z+yHZOdKTh4Ws3HFjYNsP1BrQmx6DZjY++SaI+lbDdbJnYMAW5s0FsQdhIrRiOPfJd/Tj1nfjrEZ+2Cmx0+Tv6PmXbjUkOq2MaaQwNw3jjazf9xCaD1Ry5UhCd41o0wMSiT+DF/62/F8FAGKcWgxMXuDyhexeIRMlVy/LnjbfHm6y6oPj84Y6NajQdWmyWtrTjpDfn4+N5HyFY14CML79EsHEjkBtiRQwCCz8AutuAzGzgwGNxwnFH4MHvH4m87NCwpOvZqWCciIaH225SARtLhyRJPsW14ri0GEwqjkoVybObiD4oiubO3YSbm906JEOMjZXJSqJPxYYN90apy5RsIHfyE8MWG1v4z5igq3eDm66oom3vU17YGAbgNDZaV5fshsiYdHeApaCobIl8UDEpUp5GXejFOAXl/tQPqNJCeE+i4ZvjAXXnxq0+yiZ38UrRa8YxajbWc7GqEKmplZlkRDRBqtIkz197r9e9EDrVLubOxQS+nYXgMoYeube49cIUJ4cQG80trifzuIM2EWwUlmwHXF7S4juiW1raQax2c/wHS/DisjVo+e9rwPLlQMtmoHkz0NEMNNUCgT4gKxcZs/bA9FNPwYVH7I0zQ1wJlt3Qb47BboYTNrIUIvnjjE/5+GAaGwpoHvFpK8JG+qCM0r6xO8Ww4VK1U+rk0i/3lZiLvi48xLNPxY2N2u1499PNRnqqxYm14fuOavY33ZY8HhrLPqXuPOGxW2c26M0HG5stRItBHyv9Ofi9OKvj5I330xvgjUgTpXlMStCuq43AopT26OYNWy9PZ2K9mdM1gjXqrODq4I7lXXUzmDrdWcRvWrNE8H/r1IoUSOKTWLiGx51f1OCaJWtQd+tfgbpaYNMGoLsTaFgF9Haq7EFOMTKmbA/sexAqv3UY/r7jVBw8esTQ6Q2kjN3QAcFqa3bdsjhAOfErsh5KqthNsrUY6I5jaXLQXUUF71THRvqgFA3Sz27sILZ4k4J2wxtwvPEmjQ3f2ayLs6H5ISNJot0ooiTZrMdfglPTktzozGDn0jsQXfsWx6E6uvpoK1Bgk/dyuV5EL9Wo6L1e15Xd0Y7+v82J7cFx7feu+uxoc+T7c6Mngo1+SD2mFeldNZbDGJvWngAm/v0lND7wKNDWBnS2AasWA83rgWAvkJENFFQgY+auwKzZyN1nD7x+3H7Ys6KEplZS1W6U3/pqN/TDp8Q8jZ2Os9Ly/j4Srw8m36fS2OizfZgdJA8b/dHUYxPdbticoviUOF0NbixOY2Nl7PVoKe9qFG+8ND/iiDeR7QYwGQTuFZDz4Xrc1dZi0E2Gbt4CD2plbpzRHPKOPRINp55acFMb87SBuo06N3c+HLE0NAVIas3RzFN0XqYJCpVZ0D+vWXqpSOD1roIPQqaZ1I1ccC74YKMfNBWx4ZINP3skbMxwahiWel6Z0l6xYNPS24dfLVqJO556Bd0vv45gawuQXwis+xKoX636D0pHAZNnI3OnnZCz6xzsN20injpoFxRmZVLqLvl2Q6dYU84aAmz0tUBnfrzszHU+4IZNndaMDxvHB6P4VBobFU284ofBxsQndaeKEG+S7FOpbzdpbOSEvF1/GGRsQnZJzZdx2Y2bSVGNyNEUA/UmWKM1UsWR9dlFl7/55fYIFh9s1YmFqqzipu/ByM/sCep2Jm9M4rZmTsp8EqaTp2t9fFoMXGOit7EOMmlsDJauW4iP3QSCwA1frsO1Hy9F65MvIri5EcGOdiA/3+lDyNgQyiD0AaWVwJy5KN99ZxwwdyZ+PnUc5pQXEwX38LUbNbKXtpt47YYvTeZCFItOhS22Fnu8kWGz//EmPi0G73iTqN1IfRM7dseOjddoMZ0n+x2L09gkS6di4O0mRi0GF5+3vjnaI4R03afmxMic1fZNWzZoqNq5P/83d0oqcxX9maowoMsl5l/U38n14VwLVvulc7jQ7kClFh/dCbo1aCKWLQgb04RgcinqROyHjWjs0U2lQQQygGuX1uC3b36Mzvc/QUZ7JxAIIDihGtjc5PwZrW3O95cxazqeOf2bOLyqwtMOUsVuwrHRtHF0rOYSHduNNzZbh91EwMbdECbsJrnY6FSLClNROPIj2pkovsYbb6LZTbgWQ5LtxuPZ5aVu2GLDDedUqpaNvipkhXqq3HtC+L7GRXWzZ4h86XC1mzBsZItnFGysDAJd1RU/thmlUelIwQVAvsZaDMyn7XwBuiTA67250c10AqdaIq3nJjjDce0+GvDIo5vXXR4i2BEk/3f4u5pP5gQKt0doBkc3NvqYQmFFdvsT1/jWjs3ypjac+NpHWNTQhL62dgRa2tC7fgMy1m9AsKQUKMxHxogylO+6A741bQLunu2txbDl2A0fSblIpsppaZ+S0wiRsKHWqRjjjTpsxBqfPOKNjn9cnvTTD3DHDyrP+sbWRNbLfhe2GxXpTDxjKnaVEVY8CT46FYOAjXrLON6Vaso2qV4sWCYPG0PUF6vdiKk7elc39l77VEpj42gxUA4vFi0GLUgfQYtBRTrTzc5kHWp2l8dATMMCn+bdc5F8WR0ULQaarVcVFjJmfl4+ENCJQVQvdIMh90qoLAYfrvSsjMhfJhcbnncfEi2GOOwm9N0/sLIWN62uw6rla9CTkYHO515BRihzkJGJ4JQJCE6ehMqdpuHXU8fh7G2qyYZcWIq8s7EbHi9S2SWLTEY397hV7USdX8R67jPRvTNOUor6T+jPTqznX0kTJQNuNzxD5WBOzTRuO9uKsPHzwZTBxtJisKd8VFwzTVTJjjdpbPw1g9LYxIeNZlLU7QYR/iASzbEsD+NMiPRDA/nZIrkY03On2votCZt36pvw3efmYc3yVQjMXwjkFzhbbcGRB2KXyjIcOm0izp40BpV5OTF9V7LYEcsPbElYRnvfNDb+CKWxSWOjM8Sue1y0fYovCNH8L9X2kUSeJyMQCNB4P8ubigYKjYBITTlpKuKB90wbUaqLZjQc4h1i+fJqfNFpf9d6Hs9SxD2mrYVrg9xMKQYciLzC6ibQaQylWWlrMchBf0NUQ82OdDu2tBuoXmobyOBjo5hlmdQoRbDRpFZcM3XZAdnNrvMWYsGiFehpaESwpQ05oytx8LQJuGmfnVCRm41ReblOlilRu/HXJzA9KCrtZ6rM/tzoCud+202M2DjPPoA+NRyx4W8pjY3ZzlhrJSWx0Rlioke3Nt9wH6Q5kQixm6dtwnV0JCWIex9JLWxMPDP7ms8+RUMCct9JREcnWdhE1mJQHSt2ypY5AkRXtu5P4LkpTsDqXdfNcU21Vj7G6/XmkKLraZq90aWtQGMRYayGfus9uBTU43J3ubd2g041u7nO09g4PumpUxEBm53e/gxrm9uB2nqcu804zJk+AQeNKkdJdpbFqa8cfuuzG8mpb+mbCL0Bb2xi0Tcx48p0DBb+TUWTePRQBtmntgRsmBrGX/vFR8MjSryJRYsh1e0mGjbJ1xvgiT0+fMWqxTD4+9RQYWPUHB1ZZj3cb3qLRS6Oa2dMpsLrTSuRuJaJjVr2Esj+SYc2kv4zJx7ZaKP+XbfXCFJonk1WN03TVGnW28325izAlIA0r0zDlJp5kD5A1wnpm0ljQ1+UHiIxRFjxYPNhYxseXL8Re5QW4bvjR3El3900rppkZR+YpACPajfqSwy3G6bz5hP91mg3aWycgy2FHqVjwHaQxmbosaGbtce+w7fveOKNkv+WI8aU4nB//rCIN4OPTb+0GBTGHloM1C2ssiVROKu5t1bv2zFqK7jWq80kXLshXIvB6A1oXuvB5P/ewrD5b20jegJB7FVZ6vQNhGV0qGE19P28Wd+Mxu4eHFZVgZzMDGRRZ7UZ5FLdwvHajd96pzTg5nUfrnYj9VDi8KktFRtfOxv22JjxWOuQqzO3RAXn0sWRsXggsfHUNxkkn2L9g5jeVZQ2YlqfBLvhPmJOiJvJNeYr4EtP8vepgcJGMSny9drVpa1yyOGc+typ75iqPombqYVEeeDVziCmHCLpAfDITKzrLU59ejGfz7e0FZKODTm4D6e+zqlI7QPOo8T6roOEzev1TTjz81Vo6u3DKdWV+PX08cjNzORyILV4qBd5vaEJZy5ahba+AK6aUoVTJ41BZmg6gL8KTWGhX1xPMbCdDSdsEvep6LoWJq1GhQLNEGr8lUenBtSnLE79xHzK0mKIGm/6j40edxxon0pj46/lMkyw4Ww070maI2Eg96kUw4ZKDGImURNKUJznaURXs5beyTkPzKUCyilwfZ/nb5Xv85ijbj6gaVeiWtYlDmpmIQ4BQ3JkakXqYqp5cdVZxmM9z956rXdUAnXjojibcKOIYyGDg40J5DFi48LS/FTsWPYXm7/VbMSVy2vQHgzi6IpS3DF7MgpCtMhq0pOmW9Vveay2EecvXo2QePN3xlbi+ukTkENnCbO1yIYka07WlVvTLUg0UeuygwHGhlPSmn9El8Fo5nwrtps0NnQ0841PVJozxTXVlqoVcPsXb/TlTH/+VupTlg/y+DMJmPliYyKRTQg3zOONvnPriC/2tcjYxKbFIHic1YVasiSG88aL3j/aLGxtBYsH3qJu5kOJIfZgfgE6SXhyoxsaW916xb2HhpNAOKTTAOmURuJc76fdQBzXKY+N0LWQvPF6pp9SRrFis66jC7csr8HLzR24b9YkzBlRrL4mqWdA2NR19eAH87/E0o5uvDx3GqYU5rk0OcgJTRsMNUDKk6fQD0i23SQZG+7L8dWpiNOn5KFL/XkQfSqNjb49OL6iG7S5sVloyUTSchmCeJMcuzE+GE0Xxw8bdRsnTpNkxGI/LOOIxcnGJpq+ybDExq3FoDvHOf1Lm4b6e7oV6k2AR/wMyyJt8VYFiM9t5mwcxo8lBhk9Nu+kajHEph8g+HXovekwkSROfcbJYOM94GYPeQ4MNtagpGbzi64fYBzMH5vV7d24fcV6vNPSjhumjcdeFaVqhFGP85hGVY7CchxWBxZvHrYBt5uBxCYRn4oVG3uIaujtRh0c1ehbLHbjhw3HJ+7al/HGik+i+Zhyl7TLiVui34E4CfEmqt6AfhpVl95qsZEXNY/YmsbGP7YmGxsvDY+MQCCoDoXEJ2wmC/i0x6NRVgXGY73pVTB84pzSEPPdXAbQNWe9LVgT4Hq7pA5jw5Bm/x52fv10VArh9YawTL2HQ0LnnPKpNY7XMxUpBTF5E05tbCjS0OlLvZd92BhKbH62ZDXuW7/J2d5/VDUC186cSN+BPcEiWTjsAyWxWiZkN6mHDZesJI+FOgR5+aCfT4nJHllai8unkowNd4HTZifSSNSobGeItE9xPVeUCwcWG3NYkuS/drwZOmzs+OROk/U3Fkezmzix0ZmA2OKN7GfTsTiK3XAZj/sATOwe3tjoUpzzhdu9fqmEjeBBoA3TGhs0qmZMdsTnb2pOdxbEy1nNAKguc28tBs1ZTb9QsTkJLQY/bnS6mSraaOplcBEtJUeLYThiw4Y4eNi8WteE7yxc6UTca6dW40cTRiufTzm7GXxs4vEpWw+FMzC2dgN3fCbfp1IQGyddzT4otWKGOzZ+egNxxJsUxEbGbnE1sPrGouvipDo2cWgx+OxrKYeNU2Kg63JCWgwicWeqEaZlTl/Vw/QJeJ6N6xV0j5J88joAyK436iCwuM7VKUw3+VN6UY/PWT0T6veFv6se16BoyBz8futlIU3VIsN0KlIQG5HfpT/aqpsDgU1o2iFEhDSrtAgFmSEnkol7AsnV7Bqf3dhXZ08thjAlNrIW17iYrqOJOr/hyBhAu/HwQZGF5nQXZdR9tBhMuzU1gjC2rluKnIYhSklu1tU9E3Sz4aVDYTfap1IRG2FyaWy4Ad1Yi87QOuHTNBZx70ysPpWoToXQiI8Qb/R1V6sAh+voeO1T/Yg3SbSbwcAmIxhQ7bO6Xc/k3iVFEaVAOcsgKpwyglCQ16Ka2i4kyK4BVRmg9We51nP60f0x1nr5pQmD5CjLzcNe76oN2FT8jYLjVoCNqLmG2YF0bjGBqrIAqYGNecTodmPNKnPnqyUxzO2F5nSnuRn44OmzXpUJ3D4iDp4x2ZnVwaWnNxL1KV9s+KoiIBtIbPjy4Gs3wxUb/WKJ283WjA2deK0NWgvPJS12x+5TbsI8c+kVF9B+7Wu0T8VgN4OPjaFN5njjocXAySC+f9MNWtYKtRaDqXfLVjOeElD7+iBoMegbUQT+77g49b05+MWQiC6NyXfVwzAOXe3AYRMXp76Fjd3yyM8bn96AHzaRNTxsbLykX207S9Ru0tiYqMon/+hYmlKcnlBKcbuh86lOP8X+rvHaWYLY6CZc9aROmlZcq2UqWV2yKbrQCUq2lfq9q59PpbExmQG3hkcam/iwMT0ItKV5jfGwXDMVjymjZugrrVsKp9rFjUC2xuhbFv/B+TTq0rCY9bx541VEMOvFnV+LOplbMOtImFqFbLXkrDY39vFIpel/4FuB+sSBwsaMv4hsXJiuBb0zvbvp+1Dhhy/DqYSNlknma6M1IiYzj6JE47Kb4YONYvI0euZ8dKStwCIcExLSqY6NaNr10w+I7lPDERtKB0WKNwOCDbHtCZKN8Pgk0lRhPmWPiJvYbeJH/30qjY0saNuxeMvCxmQQ6ARL0o5hWgya+I9aFoi9XNfdNQUnn+kpLiquc7W9WuSBTINLqRb5ezlNa/6Ogm2YFgPVz7UsgPqlhsff5FFpVIOayJWzWL+TqJo5HqiyJwvghK/X+XWRMXI6bJkoSndl8wYu7gxpbIbYbkRmy/n+kmQ3bFPD2m7S2JC3qwOfjE8yI5oqduOcST3ik69eCcdicelJSixOQbvpJzb83YfZAe8xYfuO3z6VWthwHTQWuyEtBnYJtb1qB6FTrNqwFRqGREfDJ9Lt2p22IE79eLCRZRnGilO+A4WN3d0cAl51sauTi+IcGCidijQ2YVoPutyZbGzUeK7KXMeub+K33vF07j+gVNpQ2I1RcjHcKHa8icWntiBsKAtltm87E+WHjSqEhDf/qq82eXbjHJmGym7S2IRry/DXEQs2iv9dN/OLYoPHHq7sxmgxmEyoTqrx1qZT9pInWqw3d2OT6eYqvPU0roczD0gHEDmKoM/u7gDBa7lzVjQ9+ny+ZEzkoGi/m9nEo70rFzhSFxuFqqG1dr9bbO/qNiTz/wVCuklUfu+xfb74UW20Clt31xwfrMLtINH1aWz8sRxsbBKxs8GON2xnaWzSdpNIfBrOdhO/FoO1Q3rwOOseBOX6lhaDSytBnmBUgiKytoLZlBPRGyD6HaGtoPgYBD+3ZopMkBs97PQQKqvYny/Hb9LYuLH35o13a2xsjXbDzZdhPkW6E24Ofi6BDaxPefvsYPtUotjEEp8oijkn4GhY6r5Ouuh4rU9j4x+709ikHjb/D1t/qv8Ccx9/AAAAAElFTkSuQmCC;" vertex="1" parent="1">
          <mxGeometry x="30" y="30" width="446.4" height="370" as="geometry" />
        </mxCell>
        <mxCell id="A1cvQZXChHMwhufqwU2C-2" value="" style="rounded=0;whiteSpace=wrap;html=1;strokeWidth=1;opacity=60;" vertex="1" parent="1">
          <mxGeometry x="427.8" y="40" width="122.2" height="110" as="geometry" />
        </mxCell>
        <mxCell id="A1cvQZXChHMwhufqwU2C-3" value="" style="ellipse;whiteSpace=wrap;html=1;aspect=fixed;strokeWidth=1;fillColor=#98BBDA;" vertex="1" parent="1">
          <mxGeometry x="440" y="50" width="10" height="10" as="geometry" />
        </mxCell>
        <mxCell id="A1cvQZXChHMwhufqwU2C-4" value="real" style="text;html=1;align=center;verticalAlign=middle;resizable=0;points=[];autosize=1;strokeColor=none;fillColor=none;" vertex="1" parent="1">
          <mxGeometry x="476.4" y="40" width="40" height="30" as="geometry" />
        </mxCell>
        <mxCell id="A1cvQZXChHMwhufqwU2C-5" value="" style="ellipse;whiteSpace=wrap;html=1;aspect=fixed;strokeWidth=1;fillColor=#ED9893;" vertex="1" parent="1">
          <mxGeometry x="440" y="70" width="10" height="10" as="geometry" />
        </mxCell>
        <mxCell id="A1cvQZXChHMwhufqwU2C-6" value="" style="ellipse;whiteSpace=wrap;html=1;aspect=fixed;strokeWidth=1;fillColor=#F2BDE2;" vertex="1" parent="1">
          <mxGeometry x="440" y="90" width="10" height="10" as="geometry" />
        </mxCell>
        <mxCell id="A1cvQZXChHMwhufqwU2C-7" value="" style="ellipse;whiteSpace=wrap;html=1;aspect=fixed;strokeWidth=1;fillColor=#9DDFE8;" vertex="1" parent="1">
          <mxGeometry x="440" y="110" width="10" height="10" as="geometry" />
        </mxCell>
        <mxCell id="A1cvQZXChHMwhufqwU2C-8" value="" style="ellipse;whiteSpace=wrap;html=1;aspect=fixed;strokeWidth=1;fillColor=#9ECF98;" vertex="1" parent="1">
          <mxGeometry x="440" y="130" width="10" height="10" as="geometry" />
        </mxCell>
        <mxCell id="A1cvQZXChHMwhufqwU2C-10" value="Deepfakes" style="text;html=1;align=center;verticalAlign=middle;resizable=0;points=[];autosize=1;strokeColor=none;fillColor=none;" vertex="1" parent="1">
          <mxGeometry x="456.4" y="60" width="80" height="30" as="geometry" />
        </mxCell>
        <mxCell id="A1cvQZXChHMwhufqwU2C-13" value="Face2Face" style="text;html=1;align=center;verticalAlign=middle;resizable=0;points=[];autosize=1;strokeColor=none;fillColor=none;" vertex="1" parent="1">
          <mxGeometry x="456.4" y="80" width="80" height="30" as="geometry" />
        </mxCell>
        <mxCell id="A1cvQZXChHMwhufqwU2C-14" value="FaceSwap" style="text;html=1;align=center;verticalAlign=middle;resizable=0;points=[];autosize=1;strokeColor=none;fillColor=none;" vertex="1" parent="1">
          <mxGeometry x="456.4" y="100" width="80" height="30" as="geometry" />
        </mxCell>
        <mxCell id="A1cvQZXChHMwhufqwU2C-15" value="NeuralTextures" style="text;html=1;align=center;verticalAlign=middle;resizable=0;points=[];autosize=1;strokeColor=none;fillColor=none;" vertex="1" parent="1">
          <mxGeometry x="447.4" y="119" width="100" height="30" as="geometry" />
        </mxCell>
      </root>
    </mxGraphModel>
  </diagram>
</mxfile>
